<svg xmlns="http://www.w3.org/2000/svg" width="23.478" height="23.485" viewBox="0 0 23.478 23.485">
  <g id="add" transform="translate(2276.901 -10727.677)">
    <path id="Path_13047" data-name="Path 13047" d="M3985.6,769.285v-1.376c.014-.081.03-.162.042-.244.074-.506.116-1.018.224-1.516a11.734,11.734,0,1,1,20.288,10.185,11.525,11.525,0,0,1-6.79,3.82c-.442.079-.89.123-1.335.183h-1.376a1.255,1.255,0,0,0-.177-.038,11.174,11.174,0,0,1-5.122-1.616,11.588,11.588,0,0,1-5.57-8.067C3985.7,770.177,3985.66,769.729,3985.6,769.285Zm11.75,9.229a9.917,9.917,0,1,0-9.927-9.9A9.922,9.922,0,0,0,3997.35,778.514Z" transform="translate(-6262.501 9970.824)" fill="#da251c"/>
    <path id="Path_13048" data-name="Path 13048" d="M4099.854,869.718v-.764c0-.948-.005-1.895,0-2.842a.9.9,0,0,1,.767-.919.882.882,0,0,1,.976.549,1.387,1.387,0,0,1,.077.47c.006,1.077,0,2.155,0,3.232v.275h.289c1.069,0,2.139,0,3.209,0a.969.969,0,0,1,.891.416.86.86,0,0,1,.048.914.87.87,0,0,1-.819.491c-1.116,0-2.231,0-3.347,0h-.271v.266c0,1.1,0,2.2,0,3.3a.912.912,0,0,1-1.218.924.927.927,0,0,1-.605-.933q0-1.639,0-3.278v-.28h-.257c-1.123,0-2.246,0-3.369,0a.907.907,0,0,1-.771-1.393.956.956,0,0,1,.885-.427q1.6,0,3.209,0Z" transform="translate(-6365.933 9868.746)" fill="#5d5c5c"/>
  </g>
</svg>
