<svg xmlns="http://www.w3.org/2000/svg" width="205.472" height="123.213" viewBox="0 0 205.472 123.213">
  <g id="addpopup" transform="translate(-857 -354.538)">
    <g id="Group_8645" data-name="Group 8645" transform="translate(921.405 347.393)">
      <path id="Exclusion_2" data-name="Exclusion 2" d="M105.119-10549.9a8.688,8.688,0,0,1-8.407-6.515l-19.9-77.178a8.636,8.636,0,0,1,.933-6.576,8.636,8.636,0,0,1,5.3-4l4.589-1.183,56.55-14.583,4.589-1.186a8.722,8.722,0,0,1,2.167-.275,8.689,8.689,0,0,1,8.408,6.516l19.9,77.178a8.635,8.635,0,0,1-.934,6.577,8.637,8.637,0,0,1-5.307,4l-.011,0-65.7,16.946-.013,0A8.772,8.772,0,0,1,105.119-10549.9Zm45.811-108.993a6.116,6.116,0,0,0-1.53.2l-5.437,1.4-54.856,14.147-5.437,1.4a6.2,6.2,0,0,0-4.442,7.53l19.9,77.178a6.189,6.189,0,0,0,5.986,4.639,6.233,6.233,0,0,0,1.543-.2l.011,0,65.706-16.943.011,0a6.2,6.2,0,0,0,4.442-7.53l-19.9-77.178a6.183,6.183,0,0,0-5.985-4.64Z" transform="matrix(0.993, -0.122, 0.122, 0.993, 1158.93, 10610.949)" fill="#f2f2f2"/>
      <path id="Path_16154" data-name="Path 16154" d="M430.945,239.633,397.707,248.2a1.446,1.446,0,1,1-.722-2.8l33.238-8.572a1.446,1.446,0,1,1,.722,2.8Z" transform="matrix(0.993, -0.122, 0.122, 0.993, -449.718, -146.529)" fill="#f2f2f2"/>
      <path id="Path_16155" data-name="Path 16155" d="M443.473,257.568l-39.013,10.06a1.446,1.446,0,1,1-.722-2.8l39.013-10.061a1.446,1.446,0,0,1,.722,2.8Z" transform="matrix(0.993, -0.122, 0.122, 0.993, -457.004, -160.445)" fill="#f2f2f2"/>
      <path id="Path_16156" data-name="Path 16156" d="M461.213,357.006l-33.239,8.572a1.446,1.446,0,1,1-.722-2.8l33.238-8.572a1.446,1.446,0,1,1,.722,2.8Z" transform="matrix(0.993, -0.122, 0.122, 0.993, -486.066, -238.991)" fill="#f2f2f2"/>
      <path id="Path_16157" data-name="Path 16157" d="M473.741,374.942,434.729,385a1.446,1.446,0,1,1-.722-2.8l39.013-10.061a1.446,1.446,0,1,1,.722,2.8Z" transform="matrix(0.993, -0.122, 0.122, 0.993, -493.352, -252.908)" fill="#f2f2f2"/>
      <path id="Path_16158" data-name="Path 16158" d="M491.482,474.379l-33.238,8.572a1.446,1.446,0,0,1-.722-2.8l33.238-8.572a1.446,1.446,0,1,1,.722,2.8Z" transform="matrix(0.993, -0.122, 0.122, 0.993, -522.414, -331.452)" fill="#f2f2f2"/>
      <path id="Path_16159" data-name="Path 16159" d="M504.01,492.315,465,502.376a1.446,1.446,0,1,1-.722-2.8l39.013-10.061a1.446,1.446,0,0,1,.722,2.8Z" transform="matrix(0.993, -0.122, 0.122, 0.993, -529.7, -345.369)" fill="#f2f2f2"/>
      <path id="Path_16160" data-name="Path 16160" d="M304.8,295.032l-11.763,3.033a.694.694,0,0,1-.844-.5L289.5,287.1a.694.694,0,0,1,.5-.844l11.763-3.033a.694.694,0,0,1,.844.5l2.7,10.471A.694.694,0,0,1,304.8,295.032Z" transform="matrix(0.993, -0.122, 0.122, 0.993, -367.775, -194.915)" fill="#e6e6e6"/>
      <path id="Path_16161" data-name="Path 16161" d="M335.072,412.405l-11.763,3.033a.694.694,0,0,1-.844-.5l-2.7-10.47a.694.694,0,0,1,.5-.844l11.763-3.033a.694.694,0,0,1,.844.5l2.7,10.471a.694.694,0,0,1-.5.844Z" transform="matrix(0.993, -0.122, 0.122, 0.993, -404.123, -287.376)" fill="#e6e6e6"/>
      <path id="Path_16162" data-name="Path 16162" d="M365.34,529.779l-11.763,3.033a.694.694,0,0,1-.844-.5l-2.7-10.471a.694.694,0,0,1,.5-.844l11.763-3.033a.694.694,0,0,1,.844.5l2.7,10.471A.694.694,0,0,1,365.34,529.779Z" transform="matrix(0.993, -0.122, 0.122, 0.993, -440.471, -379.838)" fill="#e6e6e6"/>
      <path id="Exclusion_1" data-name="Exclusion 1" d="M153.093-10564.328H85.214a8.625,8.625,0,0,1-6.135-2.544,8.636,8.636,0,0,1-2.545-6.136v-79.7a8.64,8.64,0,0,1,2.545-6.137,8.636,8.636,0,0,1,6.135-2.546h67.879a8.636,8.636,0,0,1,6.135,2.546,8.64,8.64,0,0,1,2.545,6.137v79.7a8.636,8.636,0,0,1-2.545,6.136A8.625,8.625,0,0,1,153.093-10564.328Zm-67.879-94.566a6.2,6.2,0,0,0-6.181,6.184v79.7a6.2,6.2,0,0,0,6.181,6.181h67.879a6.2,6.2,0,0,0,6.181-6.181v-79.7a6.2,6.2,0,0,0-6.181-6.184Z" transform="translate(-35.004 10681.237)" fill="#e6e6e6"/>
      <circle id="Ellipse_92" data-name="Ellipse 92" cx="15.846" cy="15.846" r="15.846" transform="translate(109.375 94.915)" fill="#da251c"/>
      <path id="Path_16165" data-name="Path 16165" d="M866.921,667.194H861.41v-5.512a2.067,2.067,0,0,0-4.134,0v5.512h-5.512a2.067,2.067,0,0,0,0,4.134h5.512v5.512a2.067,2.067,0,0,0,4.134,0v-5.512h5.512a2.067,2.067,0,1,0,0-4.134Z" transform="translate(-734.122 -558.5)" fill="#fff"/>
      <path id="Path_16166" data-name="Path 16166" d="M644.456,452.579H610.13a1.446,1.446,0,0,1,0-2.891h34.326a1.446,1.446,0,0,1,0,2.891Z" transform="translate(-536.582 -386.438)" fill="#e6e6e6"/>
      <path id="Path_16167" data-name="Path 16167" d="M650.419,479.626H610.13a1.446,1.446,0,0,1,0-2.891h40.289a1.446,1.446,0,0,1,0,2.891Z" transform="translate(-536.582 -408.606)" fill="#e6e6e6"/>
      <path id="Path_16168" data-name="Path 16168" d="M644.456,573.792H610.13a1.446,1.446,0,1,1,0-2.891h34.326a1.446,1.446,0,1,1,0,2.891Z" transform="translate(-536.582 -485.787)" fill="#e6e6e6"/>
      <path id="Path_16169" data-name="Path 16169" d="M650.419,600.84H610.13a1.446,1.446,0,0,1,0-2.891h40.289a1.446,1.446,0,0,1,0,2.891Z" transform="translate(-536.582 -507.956)" fill="#e6e6e6"/>
      <path id="Path_16170" data-name="Path 16170" d="M515.722,449.609H503.574a.694.694,0,0,1-.693-.693V438.1a.694.694,0,0,1,.693-.693h12.148a.694.694,0,0,1,.693.693v10.813a.694.694,0,0,1-.693.693Z" transform="translate(-449.863 -376.374)" fill="#e6e6e6"/>
      <path id="Path_16171" data-name="Path 16171" d="M515.722,570.822H503.574a.694.694,0,0,1-.693-.693V559.315a.694.694,0,0,1,.693-.693h12.148a.694.694,0,0,1,.693.693v10.813a.694.694,0,0,1-.693.693Z" transform="translate(-449.863 -475.723)" fill="#e6e6e6"/>
      <path id="Path_16172" data-name="Path 16172" d="M685.649,317.644H660.341a1.446,1.446,0,0,1,0-2.891h25.307a1.446,1.446,0,0,1,0,2.891Z" transform="translate(-577.736 -275.842)" fill="#ccc"/>
      <path id="Path_16173" data-name="Path 16173" d="M691.611,344.692h-31.27a1.446,1.446,0,1,1,0-2.891h31.27a1.446,1.446,0,1,1,0,2.891Z" transform="translate(-577.736 -298.011)" fill="#ccc"/>
      <path id="Path_16174" data-name="Path 16174" d="M526.694,301.569H503.363a.694.694,0,0,1-.693-.693V282.667a.694.694,0,0,1,.693-.693h23.331a.694.694,0,0,1,.693.693v18.208A.694.694,0,0,1,526.694,301.569Z" transform="translate(-449.69 -248.976)" fill="#da251c"/>
    </g>
  </g>
</svg>
