<svg id="ammo" xmlns="http://www.w3.org/2000/svg" width="105.948" height="122.182" viewBox="0 0 105.948 122.182">
  <path id="Path_16222" data-name="Path 16222" d="M960.891,443.549a4.743,4.743,0,0,1-3.108-5.283c.095-1.224.016-2.462.016-3.694,0-3.424.733-4.417,4.065-5.413v-1.5q0-34.275-.021-68.549c0-2.974.941-5.246,3.683-6.657.318-.164.509-.836.526-1.28a37.147,37.147,0,0,1,15.824-28.945,3.857,3.857,0,0,1,4.776,0,36.878,36.878,0,0,1,15.52,25.505,5.118,5.118,0,0,1,.1.828c-.041,2.18.3,3.99,2.521,5.283,1.586.921,1.887,2.913,1.885,4.788q-.02,26.943-.008,53.885v16.646c3.335,1.005,4.065,1.995,4.065,5.414,0,1.231-.077,2.469.017,3.694a4.743,4.743,0,0,1-3.108,5.284Zm41.713-39.4v-1.295q0-22,0-43.991c0-2.2-.649-2.848-2.836-2.848q-15.5,0-31,0c-2.191,0-2.838.647-2.838,2.845q0,22.055,0,44.11c0,.382.035.764.055,1.18Zm-.065,4.2H966v20.82h36.543ZM998.454,351.9c-.538-10.672-4.858-19.208-13.2-25.7a1.3,1.3,0,0,0-1.919-.041,32.841,32.841,0,0,0-12.614,20.105c-.374,1.831-.464,3.721-.69,5.636Zm-36.52,87.485H1006.6V433.42H961.934Z" transform="translate(-931.293 -321.367)" fill="#fff"/>
  <path id="Path_16223" data-name="Path 16223" d="M1024.682,443.55a6.288,6.288,0,0,1-1.3-1.6c-.46-1.283.649-2.451,2.239-2.456,4.929-.013,9.858,0,14.786,0h1.348v-6.071c-.405-.021-.823-.059-1.241-.06q-7.035-.006-14.071,0c-.318,0-.636.007-.954-.006a2.032,2.032,0,1,1-.02-4.05c2.7-.04,5.406-.014,8.109-.016h4.1V408.325c-.411-.02-.828-.056-1.246-.056-4.929,0-9.858.007-14.786-.012a2.007,2.007,0,0,1-2.215-1.983,2.067,2.067,0,0,1,2.264-2.071c.278-.008.556,0,.835,0h15.224v-1.421q0-21.883,0-43.765c0-2.418-.591-3-3.05-3q-6.678,0-13.356,0c-1.714,0-2.649-.738-2.631-2.054s.944-2.006,2.687-2.007q5.426,0,10.852,0h1.257a28.708,28.708,0,0,0-1.437-9.211,32.67,32.67,0,0,0-11.9-16.7c-.585-.438-1.018-.5-1.541-.006-1.959,1.848-3.938,3.679-5.879,5.546a2.046,2.046,0,0,1-2.572.555,1.869,1.869,0,0,1-1.015-2.2,2.569,2.569,0,0,1,.529-1.04,31.462,31.462,0,0,1,7.481-6.771,3.8,3.8,0,0,1,4.576.072,36.732,36.732,0,0,1,15.593,25.717,5.509,5.509,0,0,1,.141,1.181,4.252,4.252,0,0,0,2.252,4.531c1.639.967,2.087,2.9,2.085,4.83q-.012,10.434,0,20.869v49.8c3.429,1.124,4.066,2.005,4.066,5.54,0,1.192-.074,2.39.016,3.576a4.775,4.775,0,0,1-3.1,5.3Z" transform="translate(-939.983 -321.368)" fill="#fff"/>
  <path id="Path_16224" data-name="Path 16224" d="M929.025,443.544a4.765,4.765,0,0,1-3.1-5.3c.087-1.146.015-2.3.015-3.457,0-3.672.6-4.519,4.066-5.659v-1.509q0-34.346-.014-68.693c0-2.889,1-5.071,3.632-6.451a1.668,1.668,0,0,0,.581-1.238,35.744,35.744,0,0,1,8.869-22.619,62.39,62.39,0,0,1,7.022-6.4,3.539,3.539,0,0,1,4.354-.209,30.781,30.781,0,0,1,7.845,7.069,1.984,1.984,0,0,1-.25,2.877,2.069,2.069,0,0,1-2.878-.288c-2-1.917-4.042-3.8-6.065-5.7a.9.9,0,0,0-1.342-.024,32.588,32.588,0,0,0-13.459,25.188c-.013.228,0,.457,0,.814h5.42c2.306,0,4.611-.008,6.917,0,1.532.007,2.441.747,2.472,1.982.032,1.284-.9,2.074-2.488,2.077-4.651.007-9.3,0-13.953.005-1.829,0-2.587.716-2.588,2.5q-.013,22.42,0,44.84c0,.231.026.463.05.844h1.319q7.275,0,14.55,0a2.146,2.146,0,0,1,2.358,1.58c.318,1.348-.686,2.47-2.277,2.475-4.85.015-9.7.006-14.55.007H934.16v21.015h2.772c3.062,0,6.122-.012,9.183.007,1.488.009,2.434.835,2.435,2.048s-.92,2.009-2.438,2.012c-4.89.011-9.779,0-14.669.005h-1.357v6.078c.385.018.8.052,1.216.053,4.85,0,9.7.017,14.55-.008,1.164-.006,2.161.192,2.578,1.435.427,1.275-.355,2-1.277,2.64Z" transform="translate(-925.903 -321.362)" fill="#fff"/>
  <path id="Path_16225" data-name="Path 16225" d="M944.717,372.021c0,.907,0,1.652,0,2.4,0,1.907.027,3.814-.021,5.72a2.008,2.008,0,1,1-4.014.128q-.087-5.183,0-10.367a1.906,1.906,0,0,1,2.039-1.92c2.7-.045,5.4-.049,8.1,0a2.016,2.016,0,1,1-.072,4.031C948.812,372.045,946.868,372.021,944.717,372.021Z" transform="translate(-928.396 -329.244)" fill="#db2f27"/>
  <path id="Path_16226" data-name="Path 16226" d="M976.563,372.027c0,2.428,0,4.685,0,6.941a13.753,13.753,0,0,1-.033,1.429,1.943,1.943,0,0,1-1.88,1.813,1.876,1.876,0,0,1-2.023-1.5,8.481,8.481,0,0,1-.129-1.89q-.018-4.112,0-8.225c.008-1.892.724-2.624,2.576-2.633q3.576-.017,7.152,0c1.594.008,2.5.8,2.464,2.1-.033,1.252-.9,1.951-2.462,1.958C980.4,372.033,978.577,372.027,976.563,372.027Z" transform="translate(-933.785 -329.245)" fill="#db2f27"/>
</svg>
