<svg xmlns="http://www.w3.org/2000/svg" width="15.38" height="17.737" viewBox="0 0 15.38 17.737">
  <g id="ammo" transform="translate(-1788.894 -135.761)">
    <g id="Group_8757" data-name="Group 8757">
      <path id="Path_16222" data-name="Path 16222" d="M958.213,339.127a.689.689,0,0,1-.451-.767c.014-.178,0-.357,0-.536,0-.5.106-.641.59-.786v-.218q0-4.976,0-9.951a.973.973,0,0,1,.535-.966c.046-.024.074-.121.076-.186a5.392,5.392,0,0,1,2.3-4.2.56.56,0,0,1,.693,0,5.353,5.353,0,0,1,2.253,3.7.74.74,0,0,1,.014.12.749.749,0,0,0,.366.767.75.75,0,0,1,.274.7q0,3.911,0,7.822v2.416c.484.146.59.29.59.786,0,.179-.011.358,0,.536a.689.689,0,0,1-.451.767Zm6.055-5.719v-.188q0-3.193,0-6.386c0-.319-.094-.413-.412-.413h-4.5c-.318,0-.412.094-.412.413q0,3.2,0,6.4c0,.055.005.111.008.171Zm-.009.61h-5.3v3.022h5.3Zm-.593-8.2a4.8,4.8,0,0,0-1.916-3.731.189.189,0,0,0-.279-.006A4.767,4.767,0,0,0,959.64,325c-.054.266-.067.54-.1.818Zm-5.3,12.7h6.484v-.866h-6.484Z" transform="translate(834.978 -185.629)" fill="#fff"/>
      <path id="Path_16223" data-name="Path 16223" d="M1011.375,339.133a.914.914,0,0,1-.189-.233c-.067-.186.094-.356.325-.357.716,0,1.431,0,2.146,0h.2v-.881c-.059,0-.12-.009-.18-.009h-2.043c-.046,0-.092,0-.139,0a.295.295,0,1,1,0-.588c.392-.006.785,0,1.177,0h.6V334.02c-.06,0-.12-.008-.181-.008-.716,0-1.431,0-2.146,0a.291.291,0,0,1-.322-.288.3.3,0,0,1,.329-.3c.04,0,.081,0,.121,0h2.21v-.206q0-3.177,0-6.353c0-.351-.086-.435-.443-.435h-1.939c-.249,0-.385-.107-.382-.3s.137-.291.39-.291h1.758a4.166,4.166,0,0,0-.209-1.337,4.742,4.742,0,0,0-1.728-2.424c-.085-.064-.148-.072-.224,0-.284.268-.572.534-.853.805a.3.3,0,0,1-.373.081.271.271,0,0,1-.147-.319.373.373,0,0,1,.077-.151,4.568,4.568,0,0,1,1.086-.983.551.551,0,0,1,.664.01,5.332,5.332,0,0,1,2.264,3.733.8.8,0,0,1,.021.171.617.617,0,0,0,.327.658.76.76,0,0,1,.3.7q0,1.515,0,3.029v7.23c.5.163.59.291.59.8,0,.173-.011.347,0,.519a.693.693,0,0,1-.45.769Z" transform="translate(789.814 -185.636)" fill="#fff"/>
      <path id="Path_16224" data-name="Path 16224" d="M926.356,339.1a.692.692,0,0,1-.45-.769c.013-.166,0-.335,0-.5,0-.533.087-.656.59-.821v-.219q0-4.986,0-9.972a.957.957,0,0,1,.527-.936.242.242,0,0,0,.084-.18,5.189,5.189,0,0,1,1.288-3.284,9.054,9.054,0,0,1,1.019-.929.514.514,0,0,1,.632-.03,4.47,4.47,0,0,1,1.139,1.026.288.288,0,0,1-.036.418.3.3,0,0,1-.418-.042c-.291-.278-.587-.551-.88-.827a.13.13,0,0,0-.195,0,4.731,4.731,0,0,0-1.954,3.656c0,.033,0,.066,0,.118h.787c.335,0,.669,0,1,0,.222,0,.354.108.359.288s-.13.3-.361.3h-2.026c-.265,0-.376.1-.376.362q0,3.255,0,6.509c0,.034,0,.067.007.123h.191q1.056,0,2.112,0a.312.312,0,0,1,.342.229c.046.2-.1.359-.331.359-.7,0-1.408,0-2.112,0h-.2v3.051h.4c.444,0,.889,0,1.333,0,.216,0,.353.121.354.3s-.134.292-.354.292c-.71,0-1.42,0-2.129,0h-.2v.882c.056,0,.116.008.177.008.7,0,1.408,0,2.112,0,.169,0,.314.028.374.208s-.051.29-.185.383Z" transform="translate(862.991 -185.601)" fill="#fff"/>
    </g>
  </g>
</svg>
