<svg id="dashboard" xmlns="http://www.w3.org/2000/svg" width="31.003" height="23.248" viewBox="0 0 31.003 23.248">
  <rect id="Rectangle_5" data-name="Rectangle 5" width="0.926" height="18.511" transform="translate(0.795 1.163)" fill="#db2f27" opacity="0.28"/>
  <g id="Group_16" data-name="Group 16">
    <path id="Path_46" data-name="Path 46" d="M197.433,424.309a.777.777,0,0,1-.869.573q-14.661-.01-29.323,0a.83.83,0,0,1-.812-.453V404.69a.839.839,0,0,1,.861-.475q14.633.008,29.266,0a.833.833,0,0,1,.876.536Zm-1.338-.741V405.551H167.731v18.017Z" transform="translate(-166.43 -404.214)" fill="#db2f27"/>
    <path id="Path_47" data-name="Path 47" d="M195.321,457.283q2.647,0,5.294,0a.645.645,0,1,1,.019,1.282c-1.472,0-2.944,0-4.417,0H190.2c-.091,0-.182,0-.272,0a.65.65,0,0,1-.657-.648.638.638,0,0,1,.669-.632c1.391-.005,2.783,0,4.174,0Z" transform="translate(-179.817 -435.321)" fill="#db2f27"/>
    <path id="Path_48" data-name="Path 48" d="M217.123,419.976a3.856,3.856,0,1,1,.081-7.711,3.775,3.775,0,0,1,3.7,3.817A3.974,3.974,0,0,1,217.123,419.976Zm.64-6.342a2.566,2.566,0,0,0-1.236,4.982,2.456,2.456,0,0,0,2.99-1.52.864.864,0,0,0-.137-.041c-.68-.087-1.359-.181-2.041-.255-.788-.086-1.007-.494-.629-1.2C217.057,414.955,217.4,414.308,217.763,413.635Zm.413,1.967,1.531.187a2.483,2.483,0,0,0-.782-1.58Z" transform="translate(-193.906 -408.933)" fill="#fff"/>
    <path id="Path_49" data-name="Path 49" d="M200.7,420.139q0-2.844,0-5.688c0-.436.2-.71.534-.764a.649.649,0,0,1,.765.713c.008.837,0,1.674,0,2.511q0,4.371,0,8.743c0,.07,0,.141,0,.211a.653.653,0,1,1-1.3-.009c-.006-1.321,0-2.642,0-3.963v-1.755Z" transform="translate(-186.517 -409.761)" fill="#fff"/>
    <path id="Path_50" data-name="Path 50" d="M194.487,427.564c0-1.28,0-2.561,0-3.841a.63.63,0,0,1,.762-.674.663.663,0,0,1,.522.741q0,2.525,0,5.051c0,.827,0,1.654,0,2.48a.663.663,0,0,1-.648.749c-.389,0-.637-.289-.638-.756q0-1.875,0-3.75Z" transform="translate(-182.875 -415.248)" fill="#fff"/>
    <path id="Path_51" data-name="Path 51" d="M181.985,430.013c0-1.048-.006-2.1,0-3.145a.65.65,0,0,1,.983-.633.71.71,0,0,1,.317.675q0,2.026,0,4.052,0,1.028,0,2.056c0,.556-.238.871-.657.867s-.644-.311-.644-.879Q181.984,431.51,181.985,430.013Z" transform="translate(-175.547 -417.063)" fill="#fff"/>
    <path id="Path_52" data-name="Path 52" d="M217.068,436.791c-1.038,0-2.076,0-3.113,0-.471,0-.744-.242-.742-.643s.284-.64.75-.64q3.143,0,6.287,0a.643.643,0,0,1,.672.454.613.613,0,0,1-.252.715.994.994,0,0,1-.457.111C219.163,436.795,218.115,436.791,217.068,436.791Z" transform="translate(-193.852 -422.556)" fill="#fff"/>
    <path id="Path_53" data-name="Path 53" d="M217.065,443.042q-1.587,0-3.174,0a.633.633,0,0,1-.646-.4.568.568,0,0,1,.144-.691.855.855,0,0,1,.488-.185c2.126-.012,4.252-.01,6.377-.006a.637.637,0,0,1,.682.648.651.651,0,0,1-.7.638c-1.058,0-2.116,0-3.174,0Z" transform="translate(-193.839 -426.218)" fill="#fff"/>
    <path id="Path_54" data-name="Path 54" d="M188.234,432.455c0-.817,0-1.634,0-2.452A.649.649,0,1,1,189.52,430q0,2.5,0,4.994a.651.651,0,0,1-.639.726.667.667,0,0,1-.648-.751Q188.231,433.711,188.234,432.455Z" transform="translate(-179.21 -418.896)" fill="#fff"/>
    <path id="Path_55" data-name="Path 55" d="M177.053,437.443c0,.413,0,.826,0,1.239a.649.649,0,0,1-.634.7.641.641,0,0,1-.647-.682q-.007-1.254,0-2.508a.637.637,0,0,1,.646-.682.647.647,0,0,1,.635.7c0,.211,0,.423,0,.634Z" transform="translate(-171.904 -422.558)" fill="#fff"/>
  </g>
</svg>
