<svg xmlns="http://www.w3.org/2000/svg" width="24.06" height="25.71" viewBox="0 0 24.06 25.71">
  <g id="datepicker" transform="translate(-118.4 -358.896)">
    <path id="Path_3047" data-name="Path 3047" d="M122.395,382.732c0,.526,0,1.022,0,1.519a2.209,2.209,0,0,0,1.475,2.131,1.9,1.9,0,0,0,2.261-1.021,3.237,3.237,0,0,0,.282-1.1c.047-.492.011-.994.011-1.51h8.008c0,.5,0,.983,0,1.47a2.173,2.173,0,0,0,1.718,2.217,1.979,1.979,0,0,0,2.218-1.573,7.336,7.336,0,0,0,.1-1.344c.012-.248,0-.5,0-.789.386,0,.758-.01,1.131,0a4.784,4.784,0,0,1,1.021.084,2.576,2.576,0,0,1,1.84,2.6q0,5.323,0,10.647,0,3.521,0,7.042a2.585,2.585,0,0,1-1.809,2.576,2.625,2.625,0,0,1-.693.089q-9.544.007-19.087.005a2.537,2.537,0,0,1-2.466-2.708q0-8.775,0-17.55a2.534,2.534,0,0,1,2.518-2.79C121.4,382.729,121.885,382.732,122.395,382.732Zm-2.41,7.084v.3q0,6.03,0,12.059a.852.852,0,0,0,.875.964h8.351c3.595,0,7.189,0,10.784-.008a1.074,1.074,0,0,0,.577-.2.911.911,0,0,0,.3-.806q0-6.016,0-12.032v-.272Z" transform="translate(0 -21.174)" fill="#fff"/>
    <path id="Path_3048" data-name="Path 3048" d="M163.964,361.542c0,.434,0,.868,0,1.3a1.2,1.2,0,1,1-2.385,0q-.008-1.3,0-2.6a1.2,1.2,0,1,1,2.385,0c0,.434,0,.868,0,1.3Z" transform="translate(-38.361 0)" fill="#fff"/>
    <path id="Path_3049" data-name="Path 3049" d="M269.585,361.536c0-.434,0-.868,0-1.3a1.2,1.2,0,1,1,2.386,0q.005,1.3,0,2.6a1.2,1.2,0,1,1-2.385,0C269.582,362.4,269.584,361.97,269.585,361.536Z" transform="translate(-134.329 0)" fill="#fff"/>
    <path id="Path_3050" data-name="Path 3050" d="M190.5,465.145v-2.6h3.163v2.6Z" transform="translate(-64.065 -92.091)" fill="#fff"/>
    <path id="Path_3051" data-name="Path 3051" d="M236.91,465.123h-3.16v-2.61h3.16Z" transform="translate(-102.49 -92.066)" fill="#fff"/>
    <path id="Path_3052" data-name="Path 3052" d="M276.9,465.147v-2.6h3.163v2.6Z" transform="translate(-140.827 -92.092)" fill="#fff"/>
    <path id="Path_3053" data-name="Path 3053" d="M147.313,496.988v-2.6h3.161v2.6Z" transform="translate(-25.69 -120.385)" fill="#fff"/>
    <path id="Path_3054" data-name="Path 3054" d="M193.7,494.328v2.605h-3.164v-2.605Z" transform="translate(-64.092 -120.334)" fill="#fff"/>
    <path id="Path_3055" data-name="Path 3055" d="M233.736,494.243h3.155v2.615h-3.155Z" transform="translate(-102.478 -120.258)" fill="#fff"/>
    <path id="Path_3056" data-name="Path 3056" d="M280.108,496.959h-3.159v-2.61h3.159Z" transform="translate(-140.873 -120.353)" fill="#fff"/>
    <path id="Path_3057" data-name="Path 3057" d="M147.241,528.83v-2.6h3.168v2.6Z" transform="translate(-25.626 -148.679)" fill="#fff"/>
    <path id="Path_3058" data-name="Path 3058" d="M193.719,528.8H190.56v-2.609h3.159Z" transform="translate(-64.115 -148.643)" fill="#fff"/>
    <path id="Path_3059" data-name="Path 3059" d="M233.715,526.142h3.159v2.61h-3.159Z" transform="translate(-102.459 -148.601)" fill="#fff"/>
    <path id="Path_3060" data-name="Path 3060" d="M276.894,528.812v-2.6h3.164v2.6Z" transform="translate(-140.824 -148.659)" fill="#fff"/>
  </g>
</svg>
