<svg xmlns="http://www.w3.org/2000/svg" width="229.986" height="126.601" viewBox="0 0 229.986 126.601">
  <g id="email" transform="translate(-845.007 -321.398)">
    <g id="Group_8644" data-name="Group 8644" transform="translate(845.007 321.398)">
      <circle id="Ellipse_86" data-name="Ellipse 86" cx="6.527" cy="6.527" r="6.527" transform="translate(79.173 73.948)" fill="#da251c"/>
      <path id="Path_16124" data-name="Path 16124" d="M338.648,320.331,336.7,317.82l1.136-.884.925,1.189,3.125-3.3,1.045.99Z" transform="translate(-253.571 -237.102)" fill="#fff"/>
      <path id="Path_16125" data-name="Path 16125" d="M690.042,214.937H593.018V194.2h97.024Z" transform="translate(-479.625 -194.199)" fill="none"/>
      <circle id="Ellipse_87" data-name="Ellipse 87" cx="5.268" cy="5.268" r="5.268" transform="translate(120.697 5.101)" fill="#da251c"/>
      <path id="Path_16126" data-name="Path 16126" d="M690.546,221.973a.878.878,0,1,0,0,1.756h64.1a.878.878,0,0,0,0-1.756Z" transform="translate(-552.414 -215.116)" fill="#807d7d"/>
      <path id="Path_16127" data-name="Path 16127" d="M690.54,243.312a.878.878,0,1,0,0,1.756h40.528a.878.878,0,0,0,0-1.756Z" transform="translate(-552.408 -231.187)" fill="#807d7d"/>
      <path id="Path_16128" data-name="Path 16128" d="M690.042,214.937H593.018V194.2h97.024ZM594.5,213.456h94.062V195.68H594.5Z" transform="translate(-479.625 -194.199)" fill="#ccc"/>
      <path id="Path_16129" data-name="Path 16129" d="M690.042,319.937H593.018V299.2h97.024Z" transform="translate(-479.625 -273.276)" fill="none"/>
      <circle id="Ellipse_88" data-name="Ellipse 88" cx="5.268" cy="5.268" r="5.268" transform="translate(120.697 31.023)" fill="#e6e6e6"/>
      <path id="Path_16130" data-name="Path 16130" d="M690.546,326.973a.878.878,0,1,0,0,1.756h64.1a.878.878,0,0,0,0-1.756Z" transform="translate(-552.414 -294.194)" fill="#e6e6e6"/>
      <path id="Path_16131" data-name="Path 16131" d="M690.54,348.312a.878.878,0,1,0,0,1.756h40.528a.878.878,0,1,0,0-1.756Z" transform="translate(-552.408 -310.264)" fill="#e6e6e6"/>
      <path id="Path_16132" data-name="Path 16132" d="M690.042,319.937H593.018V299.2h97.024ZM594.5,318.456h94.062V300.68H594.5Z" transform="translate(-479.625 -273.276)" fill="#e6e6e6"/>
      <path id="Path_16133" data-name="Path 16133" d="M690.042,424.937H593.018V404.2h97.024Z" transform="translate(-479.625 -352.354)" fill="none"/>
      <circle id="Ellipse_89" data-name="Ellipse 89" cx="5.268" cy="5.268" r="5.268" transform="translate(120.697 56.946)" fill="#e6e6e6"/>
      <path id="Path_16134" data-name="Path 16134" d="M690.546,431.973a.878.878,0,1,0,0,1.756h64.1a.878.878,0,0,0,0-1.756Z" transform="translate(-552.414 -373.271)" fill="#e6e6e6"/>
      <path id="Path_16135" data-name="Path 16135" d="M690.54,453.312a.878.878,0,1,0,0,1.756h40.528a.878.878,0,0,0,0-1.756Z" transform="translate(-552.408 -389.342)" fill="#e6e6e6"/>
      <path id="Path_16136" data-name="Path 16136" d="M690.042,424.937H593.018V404.2h97.024ZM594.5,423.456h94.062V405.68H594.5Z" transform="translate(-479.625 -352.354)" fill="#e6e6e6"/>
      <path id="Path_16137" data-name="Path 16137" d="M332.893,476.272a2.464,2.464,0,0,1,.8-3.693l-.515-5.606,3.331-1.144.615,7.928a2.477,2.477,0,0,1-4.228,2.515Z" transform="translate(-283.329 -398.768)" fill="#ffb8b8"/>
      <path id="Path_16138" data-name="Path 16138" d="M336.3,367.208s2.286-4.8,4.317-3.109-2.785,15.871-2.785,15.871l-.732,13.769-3.86-.386-1.091-13.415Z" transform="translate(-283.156 -321.883)" fill="#ccc"/>
      <path id="Path_16139" data-name="Path 16139" d="M91.056,437.332l2.865,2.319,10.31-9.948L100,426.28Z" transform="translate(-68.576 -321.039)" fill="#ffb8b8"/>
      <path id="Path_16140" data-name="Path 16140" d="M215.712,659.06l5.643,4.568h0a4.627,4.627,0,0,1,.685,6.507l-.095.117-9.239-7.479Z" transform="translate(-193.205 -544.294)" fill="#fff"/>
      <path id="Path_16141" data-name="Path 16141" d="M252.355,453.75h3.686l1.754-14.22h-5.441Z" transform="translate(-190.052 -331.018)" fill="#ffb8b8"/>
      <path id="Path_16142" data-name="Path 16142" d="M382.266,686.45h7.26a4.627,4.627,0,0,1,4.627,4.626v.151H382.266Z" transform="translate(-320.904 -564.922)" fill="#fff"/>
      <path id="Path_16143" data-name="Path 16143" d="M282.939,421.309s6.916,8.42,5.413,16.839-2.706,14.734-2.706,14.734l-2.406,18.944s.9,5.159-.3,6.489c0,0,1.8,3.134-1.5,4.336s-5.092-.416-5.092-.416-2.425-3.494-.922-4.4l.633-37.177-24.088,31.464s-.443,3.827-3.529,3.868l-3.688,2.747-4.21-2.406,2.1-2.706s-1.2-3.007,1.5-3.608l15.636-20.448,3.909-10.524s2.1-8.119,7.818-11.427V424.1Z" transform="translate(-214.168 -365.24)" fill="#e9e9e9"/>
      <path id="Path_16144" data-name="Path 16144" d="M353.278,356.034h0a5.742,5.742,0,0,1,7.568-1.069l.25.167h0a22.164,22.164,0,0,1,5.189,10.683l1.126,6.156-14.133,3.061-3.313-11.427A6.456,6.456,0,0,1,353.278,356.034Z" transform="translate(-296.384 -314.548)" fill="#ccc"/>
      <path id="Path_16145" data-name="Path 16145" d="M440.874,476.153a2.82,2.82,0,0,1-1.608-4.013l-4.077-4.99,2.428-3.217,5.658,7.127a2.835,2.835,0,0,1-2.4,5.093Z" transform="translate(-360.761 -397.341)" fill="#ffb8b8"/>
      <path id="Path_16146" data-name="Path 16146" d="M388.139,363.044s-.9-6.014,2.1-5.713,7.518,16.839,7.518,16.839L405.88,387.7l-3.909,2.1-9.622-12.028Z" transform="translate(-325.231 -317.048)" fill="#ccc"/>
      <path id="Path_16147" data-name="Path 16147" d="M363.761,297.447H349.442a1.112,1.112,0,0,1-1.111-1.111v-6.172a8.271,8.271,0,1,1,16.541,0v6.172A1.112,1.112,0,0,1,363.761,297.447Z" transform="translate(-295.347 -260.243)" fill="#2f2e41"/>
      <circle id="Ellipse_90" data-name="Ellipse 90" cx="6.064" cy="6.064" r="6.064" transform="translate(56.89 24.933)" fill="#ffb8b8"/>
      <path id="Path_16148" data-name="Path 16148" d="M385.186,297.559h-7.631l-.078-1.257-.391,1.257h-1.175l-.155-2.492-.775,2.492h-2.274v-.123c0-3.608,2.558-6.542,5.7-6.542h1.076c3.144,0,5.7,2.935,5.7,6.542Z" transform="translate(-313.704 -267.021)" fill="#2f2e41"/>
      <path id="Path_16149" data-name="Path 16149" d="M365.069,305.251a1.839,1.839,0,0,1-.279-.021l-9.083-1.4V294.37a3.644,3.644,0,0,1,3.644-3.644h6.355l-.247.252c-3.444,3.507-.849,9.192,1,12.269a1.213,1.213,0,0,1-.123,1.437,1.65,1.65,0,0,1-1.27.566Z" transform="translate(-300.902 -266.895)" fill="#2f2e41"/>
      <circle id="Ellipse_91" data-name="Ellipse 91" cx="6.527" cy="6.527" r="6.527" transform="translate(216.933 3.833)" fill="#da251c"/>
      <path id="Path_16150" data-name="Path 16150" d="M896.648,36.331l-1.953-2.512,1.136-.884.925,1.189,3.125-3.3,1.045.99Z" transform="translate(-673.811 -23.216)" fill="#fff"/>
      <path id="Path_16151" data-name="Path 16151" d="M318.311,705.494H134.2c-.267,0-.483-.11-.483-.247s.216-.247.483-.247H318.311c.267,0,.483.111.483.247S318.577,705.494,318.311,705.494Z" transform="translate(-133.719 -578.893)" fill="#ccc"/>
    </g>
  </g>
</svg>
