<svg xmlns="http://www.w3.org/2000/svg" width="122.224" height="122.181" viewBox="0 0 122.224 122.181">
  <g id="govt" transform="translate(0)">
    <g id="Group_7721" data-name="Group 7721">
      <path id="Path_12748" data-name="Path 12748" d="M863.466,62.919V73.654a3.825,3.825,0,0,1-3.538,2.689V134.17c2.377,1.052,2.53,1.2,3.538,3.42v4.294c-1.061,2.432-2.951,3.141-5.535,3.137q-55.643-.081-111.289-.036a4.887,4.887,0,0,1-1.306-.026,12.692,12.692,0,0,1-2.411-.9c-2.257-1.186-2.226-7.653-.019-8.9.646-.363,1.308-.7,1.94-1.03V76.4c-2.619-.547-3.523-1.655-3.526-4.284q0-3.7,0-7.4c0-3.163,1.233-4.4,4.4-4.4,7.515,0,15.03.025,22.544-.033a6.623,6.623,0,0,0,2.807-.733c2.162-1.088,4.247-2.33,6.368-3.5,1.273-.7,2.368-.511,2.887.478.5.961.1,1.937-1.114,2.621-2.147,1.207-4.32,2.367-6.45,3.6a8.5,8.5,0,0,1-4.427,1.158c-7.356-.032-14.712-.014-22.067-.014h-1.278V72.65h114.8V63.9h-1.4c-7.037,0-14.076-.05-21.111.03a11.554,11.554,0,0,1-6-1.562c-9.277-5.216-18.6-10.355-27.889-15.548a1.732,1.732,0,0,0-1.958-.022c-2.576,1.494-5.192,2.918-7.8,4.365-2.152,1.2-4.3,2.4-6.463,3.577a1.829,1.829,0,0,1-2.7-.53c-.545-.949-.2-1.9.93-2.57.171-.1.347-.193.521-.29,4.548-2.525,9.088-5.067,13.654-7.559a1.723,1.723,0,0,0,1.039-1.761c-.042-4.851.047-9.7-.052-14.551-.043-2.126.583-3.7,2.538-4.639h15.746a4.243,4.243,0,0,1,2.613,4.583c-.1,1.942-.009,3.895-.025,5.842-.019,2.5-1.421,3.881-3.946,3.887q-5.664.01-11.329,0h-1.983c0,1.719.054,3.3-.021,4.884a1.676,1.676,0,0,0,1.055,1.747c9.558,5.277,19.09,10.6,28.655,15.867a5.408,5.408,0,0,0,2.473.644c7.511.048,15.025.068,22.538,0C861.007,60.281,862.587,60.909,863.466,62.919Zm-37.255,71.255c0-1.156-.053-2.225.013-3.287a3.535,3.535,0,0,1,2.322-3.319c1.1-.4,1.241-1.025,1.227-2.028-.049-3.616-.032-7.234-.01-10.851.008-1.267.663-1.967,1.734-1.984s1.739.7,1.826,1.924c.022.316.009.636.009.953q0,5.069,0,10.137c0,.423.037.846.058,1.3H841.9V83.551h-8.566V85.07q0,10.018,0,20.034a6.185,6.185,0,0,1-.1,1.419,1.618,1.618,0,0,1-1.848,1.328,1.594,1.594,0,0,1-1.58-1.5,10.424,10.424,0,0,1-.04-1.31q0-10.136,0-20.273V83.456c-4.044-.959-3.591-4.18-3.6-7.07H778.593c.133,3.082.342,6.178-3.561,7.09v3.443q0,19.5,0,39c0,.562-.171,1.136.678,1.411a4,4,0,0,1,2.895,4.17c0,.895,0,1.789,0,2.674h9.817v-1.6q0-13.356,0-26.713c0-3.376,1.6-4.963,4.968-4.966q8.944-.006,17.888,0c3.528,0,5.076,1.552,5.077,5.1q.006,13.356,0,26.713v1.467Zm-13.511.036c.034-.333.078-.565.078-.8,0-9.218-.006-18.437.018-27.655,0-1-.378-1.3-1.342-1.3-5.96.029-11.92.013-17.881.015-1.534,0-1.568.036-1.57,1.635q0,13.411,0,26.821c0,.419.041.837.065,1.279ZM759.176,83.454a3.96,3.96,0,0,1-3.223-2.712,28.564,28.564,0,0,1-.455-4.363h-6.923v57.792h7.081c-.14-3.063-.328-6.143,3.52-7.078Zm97.038,50.73V76.368h-6.919a29.449,29.449,0,0,1-.472,4.407c-.394,1.538-1.732,2.293-3.212,2.709V127.1c3.9.94,3.626,4.063,3.536,7.086Zm-53.943,7.223h55.82a7.229,7.229,0,0,0,1.071-.02c.213-.032.572-.186.581-.306a10.591,10.591,0,0,0,0-2.815c-.051-.251-1.072-.428-1.648-.428q-55.7-.03-111.4-.018a7.51,7.51,0,0,0-1.072.02c-.212.032-.575.182-.582.3a10.5,10.5,0,0,0,0,2.816c.053.254,1.072.433,1.648.434Q774.481,141.422,802.27,141.407ZM771.39,127.04V83.551h-8.522V127.04Zm32.863-93.525h13.538V26.48H804.253ZM759.214,76.347c0,.9.022,1.722-.007,2.545-.026.709.265.994.982.991,4.639-.015,9.28,0,13.919-.037a1.136,1.136,0,0,0,.87-.655,25.1,25.1,0,0,0,.041-2.842Zm86.359.021H829.758c0,.893.016,1.717-.007,2.541-.019.707.282.979,1,.976q6.9-.029,13.8,0c.677,0,1.054-.2,1.03-.943C845.552,78.113,845.573,77.285,845.573,76.368Zm-70.547,57.84a20.322,20.322,0,0,0-.04-2.692,1.216,1.216,0,0,0-.839-.815q-7.017-.076-14.036-.006a1.133,1.133,0,0,0-.851.686,24.823,24.823,0,0,0-.041,2.826Zm70.544,0a20.181,20.181,0,0,0-.04-2.7,1.216,1.216,0,0,0-.854-.8q-7.018-.076-14.037-.009c-.287,0-.8.357-.819.585-.093.959-.039,1.932-.039,2.93Z" transform="translate(-741.243 -22.841)" fill="#fff"/>
      <path id="Path_12749" data-name="Path 12749" d="M812.679,62.624a8.129,8.129,0,1,1-8.071-8.145A8.175,8.175,0,0,1,812.679,62.624ZM800,62.643a4.55,4.55,0,1,0,4.5-4.585A4.586,4.586,0,0,0,800,62.643Z" transform="translate(-743.399 -24.077)" fill="#db2f27"/>
      <path id="Path_12750" data-name="Path 12750" d="M804.135,96.675q-7.39,0-14.779,0c-2.86,0-4.1-1.273-4.111-4.163,0-1.152-.017-2.3,0-3.456a3.451,3.451,0,0,1,3.586-3.622c1.787-.043,3.575-.011,5.363-.011q12.277,0,24.554,0c2.946,0,4.223,1.271,4.227,4.185,0,1.152.015,2.3,0,3.456a3.407,3.407,0,0,1-3.7,3.6C814.226,96.69,809.18,96.674,804.135,96.675Zm15.218-7.6H788.907v3.94h30.446Z" transform="translate(-742.962 -25.286)" fill="#db2f27"/>
    </g>
  </g>
</svg>
