<svg id="govt" xmlns="http://www.w3.org/2000/svg" width="17.743" height="17.737" viewBox="0 0 17.743 17.737">
  <g id="Group_7721" data-name="Group 7721">
    <path id="Path_12748" data-name="Path 12748" d="M758.985,28.659v1.558a.555.555,0,0,1-.514.39V39c.345.153.367.174.514.5v.623a.76.76,0,0,1-.8.455q-8.078-.012-16.155-.005a.709.709,0,0,1-.19,0,1.844,1.844,0,0,1-.35-.131c-.328-.172-.323-1.111,0-1.291.094-.053.19-.1.282-.15v-8.38a.536.536,0,0,1-.512-.622q0-.537,0-1.074c0-.459.179-.638.639-.638,1.091,0,2.182,0,3.273,0a.962.962,0,0,0,.407-.106c.314-.158.616-.338.924-.508.185-.1.344-.074.419.069s.015.281-.162.381c-.312.175-.627.344-.936.523a1.234,1.234,0,0,1-.643.168c-1.068,0-2.136,0-3.2,0h-.186v1.27h16.665V28.8h-.2c-1.021,0-2.043-.007-3.065,0a1.677,1.677,0,0,1-.871-.227c-1.347-.757-2.7-1.5-4.048-2.257a.251.251,0,0,0-.284,0c-.374.217-.754.424-1.132.634-.312.174-.624.348-.938.519a.265.265,0,0,1-.392-.077c-.079-.138-.029-.276.135-.373l.076-.042c.66-.367,1.319-.736,1.982-1.1a.25.25,0,0,0,.151-.256c-.006-.7.007-1.408-.008-2.112a.646.646,0,0,1,.368-.673h2.286a.616.616,0,0,1,.379.665c-.015.282,0,.565,0,.848a.516.516,0,0,1-.573.564H750.38c0,.25.008.48,0,.709a.243.243,0,0,0,.153.254c1.388.766,2.771,1.539,4.16,2.3a.785.785,0,0,0,.359.093c1.09.007,2.181.01,3.272,0A.632.632,0,0,1,758.985,28.659ZM753.577,39c0-.168-.008-.323,0-.477a.513.513,0,0,1,.337-.482c.159-.058.18-.149.178-.294-.007-.525,0-1.05,0-1.575,0-.184.1-.286.252-.288s.253.1.265.279c0,.046,0,.092,0,.138q0,.736,0,1.472c0,.061.005.123.008.188h1.235v-6.31h-1.244v.221q0,1.454,0,2.908a.9.9,0,0,1-.015.206.235.235,0,0,1-.268.193.231.231,0,0,1-.229-.218,1.506,1.506,0,0,1-.006-.19q0-1.471,0-2.943v-.19c-.587-.139-.521-.607-.522-1.026h-6.9c.019.447.05.9-.517,1.029v.5q0,2.83,0,5.661c0,.082-.025.165.1.2a.58.58,0,0,1,.42.605c0,.13,0,.26,0,.388h1.425V38.77q0-1.939,0-3.878a.631.631,0,0,1,.721-.721h2.6c.512,0,.737.225.737.74q0,1.939,0,3.878V39Zm-1.961.005c0-.048.011-.082.011-.116,0-1.338,0-2.676,0-4.015,0-.145-.055-.189-.195-.188-.865,0-1.73,0-2.6,0-.223,0-.228.005-.228.237q0,1.947,0,3.894c0,.061.006.121.009.186Zm-7.77-7.368a.575.575,0,0,1-.468-.394,4.156,4.156,0,0,1-.066-.633h-1.005V39h1.028c-.02-.445-.048-.892.511-1.028ZM757.933,39V30.611h-1a4.278,4.278,0,0,1-.068.64.59.59,0,0,1-.466.393v6.331c.566.136.526.59.513,1.029ZM750.1,40.053h8.1a1.05,1.05,0,0,0,.156,0c.031,0,.083-.027.084-.044a1.538,1.538,0,0,0,0-.409c-.007-.036-.156-.062-.239-.062q-8.086,0-16.172,0a1.09,1.09,0,0,0-.156,0c-.031,0-.083.026-.085.043a1.526,1.526,0,0,0,0,.409c.008.037.156.063.239.063Q746.068,40.055,750.1,40.053Zm-4.483-2.086V31.654h-1.237v6.313Zm4.771-13.577h1.965V23.369H750.39Zm-6.538,6.218c0,.13,0,.25,0,.369,0,.1.038.144.143.144.673,0,1.347,0,2.021-.005a.165.165,0,0,0,.126-.1,3.636,3.636,0,0,0,.006-.413Zm12.536,0h-2.3c0,.13,0,.249,0,.369,0,.1.041.142.145.142q1,0,2,0c.1,0,.153-.029.149-.137S756.388,30.744,756.388,30.611Zm-10.241,8.4a2.955,2.955,0,0,0-.006-.391.177.177,0,0,0-.122-.118q-1.019-.011-2.038,0a.164.164,0,0,0-.123.1,3.6,3.6,0,0,0-.006.41Zm10.24,0a2.927,2.927,0,0,0-.006-.393.176.176,0,0,0-.124-.116q-1.019-.011-2.038,0c-.042,0-.116.052-.119.085-.013.139-.006.281-.006.425Z" transform="translate(-741.243 -22.841)" fill="#fff"/>
    <path id="Path_12749" data-name="Path 12749" d="M798.78,55.661a1.18,1.18,0,1,1-1.172-1.182A1.187,1.187,0,0,1,798.78,55.661Zm-1.841,0a.661.661,0,1,0,.653-.666A.666.666,0,0,0,796.94,55.664Z" transform="translate(-788.723 -50.065)" fill="#db2f27"/>
    <path id="Path_12750" data-name="Path 12750" d="M787.982,87.046q-1.073,0-2.145,0c-.415,0-.6-.185-.6-.6,0-.167,0-.335,0-.5a.5.5,0,0,1,.521-.526c.259-.006.519,0,.779,0H790.1c.428,0,.613.185.614.607,0,.167,0,.335,0,.5a.5.5,0,0,1-.538.523C789.447,87.048,788.714,87.046,787.982,87.046Zm2.209-1.1h-4.42v.572h4.42Z" transform="translate(-779.101 -76.683)" fill="#db2f27"/>
  </g>
</svg>
