<svg xmlns="http://www.w3.org/2000/svg" width="17.233" height="17.736" viewBox="0 0 17.233 17.736">
  <g id="hm" transform="translate(-1487.574 -135.584)">
    <path id="Path_16211" data-name="Path 16211" d="M532.446,327.975c.461-.024.895-.049,1.329-.067a.717.717,0,0,1,.836.737,37.236,37.236,0,0,1,.1,4.38.925.925,0,0,1-.289.683,3.427,3.427,0,0,1-1.728.929,1.083,1.083,0,0,1-1.384-.918c-.027-.117-.052-.234-.074-.339l-1.854.465c0,.095,0,.214,0,.332a.809.809,0,0,1-.733.808,6.846,6.846,0,0,1-1.157,0,2.3,2.3,0,0,1-.594-.239.935.935,0,0,1-.765.264c-.211-.005-.423,0-.634,0a.948.948,0,0,1-.81-.317.972.972,0,0,1-.853.317c-.223-.006-.447,0-.671,0a.85.85,0,0,1-.917-.933c0-.2-.04-.279-.253-.306-.327-.042-.647-.135-.986-.21-.024.132-.047.262-.072.39a.691.691,0,0,1-.684.6,2.162,2.162,0,0,0-.289.018,1.1,1.1,0,0,1-.976-.3,3.825,3.825,0,0,1-1.39-1.983,6.186,6.186,0,0,1-.089-1.459,11.813,11.813,0,0,1,.35-2.688c.045-.186.126-.261.322-.252.324.015.65,0,1,0-.038-.36-.094-.681-.1-1a9.656,9.656,0,0,1,.051-1.154,1.106,1.106,0,0,1,.364-.652,6.131,6.131,0,0,0,1.034-1.391,2.415,2.415,0,0,0,.295-1.5,20.76,20.76,0,0,0-.63-3.193c-.142-.5-.066-.687.386-.948a.19.19,0,0,0,.07-.124.535.535,0,0,1,.451-.5l.526-.134a.552.552,0,0,1,.62.181.224.224,0,0,0,.168.056.689.689,0,0,1,.625.291,1.481,1.481,0,0,0,.407.322,4.051,4.051,0,0,0,1.69.5,5.667,5.667,0,0,0,2.656-.3,1.886,1.886,0,0,0,.884-.6.581.581,0,0,1,.537-.2.282.282,0,0,0,.193-.079.513.513,0,0,1,.506-.171c.235.052.47.109.7.177a.473.473,0,0,1,.36.449.171.171,0,0,0,.12.17.62.62,0,0,1,.378.812,18.418,18.418,0,0,0-.62,2.992,5.217,5.217,0,0,0-.06.866,1.911,1.911,0,0,0,.169.6,4.6,4.6,0,0,0,1.065,1.6,1.726,1.726,0,0,1,.542,1.349c-.007.421-.053.842-.084,1.263C532.473,327.7,532.459,327.835,532.446,327.975Zm-4.374-4.709a.725.725,0,0,1,.635-.456c.126-.011.254,0,.38,0a.749.749,0,0,1,.829.831c0,.622,0,1.245,0,1.867,0,.683,0,1.366-.005,2.048a.679.679,0,0,1-.724.728c-.109,0-.218-.006-.326,0a.766.766,0,0,1-.729-.294,1.114,1.114,0,0,1-.872.3c-.477-.01-.955-.011-1.432,0a1.153,1.153,0,0,1-.934-.312.781.781,0,0,1-.6.309c-.616,0-1.233,0-1.849,0a.663.663,0,0,1-.626-.389.226.226,0,0,0-.235-.143c-.634-.014-1.268-.034-1.9-.05-.041,0-.082.006-.166.012.046.118.055.256.127.308a5.985,5.985,0,0,1,1.165,1.108.244.244,0,0,0,.162.084q.6.02,1.2.019a.2.2,0,0,0,.149-.089.823.823,0,0,1,.788-.451c.284,0,.568.006.852,0a.891.891,0,0,1,.731.275.938.938,0,0,1,.795-.275c.241.008.484.007.725,0a.887.887,0,0,1,.732.274.947.947,0,0,1,.8-.275c.272.008.544,0,.816,0a.813.813,0,0,1,.756.442.222.222,0,0,0,.162.1c.423,0,.846-.017,1.269-.015.15,0,.191-.052.2-.2a1.056,1.056,0,0,1,.891-.958l.224-.035.023-.324c-.078,0-.143,0-.208,0q-.616.019-1.232.04c-.129,0-.236-.025-.242-.176s.1-.2.238-.2.29-.013.435-.018l1.041-.034a.532.532,0,0,0-.261-.555,2.776,2.776,0,0,1-1.16-1.526,7.461,7.461,0,0,1-.24-3.191,18.082,18.082,0,0,1,.645-3.227c.066-.231.02-.313-.21-.39-.266.309-.38.344-.791.238l-.4-.1a.526.526,0,0,1-.474-.532c-.015-.124-.088-.139-.155-.088a.544.544,0,0,0-.19.243c-.235.741-.471,1.483-.682,2.231a2.025,2.025,0,0,1-.755,1.159,2.765,2.765,0,0,1-2.384.4,2.039,2.039,0,0,1-1.621-1.619c-.03-.135-.065-.27-.107-.4q-.288-.914-.584-1.826c-.047-.144-.14-.234-.308-.187-.052.432-.141.531-.568.641-.1.026-.2.045-.3.077-.328.108-.622.1-.809-.236-.243.09-.284.163-.225.384.081.3.168.6.24.91a12.718,12.718,0,0,1,.413,4.413,3.331,3.331,0,0,1-1.451,2.668.461.461,0,0,0-.2.522l2.2.066v-.222q0-1.414,0-2.828a.731.731,0,0,1,.747-.817.185.185,0,0,0,.136-.077.572.572,0,0,1,.631-.379c.108.005.217,0,.326,0a.546.546,0,0,1,.553.359.183.183,0,0,0,.107.095c.16.039.324.064.5.1a.846.846,0,0,1,.811-.413c.646.011,1.293,0,1.94.006A5.7,5.7,0,0,1,528.073,323.266Zm-4.743-4.706c.166.6.338,1.2.5,1.807a1.577,1.577,0,0,0,.753,1,2.454,2.454,0,0,0,1.908.232,1.679,1.679,0,0,0,1.341-1.34c.042-.2.1-.4.158-.594.107-.374.219-.747.324-1.107A6.267,6.267,0,0,1,523.33,318.56Zm-5.136,9.89c-.019.059-.032.092-.04.126a11.778,11.778,0,0,0-.246,3.241,2.022,2.022,0,0,0,.163.7,3.85,3.85,0,0,0,1.369,1.606.428.428,0,0,0,.216.071c.187,0,.375,0,.561-.016a.331.331,0,0,0,.351-.32c.036-.226.074-.453.1-.681.046-.449.081-.9.122-1.362h-.68c-.014.21-.029.414-.041.617-.007.129-.067.211-.2.206s-.182-.1-.177-.225c0-.036,0-.072.005-.109.006-.712.022-1.425.009-2.137a.747.747,0,0,0-.174-.476C519.106,329.263,518.65,328.867,518.194,328.449Zm4.4-4.549c-.325-.019-.474.094-.475.358q0,1.639,0,3.278a.326.326,0,0,0,.36.362q.9.009,1.793,0a.332.332,0,0,0,.356-.369q0-1.63,0-3.259c0-.284-.182-.419-.472-.352,0,.359,0,.721,0,1.082a.548.548,0,0,1-.577.582c-.127,0-.254,0-.38,0a.548.548,0,0,1-.6-.608C522.6,324.62,522.6,324.265,522.6,323.9Zm4.535,7c0,.471,0,.942,0,1.413a.394.394,0,0,0,.417.424q.516.009,1.032,0a.366.366,0,0,0,.4-.39q.018-1.43.013-2.861a.4.4,0,0,0-.445-.416c-.314,0-.628,0-.942,0-.333,0-.48.151-.48.49Q527.133,330.233,527.134,330.9Zm-.4.016h0c0-.471,0-.942,0-1.412a.388.388,0,0,0-.418-.434q-.507-.006-1.014,0a.391.391,0,0,0-.42.418q0,1.412,0,2.825a.387.387,0,0,0,.413.424q.516.009,1.032,0a.374.374,0,0,0,.4-.408C526.739,331.861,526.736,331.39,526.736,330.919Zm-2.249-.01h0c0-.465,0-.929,0-1.394a.4.4,0,0,0-.448-.443c-.314,0-.628,0-.942,0s-.464.138-.465.447q-.006,1.4,0,2.806a.382.382,0,0,0,.42.415c.332.005.664,0,1,0a.388.388,0,0,0,.434-.437C524.489,331.839,524.487,331.374,524.487,330.91Zm2.034-5.1c.356,0,.712,0,1.068,0a.384.384,0,0,0,.427-.408q.011-.715,0-1.43a.368.368,0,0,0-.384-.395q-1.1-.014-2.209,0a.393.393,0,0,0-.4.424q0,.679.006,1.358a.406.406,0,0,0,.461.452C525.834,325.811,526.178,325.809,526.522,325.809Zm2.87,7.661c.572-.161,1.122-.313,1.668-.475a.19.19,0,0,0,.081-.157c-.066-.8-.146-1.6-.208-2.4-.022-.28,0-.563,0-.832h-1.538Zm-4.364-7.325c0,.363-.006.755,0,1.147a.566.566,0,0,0,.582.606c.61.011,1.22.009,1.83,0a.535.535,0,0,0,.569-.479c.029-.435.008-.873.008-1.271A21.955,21.955,0,0,1,525.028,326.145Zm-3.94,3.467a15.378,15.378,0,0,1-.022,3.563l1.168.261v-3.825Zm6.049,3.449c0,.372-.01.762,0,1.152a.433.433,0,0,0,.436.4c.325.009.651.009.977,0a.415.415,0,0,0,.429-.366c.02-.4.006-.8.006-1.189A5.579,5.579,0,0,1,527.137,333.061Zm-4.5,0c0,.377-.009.769,0,1.16a.427.427,0,0,0,.424.395q.5.015,1,0a.425.425,0,0,0,.422-.376c.013-.4,0-.8,0-1.179A5.546,5.546,0,0,1,522.636,333.062Zm4.1,0a5.656,5.656,0,0,1-1.847,0c0,.377-.01.773,0,1.169a.431.431,0,0,0,.435.385q.489.012.978,0a.423.423,0,0,0,.427-.37C526.745,333.85,526.735,333.453,526.735,333.064Zm1.7-7.347a.8.8,0,0,0-.017.112c-.005.585-.011,1.17-.012,1.755a.291.291,0,0,0,.3.314c.157.009.314.005.471,0,.249,0,.35-.106.351-.356q0-.842,0-1.685c0-.046-.009-.092-.014-.142Zm-7.645,5.7c0-.387,0-.76,0-1.134a1.614,1.614,0,0,0-.465-1.145c-.21-.217-.442-.412-.655-.625a1.22,1.22,0,0,0-1.091-.228c.365.329.7.644,1.046.941a1.286,1.286,0,0,1,.479,1.065c-.009.372,0,.745,0,1.126Zm8.737-6.1c0-.611,0-1.207,0-1.8a.319.319,0,0,0-.327-.319c-.126-.007-.253,0-.38,0-.294,0-.416.123-.414.421,0,.524.01,1.048.016,1.572a1.247,1.247,0,0,0,.016.132Zm1.831,6.036c.109,0,.194,0,.278,0,.481-.02.481-.021.47-.494,0-.018,0-.036,0-.054a17.026,17.026,0,0,1,.1-2.4l-.219.015a.694.694,0,0,0-.676.693c-.01.513,0,1.027.005,1.54C531.319,330.881,531.343,331.109,531.359,331.355Zm1.267,2.892a8.421,8.421,0,0,1-.5-2.563l-.723.074a2.231,2.231,0,0,0,.013.24c.09.553.169,1.109.279,1.658A.672.672,0,0,0,532.626,334.248Zm.041-1.275c.04.232.079.475.126.717a.41.41,0,0,0,.662.277c.146-.1.284-.2.426-.307a1.02,1.02,0,0,0,.443-1.187Zm-.15-1.339a7.4,7.4,0,0,0,1.759-.589.133.133,0,0,0,.066-.092c.006-.213,0-.426,0-.618l-1.828.375Zm-.007-2.278a6.03,6.03,0,0,0,1.65-.371.19.19,0,0,0,.081-.132.819.819,0,0,0-.007-.216.353.353,0,0,0-.4-.353c-.306.013-.613.033-.918.062a.381.381,0,0,0-.371.372C532.525,328.92,532.522,329.125,532.509,329.355Zm-8.736-5.034c0-.229,0-.459,0-.688a.172.172,0,0,0-.2-.2c-.139,0-.278,0-.416,0a.164.164,0,0,0-.182.18q0,.7,0,1.394c0,.134.074.194.209.189s.254,0,.38,0c.147.005.209-.064.208-.207C523.771,324.768,523.773,324.544,523.773,324.321Zm7.052-.316a2.957,2.957,0,0,0,1.371,2.508,3.348,3.348,0,0,0-.042-.517,1.247,1.247,0,0,0-.2-.528A9.163,9.163,0,0,1,530.826,324.005Zm-10.032.019c-.026.039-.049.08-.078.117-.3.4-.584.815-.924,1.177a1.613,1.613,0,0,0-.348,1.191A2.924,2.924,0,0,0,520.793,324.024Zm11.769,8.028.051.5a7.616,7.616,0,0,0,1.662-.513.131.131,0,0,0,.071-.088c.007-.164,0-.329,0-.479Zm-.063-1.733c.464-.094.914-.151,1.342-.279.6-.178.464-.022.43-.649,0-.006,0-.011,0,.007l-1.775.383Zm-11.474-12.381.048.178c.059.223.085.24.3.187.176-.044.35-.094.526-.136.139-.033.155-.128.111-.235s-.027-.312-.241-.27a5.907,5.907,0,0,0-.613.159C521.1,317.839,521.061,317.905,521.025,317.938Zm9.583-.006a.627.627,0,0,0-.159-.12c-.135-.047-.278-.073-.417-.109-.313-.08-.341-.062-.42.247-.029.114,0,.187.118.217.2.051.4.112.611.151a.2.2,0,0,0,.172-.077A1.4,1.4,0,0,0,530.609,317.932Z" transform="translate(970.069 -181.688)" fill="#fff"/>
    <path id="Path_16212" data-name="Path 16212" d="M555.906,349.547a.5.5,0,0,1-.343.546c-.312.091-.627.172-.944.24a.494.494,0,0,1-.571-.4c-.021-.112-.032-.227-.046-.34a.5.5,0,0,1,.4-.611q.383-.1.77-.194a.486.486,0,0,1,.6.312C555.829,349.263,555.873,349.438,555.906,349.547Zm-1.538-.094a2.014,2.014,0,0,0,.057.384.205.205,0,0,0,.167.107c.277-.056.552-.127.823-.208a.191.191,0,0,0,.1-.155,1.023,1.023,0,0,0-.11-.342.2.2,0,0,0-.173-.077c-.247.051-.493.116-.735.188C554.441,349.367,554.4,349.428,554.368,349.452Z" transform="translate(937.647 -209.671)" fill="#fff"/>
    <path id="Path_16215" data-name="Path 16215" d="M551.406,333.277c.377,0,.559.2.635.649a.485.485,0,0,1-.359.569c-.232.066-.469.112-.7.164a.416.416,0,0,1-.126,0c-.291-.027-.463-.262-.51-.693a.5.5,0,0,1,.386-.538C550.971,333.368,551.22,333.319,551.406,333.277Zm-.46,1c.2-.046.409-.087.617-.145.159-.045.1-.165.068-.267s-.044-.239-.213-.2c-.187.043-.374.088-.562.127-.113.024-.159.093-.124.2S550.729,334.273,550.946,334.276Z" transform="translate(940.897 -195.908)" fill="#fff"/>
    <path id="Path_16216" data-name="Path 16216" d="M536.142,458.725c.059-.036.133-.114.214-.123.125-.014.2.079.192.206a.183.183,0,0,1-.2.184C536.215,458.989,536.157,458.9,536.142,458.725Z" transform="translate(953.51 -307.259)" fill="#fff"/>
  </g>
</svg>
