<svg id="hm" xmlns="http://www.w3.org/2000/svg" width="118.713" height="122.182" viewBox="0 0 118.713 122.182">
  <path id="Path_16211" data-name="Path 16211" d="M620.433,391c3.177-.162,6.163-.336,9.152-.461,3.51-.148,5.494,1.581,5.759,5.075a256.58,256.58,0,0,1,.693,30.173,6.373,6.373,0,0,1-1.992,4.707c-3.459,3.041-7.157,5.661-11.9,6.4-5.173.809-8.35-1.234-9.533-6.323-.187-.8-.355-1.614-.511-2.332l-12.77,3.206c0,.654.02,1.471,0,2.286a5.571,5.571,0,0,1-5.052,5.569,47.156,47.156,0,0,1-7.971-.028c-1.351-.129-2.627-1.029-4.091-1.646-1.221,1.421-3.143,1.874-5.27,1.821-1.456-.036-2.914-.034-4.37,0a6.532,6.532,0,0,1-5.583-2.182c-1.564,1.906-3.64,2.243-5.874,2.184-1.539-.041-3.081.009-4.621-.012-3.98-.054-6.4-2.447-6.319-6.425.027-1.362-.276-1.92-1.74-2.111-2.251-.292-4.458-.929-6.791-1.443-.167.911-.325,1.8-.495,2.69a4.76,4.76,0,0,1-4.713,4.162,14.892,14.892,0,0,0-1.991.127,7.606,7.606,0,0,1-6.726-2.037c-4.376-3.746-8.235-7.949-9.576-13.657a42.623,42.623,0,0,1-.616-10.05,81.39,81.39,0,0,1,2.409-18.519c.311-1.28.865-1.8,2.221-1.736,2.234.105,4.477.028,6.887.028-.263-2.478-.65-4.691-.693-6.911a66.55,66.55,0,0,1,.351-7.95,7.619,7.619,0,0,1,2.505-4.494,42.242,42.242,0,0,0,7.122-9.585,16.632,16.632,0,0,0,2.03-10.311,143.042,143.042,0,0,0-4.343-22c-.981-3.45-.457-4.733,2.657-6.53a1.307,1.307,0,0,0,.482-.853,3.689,3.689,0,0,1,3.106-3.432q1.812-.46,3.623-.925a3.8,3.8,0,0,1,4.269,1.244,1.543,1.543,0,0,0,1.161.384,4.744,4.744,0,0,1,4.3,2,10.2,10.2,0,0,0,2.806,2.216,27.909,27.909,0,0,0,11.639,3.414c6.233.556,12.4.279,18.3-2.084a12.992,12.992,0,0,0,6.089-4.16,4,4,0,0,1,3.7-1.4,1.941,1.941,0,0,0,1.332-.546,3.538,3.538,0,0,1,3.487-1.18c1.621.362,3.238.753,4.832,1.22a3.258,3.258,0,0,1,2.478,3.1,1.177,1.177,0,0,0,.828,1.174,4.27,4.27,0,0,1,2.6,5.591,126.885,126.885,0,0,0-4.274,20.611,35.976,35.976,0,0,0-.411,5.967,13.165,13.165,0,0,0,1.166,4.155,31.678,31.678,0,0,0,7.338,11.051,11.893,11.893,0,0,1,3.732,9.3c-.047,2.9-.368,5.8-.577,8.7C620.618,389.129,620.521,390.031,620.433,391Zm-30.128-32.439a5,5,0,0,1,4.378-3.144c.867-.077,1.747-.029,2.621-.027,3.687.008,5.7,2.025,5.713,5.724.015,4.287.033,8.574.033,12.861,0,4.7,0,9.407-.038,14.11a4.677,4.677,0,0,1-4.986,5.014c-.749.01-1.5-.038-2.247.01a5.273,5.273,0,0,1-5.021-2.028,7.676,7.676,0,0,1-6.008,2.038c-3.287-.068-6.578-.076-9.864,0-2.412.057-4.643-.276-6.434-2.15A5.377,5.377,0,0,1,564.3,393.1c-4.246-.01-8.491.013-12.737-.013a4.565,4.565,0,0,1-4.315-2.682,1.554,1.554,0,0,0-1.621-.985c-4.369-.1-8.737-.232-13.105-.347-.281-.008-.562.039-1.145.085.317.815.38,1.762.872,2.124a41.235,41.235,0,0,1,8.023,7.63,1.681,1.681,0,0,0,1.118.576q4.119.138,8.24.131a1.4,1.4,0,0,0,1.028-.61,5.667,5.667,0,0,1,5.426-3.108c1.956.018,3.914.041,5.868-.007a6.137,6.137,0,0,1,5.038,1.895c1.489-1.664,3.406-1.966,5.474-1.9,1.664.057,3.331.048,4.994,0a6.113,6.113,0,0,1,5.042,1.889c1.5-1.657,3.416-1.957,5.488-1.892,1.871.058,3.745.008,5.619.014a5.6,5.6,0,0,1,5.21,3.047,1.531,1.531,0,0,0,1.119.662c2.913,0,5.827-.114,8.739-.1,1.03,0,1.313-.361,1.38-1.356a7.276,7.276,0,0,1,6.141-6.6c.489-.077.977-.151,1.546-.24l.161-2.23c-.541,0-.988-.012-1.435,0q-4.243.131-8.485.274c-.888.031-1.623-.17-1.67-1.214-.05-1.118.695-1.373,1.643-1.387,1-.015,2-.087,2.994-.121,2.361-.081,4.722-.155,7.174-.234a3.664,3.664,0,0,0-1.8-3.824,19.12,19.12,0,0,1-7.994-10.51c-2.46-7.176-2.372-14.567-1.654-21.979a124.54,124.54,0,0,1,4.443-22.227c.455-1.591.138-2.154-1.444-2.686-1.832,2.131-2.62,2.367-5.451,1.637q-1.389-.358-2.778-.71c-2.168-.544-3-1.421-3.266-3.666-.1-.853-.6-.956-1.068-.606a3.741,3.741,0,0,0-1.306,1.677c-1.622,5.1-3.243,10.213-4.7,15.367a13.953,13.953,0,0,1-5.2,7.982c-5.01,3.582-10.6,4.206-16.426,2.743-5.878-1.477-9.815-5.057-11.165-11.153-.206-.932-.446-1.861-.733-2.771q-1.986-6.3-4.02-12.579c-.323-.993-.965-1.613-2.124-1.289-.357,2.975-.968,3.656-3.913,4.416-.684.177-1.383.309-2.052.529-2.259.744-4.285.709-5.576-1.624-1.676.617-1.953,1.123-1.549,2.644.555,2.088,1.157,4.165,1.653,6.267,2.362,10,4.043,20.082,2.845,30.4-.862,7.424-3.2,14.12-10,18.379a3.172,3.172,0,0,0-1.39,3.594l15.18.455v-1.532q0-9.741,0-19.481c0-3.474,1.71-5.312,5.149-5.63a1.272,1.272,0,0,0,.939-.532c.783-2.021,2.306-2.71,4.344-2.614.747.035,1.5.011,2.247.005a3.761,3.761,0,0,1,3.806,2.476,1.257,1.257,0,0,0,.737.654c1.1.266,2.231.442,3.419.665a5.825,5.825,0,0,1,5.586-2.843c4.453.075,8.908-.014,13.361.043A39.27,39.27,0,0,1,590.305,358.558Zm-32.672-32.419c1.145,4.14,2.329,8.283,3.431,12.448a10.863,10.863,0,0,0,5.185,6.872,16.9,16.9,0,0,0,13.143,1.6c4.835-1.233,8.159-4.137,9.239-9.229.292-1.379.7-2.736,1.085-4.094.739-2.576,1.505-5.144,2.233-7.625A43.174,43.174,0,0,1,557.633,326.139Zm-35.381,68.126c-.129.406-.223.633-.274.87a81.115,81.115,0,0,0-1.7,22.324,13.926,13.926,0,0,0,1.12,4.808,26.52,26.52,0,0,0,9.431,11.064,2.948,2.948,0,0,0,1.488.491c1.287.033,2.58-.027,3.867-.111a2.278,2.278,0,0,0,2.419-2.2c.248-1.559.51-3.12.67-4.69.313-3.091.561-6.19.843-9.381h-4.686c-.1,1.448-.2,2.85-.28,4.252-.051.886-.458,1.455-1.377,1.417-.94-.04-1.253-.687-1.217-1.553.011-.25.034-.5.037-.748.042-4.908.154-9.817.065-14.722a5.151,5.151,0,0,0-1.2-3.282C528.534,399.868,525.395,397.143,522.252,394.265Zm30.342-31.338c-2.238-.134-3.264.649-3.269,2.468q-.034,11.29,0,22.579a2.245,2.245,0,0,0,2.482,2.5q6.173.059,12.349,0a2.287,2.287,0,0,0,2.449-2.539q.014-11.227-.008-22.453c-.005-1.957-1.257-2.883-3.252-2.422,0,2.474.016,4.965,0,7.455a3.773,3.773,0,0,1-3.973,4.011c-.873.021-1.747.011-2.62,0-2.686-.028-4.143-1.494-4.153-4.19C552.588,367.887,552.595,365.441,552.595,362.928Zm31.242,48.24c0,3.243-.02,6.488.008,9.731a2.717,2.717,0,0,0,2.874,2.919q3.556.062,7.111,0a2.518,2.518,0,0,0,2.778-2.687q.126-9.851.09-19.705c-.008-1.857-1.178-2.851-3.064-2.866-2.162-.018-4.325-.011-6.488,0-2.294.008-3.3,1.04-3.309,3.379Q583.829,406.551,583.837,411.167Zm-2.737.112h.017c0-3.243.008-6.486,0-9.729a2.671,2.671,0,0,0-2.881-2.989q-3.492-.04-6.984,0a2.692,2.692,0,0,0-2.894,2.879q-.02,9.729,0,19.457a2.665,2.665,0,0,0,2.846,2.918q3.554.063,7.109,0a2.579,2.579,0,0,0,2.784-2.81C581.115,417.765,581.1,414.522,581.1,411.279Zm-15.492-.067h.008c0-3.2.007-6.4,0-9.6-.005-2.025-1.027-3.037-3.085-3.051q-3.243-.022-6.486,0c-2.15.01-3.195.954-3.2,3.077q-.038,9.665.024,19.332a2.628,2.628,0,0,0,2.892,2.856c2.286.036,4.573.032,6.859,0a2.675,2.675,0,0,0,2.99-3.008C565.619,417.616,565.608,414.414,565.608,411.213Zm14.015-35.138c2.453,0,4.907.023,7.36-.008a2.643,2.643,0,0,0,2.945-2.811q.075-4.926,0-9.854a2.537,2.537,0,0,0-2.646-2.718q-7.607-.1-15.217,0a2.71,2.71,0,0,0-2.766,2.92q-.023,4.676.042,9.352c.03,2.1,1.071,3.1,3.176,3.115C574.883,376.089,577.253,376.075,579.623,376.075Zm19.767,52.774c3.942-1.109,7.729-2.155,11.492-3.276a1.307,1.307,0,0,0,.558-1.08c-.454-5.5-1.005-11-1.433-16.5-.15-1.927-.024-3.875-.024-5.728H599.39Zm-30.062-50.46c0,2.5-.039,5.2.01,7.9a3.9,3.9,0,0,0,4.008,4.174c4.2.075,8.405.061,12.607,0a3.683,3.683,0,0,0,3.921-3.3c.2-3,.053-6.015.053-8.757A151.257,151.257,0,0,1,569.328,378.389Zm-27.142,23.886c1.392,8.14.357,16.276-.154,24.548l8.043,1.8V402.275Zm41.672,23.756c0,2.561-.072,5.252.027,7.936a2.986,2.986,0,0,0,3,2.787c2.241.065,4.487.059,6.73,0a2.857,2.857,0,0,0,2.954-2.522c.14-2.757.04-5.527.04-8.189A38.435,38.435,0,0,1,583.858,426.031Zm-31.007.007c0,2.6-.065,5.3.026,7.993a2.94,2.94,0,0,0,2.924,2.72q3.427.1,6.858,0a2.927,2.927,0,0,0,2.909-2.592c.091-2.736.027-5.477.027-8.122A38.2,38.2,0,0,1,552.852,426.038Zm28.24.012a38.963,38.963,0,0,1-12.725,0c0,2.594-.071,5.327.029,8.054a2.967,2.967,0,0,0,3,2.652q3.366.086,6.735,0a2.913,2.913,0,0,0,2.939-2.551C581.156,431.471,581.092,428.73,581.092,426.05ZM592.8,375.442a5.545,5.545,0,0,0-.117.769c-.034,4.03-.073,8.06-.082,12.091a2,2,0,0,0,2.079,2.166c1.078.059,2.163.036,3.243.015,1.715-.033,2.41-.733,2.416-2.455q.019-5.8,0-11.606c0-.316-.06-.632-.1-.979Zm-52.661,39.265c0-2.667.019-5.238-.005-7.809a11.121,11.121,0,0,0-3.206-7.888c-1.445-1.491-3.042-2.835-4.514-4.3-2.121-2.114-4.689-1.836-7.518-1.569,2.511,2.269,4.807,4.433,7.2,6.479a8.859,8.859,0,0,1,3.3,7.335c-.061,2.564-.012,5.133-.012,7.755Zm60.19-42.006c0-4.211.028-8.318-.016-12.424a2.195,2.195,0,0,0-2.25-2.2c-.869-.049-1.744-.028-2.615-.019-2.028.022-2.865.85-2.855,2.9.018,3.611.067,7.222.112,10.832a8.549,8.549,0,0,0,.11.908Zm12.613,41.582c.754,0,1.334.021,1.912,0,3.315-.14,3.315-.144,3.237-3.4,0-.125-.006-.25-.007-.375a117.29,117.29,0,0,1,.689-16.542c-.527.036-1.019.066-1.512.1a4.784,4.784,0,0,0-4.657,4.774c-.068,3.535-.021,7.072.035,10.608C612.667,411.015,612.834,412.584,612.945,414.283Zm8.725,19.924c-2.849-5.524-2.414-11.716-3.438-17.658l-4.983.509a15.387,15.387,0,0,0,.092,1.655c.621,3.811,1.167,7.638,1.925,11.422C616,433.791,618.129,435.015,621.67,434.207Zm.28-8.785c.279,1.6.544,3.272.869,4.936a2.822,2.822,0,0,0,4.56,1.908c1-.668,1.959-1.408,2.938-2.112,2.969-2.134,3.88-4.63,3.051-8.18Zm-1.036-9.227a50.969,50.969,0,0,0,12.117-4.057.915.915,0,0,0,.457-.637c.041-1.468.021-2.938.021-4.256l-12.595,2.586Zm-.048-15.69a41.538,41.538,0,0,0,11.367-2.555,1.308,1.308,0,0,0,.555-.912,5.638,5.638,0,0,0-.049-1.488,2.43,2.43,0,0,0-2.728-2.432c-2.111.09-4.223.227-6.326.426a2.626,2.626,0,0,0-2.559,2.565C620.975,397.506,620.955,398.916,620.867,400.506Zm-60.18-34.68c0-1.58-.012-3.161,0-4.74a1.187,1.187,0,0,0-1.361-1.373c-.956.007-1.913,0-2.869.007a1.13,1.13,0,0,0-1.252,1.238q-.022,4.8,0,9.6c0,.926.509,1.338,1.437,1.3.872-.032,1.747-.032,2.619,0,1.012.037,1.441-.439,1.43-1.424C560.674,368.9,560.686,367.364,560.686,365.825Zm48.582-2.174c.758,6.963,2.627,13.336,9.444,17.278a23.04,23.04,0,0,0-.291-3.563,8.594,8.594,0,0,0-1.406-3.635A63.09,63.09,0,0,1,609.269,363.652Zm-69.108.13c-.179.268-.341.549-.538.8-2.1,2.722-4.021,5.613-6.362,8.108-2.244,2.391-2.329,5.125-2.4,8.2C537.553,377.005,539.439,370.714,540.161,363.782Zm81.076,55.3c.1,1.039.223,2.219.349,3.478a52.466,52.466,0,0,0,11.447-3.533.9.9,0,0,0,.489-.608c.049-1.13.023-2.263.023-3.3Zm-.436-11.941c3.2-.646,6.294-1.041,9.246-1.923,4.11-1.227,3.2-.151,2.959-4.468,0-.038-.033-.075.024.049L620.8,403.441Zm-79.042-85.289c.158.589.245.909.331,1.229.409,1.535.585,1.652,2.059,1.285,1.209-.3,2.408-.644,3.62-.935.956-.23,1.067-.879.766-1.62-.323-.8-.186-2.148-1.658-1.857a40.637,40.637,0,0,0-4.22,1.1C542.278,321.172,542,321.628,541.759,321.857Zm66.016-.041a4.323,4.323,0,0,0-1.1-.826c-.933-.322-1.915-.505-2.875-.751-2.154-.552-2.351-.426-2.893,1.7-.2.786-.008,1.286.816,1.494,1.4.352,2.789.774,4.207,1.043a1.41,1.41,0,0,0,1.186-.528A9.646,9.646,0,0,0,607.775,321.816Z" transform="translate(-517.505 -317.273)" fill="#fff"/>
  <path id="Path_16212" data-name="Path 16212" d="M567.161,354.138c.01,2.013-.842,3.319-2.36,3.763-2.146.626-4.318,1.184-6.5,1.655a3.4,3.4,0,0,1-3.935-2.789c-.145-.774-.224-1.562-.32-2.344a3.471,3.471,0,0,1,2.743-4.212q2.639-.716,5.305-1.333a3.347,3.347,0,0,1,4.1,2.147C566.627,352.18,566.93,353.386,567.161,354.138Zm-10.6-.651a13.855,13.855,0,0,0,.392,2.645,1.413,1.413,0,0,0,1.147.737c1.91-.385,3.8-.874,5.67-1.434a1.318,1.318,0,0,0,.7-1.065,7.056,7.056,0,0,0-.756-2.355,1.394,1.394,0,0,0-1.194-.529c-1.7.352-3.393.8-5.064,1.295C557.069,352.9,556.769,353.319,556.564,353.487Z" transform="translate(-525.969 -324.579)" fill="#fff"/>
  <path id="Path_16213" data-name="Path 16213" d="M612.966,353.9a23.846,23.846,0,0,1,1.366-3.614,2.969,2.969,0,0,1,3.418-1.474c1.982.438,3.955.934,5.9,1.509a3.4,3.4,0,0,1,2.473,3.938c-.124.862-.225,1.73-.405,2.581a3.377,3.377,0,0,1-4.112,2.66c-2.02-.46-4.032-.962-6.027-1.521C613.841,357.494,612.907,356.19,612.966,353.9Zm10.578-.291c-.223-.2-.562-.712-1.025-.876-1.05-.375-2.161-.576-3.246-.851-2.846-.721-2.822-.715-3.577,2.113-.237.887.02,1.347.879,1.554,1.21.29,2.425.567,3.622.9C623.51,357.379,622.994,357.116,623.544,353.612Z" transform="translate(-539.648 -324.569)" fill="#fff"/>
  <path id="Path_16214" data-name="Path 16214" d="M622.95,333.273l5.24,1.287a.539.539,0,0,1,.115.049c1.871.955,2.333,2.975,1.333,5.82a3.475,3.475,0,0,1-4.049,2.329q-2.2-.437-4.376-.984a3.476,3.476,0,0,1-2.691-4.359,12.316,12.316,0,0,1,.622-2.021C619.7,334.029,620.9,333.26,622.95,333.273Zm4.56,4.229c-.163-.132-.459-.543-.842-.65-1.272-.359-2.571-.627-3.868-.9-1.522-.316-1.3,1-1.635,1.792-.372.889.055,1.333.882,1.523.968.222,1.942.415,2.909.637C626.893,340.351,627.534,339.84,627.511,337.5Z" transform="translate(-540.913 -320.984)" fill="#fff"/>
  <path id="Path_16215" data-name="Path 16215" d="M557.7,333.278c2.6-.034,3.848,1.392,4.372,4.473a3.339,3.339,0,0,1-2.475,3.916c-1.6.454-3.229.77-4.852,1.127a2.862,2.862,0,0,1-.87.02c-2.007-.188-3.19-1.8-3.513-4.773a3.408,3.408,0,0,1,2.658-3.7C554.7,333.9,556.414,333.565,557.7,333.278Zm-3.169,6.883c1.356-.314,2.82-.6,4.252-1,1.1-.308.667-1.137.469-1.84-.211-.75-.3-1.645-1.469-1.379-1.291.293-2.578.6-3.873.875-.778.162-1.1.641-.852,1.344C553.321,338.924,553.031,340.138,554.527,340.161Z" transform="translate(-525.121 -320.985)" fill="#fff"/>
  <path id="Path_16216" data-name="Path 16216" d="M536.142,459.46c.406-.248.913-.788,1.474-.85.861-.1,1.374.543,1.32,1.421a1.259,1.259,0,0,1-1.4,1.27C536.646,461.274,536.246,460.693,536.142,459.46Z" transform="translate(-521.828 -350.057)" fill="#fff"/>
  <path id="Path_16217" data-name="Path 16217" d="M597.8,389.436c-.359-.5-.926-.959-1.026-1.505a1.038,1.038,0,0,1,1.265-1.257,1.84,1.84,0,0,1,1.25,1.174c.045.492-.563,1.044-.887,1.57Z" transform="translate(-535.887 -333.366)" fill="#fff"/>
</svg>
