<svg xmlns="http://www.w3.org/2000/svg" width="1276" height="573.073" viewBox="0 0 1276 573.073">
  <g id="illustration" transform="translate(-322 -253.464)">
    <g id="Group_3426" data-name="Group 3426" transform="translate(322 253.464)">
      <g id="Group_3384" data-name="Group 3384" transform="translate(0 0)">
        <g id="Group_3370" data-name="Group 3370" transform="translate(336.57)">
          <g id="Group_3367" data-name="Group 3367" transform="translate(0)">
            <path id="Path_8103" data-name="Path 8103" d="M312.859,191.316c5.072,2.947,11.4,6.57,17.039,7.342,5.813.8,12.35-.49,18.326-.279,6.754.217,14.445,1.3,18.2,6.922,4.741,7.081,5.042,19.826,3.345,27.922a9.521,9.521,0,0,1-2.435,5.2c-1.614,1.5-3.96,1.856-6.156,2.1-13.4,1.538-25.6-1-38.78-.251-3.847.227-7.826.806-11.446-.5-6.7-2.383-9.67-10.108-11.143-17.054-1.9-8.855-3.544-19.229-2.273-28.286,1.271-9.25,6.769-8.092,14.093-3.853C312.032,190.82,312.433,191.068,312.859,191.316Z" transform="translate(-281.715 -42.268)" fill="#705449"/>
            <g id="Group_3366" data-name="Group 3366">
              <g id="Group_3365" data-name="Group 3365" transform="translate(15.271)">
                <path id="Path_8104" data-name="Path 8104" d="M302.432,174.668l-3.85,13.612-9.875-2.135,1.89-13.3S298.919,165.284,302.432,174.668Z" transform="translate(-203.051 -78.232)" fill="#ff8f67"/>
                <path id="Path_8105" data-name="Path 8105" d="M298.746,173.944c-.205-2.135-1.945-3.838-3.856-4.818a2.472,2.472,0,0,0-2.453-.211,2.04,2.04,0,0,0-.6,2.193,22.678,22.678,0,0,0,.937,2.227,5.351,5.351,0,0,1,.214,3.035,5.452,5.452,0,0,0-.328,2.031,2.233,2.233,0,0,0,2.478,1.654,3.809,3.809,0,0,0,2.616-1.81,6.15,6.15,0,0,0,.668-5.4Z" transform="translate(-208.704 -80.92)" fill="#ff8f67"/>
                <path id="Path_8106" data-name="Path 8106" d="M308.525,182.059A91.64,91.64,0,0,0,314.9,207.64c2.426-4.708,4.827-9.412,7.256-14.123a3.275,3.275,0,0,1,1.317-1.587,3.984,3.984,0,0,1,2.564-.021q4.755,1,9.529,2.025c-1.195,5.519-1.008,11.192-2.15,16.72s-3.9,11.195-9.281,14.108c-6.781,3.663-15.927,1.746-21.787-2.885s-9.048-11.4-11.3-18.129a31.786,31.786,0,0,1-2.11-11.333,35.22,35.22,0,0,1,2.208-9.758c1.283-3.813,2.668-7.572,4.187-11.327a13.066,13.066,0,0,1,2.913-4.9C306.706,158.5,308.164,178.42,308.525,182.059Z" transform="translate(-236.842 -89.35)" fill="#cfad7a"/>
                <g id="Group_3362" data-name="Group 3362" transform="translate(0)">
                  <g id="Group_3357" data-name="Group 3357" transform="translate(0.16 63.98)">
                    <path id="Path_8107" data-name="Path 8107" d="M298.859,246.947c1.121-3.578,6.423-7.262,7.124-11.29,1.164-6.628.361-13.783-.7-20.362-2.172-13.4-12.494-42.33,5.994-50.134a56.761,56.761,0,0,1,47.864,2.205c2.763,1.482,5.5,3.323,6.846,6.019a14.24,14.24,0,0,1,1.225,5.222c1.109,13.021-2.567,25.8-4.444,38.559a73.978,73.978,0,0,0-.784,18.806,39.685,39.685,0,0,0,1.164,5.9c1.244,4.61,7.078,14.3,1.149,17.7-5.437,3.106-12.494-.478-18.047-1.366-7.045-1.115-14.757,2.279-21.342.254-4.135-1.253-8.588-3.262-12.91-3.565-3.2-.233-6.533-.389-9.357-1.914C298.926,250.99,298.219,248.993,298.859,246.947Z" transform="translate(-298.649 -160.906)" fill="#cfad7a"/>
                    <path id="Path_8108" data-name="Path 8108" d="M304.825,193.667c.772.184,1.541.374,2.306.551Z" transform="translate(-257.278 -93.322)" fill="#cfad7a"/>
                  </g>
                  <path id="Path_8109" data-name="Path 8109" d="M298.316,242.116c-.337,2.4,1.149,6.653,3.173,8.083a10.888,10.888,0,0,0,4.527,1.55,40.977,40.977,0,0,0,17.382-1.011,34.546,34.546,0,0,0,8.138-3.222c1.39-.836,3.106-3.02,4.64-3.409,3.771-.965,8.775,3.948,12.408,5.363a40.575,40.575,0,0,0,14.822,2.815,5.312,5.312,0,0,0,2.637-.5,4.506,4.506,0,0,0,1.813-2.588c1.409-4.355-.472-8-1.3-12.184a75.624,75.624,0,0,1-1.127-11.431c-.123-2.757-.083-5.535.067-8.316a113.015,113.015,0,0,1,2.08-15.844c.8-4.1,1.164-6.233-2.368-9.152a10.986,10.986,0,0,1-4.257-7.1,122.85,122.85,0,0,1-2.726-17.223,4.538,4.538,0,0,0-.625-2.392,4.7,4.7,0,0,0-1.813-1.293c-1.773-.885-3.758-1.777-5.654-1.222-.055,3.458,1.127,6.769.873,10.273-.282,3.868-1.985,7.847-5.262,9.906-5.238,3.259-12.246.579-16.886-3.476a17.887,17.887,0,0,1-5.045-6.6c-1.1-2.888-1.663-9.284-4.114-11.3-1.721-1.412-6.276-.53-6.937,1.9-.432,1.568,1.672,3.921,1.957,5.47,1.5,7.814.671,15.921-6.27,20.886a36.321,36.321,0,0,1-5.035,3.366c-1.516.711-3.47.536-4.42,2.3a7.734,7.734,0,0,0-.576,4.061,45.93,45.93,0,0,0,2.012,10.785c1.035,3.421,1.1,6.882,1.185,10.546.132,5.428.227,11.483-1.789,16.613A20.219,20.219,0,0,0,298.316,242.116Z" transform="translate(-298.268 -96.392)" fill="#493b2b"/>
                  <g id="Group_3361" data-name="Group 3361" transform="translate(8.507)">
                    <path id="Path_8110" data-name="Path 8110" d="M347.128,148.649c2.509,4.2-5.679,13.707-18.279,21.244S304,180.16,301.493,175.964s5.682-13.7,18.273-21.244S344.613,144.462,347.128,148.649Z" transform="translate(-294.487 -126.269)" fill="#442e26"/>
                    <g id="Group_3358" data-name="Group 3358" transform="translate(13.493 11.945)">
                      <path id="Path_8111" data-name="Path 8111" d="M338.089,178.029c.533-3.786-.067-6.91-.943-10.7-.842-3.728-.658-7.688-1.535-11.455-.806-3.519-2.717-8.448-5.725-10.708-3.29-2.481-8.429-.649-12,.165-4.732,1.087-9.477,3.155-12.475,7.115a16.058,16.058,0,0,0-2.9,12.733c1.988,8.7,7.078,19.569,16.246,22.993,4.588,1.7,10.215,1.36,14.87.04a4.966,4.966,0,0,0,2.046-.965,5.517,5.517,0,0,0,1.357-3.268c.315-1.724.628-3.443.928-5.176C338.009,178.553,338.049,178.289,338.089,178.029Z" transform="translate(-302.182 -143.917)" fill="#ff8f67"/>
                      <path id="Path_8112" data-name="Path 8112" d="M308.033,154.1c-1.672,1.991-.659,5.685-.334,7.97.588,4.12-.233,8.172-.977,12.215-.365,2-1.525,3.853-.478,5.9.652,1.24,3.148,2.423,4.38,2.974a16.273,16.273,0,0,0,9.7,1c3.051-.573,5.538-.907,5.783-4.159a78.32,78.32,0,0,0-1.761-21.728,5.4,5.4,0,0,0-.864-2.27,5.208,5.208,0,0,0-3.042-1.525,56.307,56.307,0,0,0-7.832-.953c-1.485-.11-3.216-.8-4.4.38A.933.933,0,0,0,308.033,154.1Z" transform="translate(-301.301 -124.733)" fill="#ff8f67"/>
                    </g>
                    <g id="Group_3359" data-name="Group 3359" transform="translate(42.34 27.99)">
                      <path id="Path_8113" data-name="Path 8113" d="M304.212,153a1.243,1.243,0,0,0,.441-.263,5.065,5.065,0,0,1,2.714-1.17,1.206,1.206,0,1,0-.132-2.407,7.44,7.44,0,0,0-4.211,1.795,1.209,1.209,0,0,0-.077,1.706A1.245,1.245,0,0,0,304.212,153Z" transform="translate(-302.631 -149.155)" fill="#aa5f5f"/>
                      <path id="Path_8114" data-name="Path 8114" d="M303.27,152.523c.162.98.677,1.731,1.145,1.642.453-.058.711-.937.548-1.917s-.68-1.721-1.146-1.645S303.11,151.537,303.27,152.523Z" transform="translate(-300.936 -146.181)" fill="#aa5f5f"/>
                    </g>
                    <g id="Group_3360" data-name="Group 3360" transform="translate(29.02 30.966)">
                      <path id="Path_8115" data-name="Path 8115" d="M312.034,152.743a1.175,1.175,0,0,1-.515-.034,4.98,4.98,0,0,0-2.968.135,1.208,1.208,0,0,1-.928-2.23,7.444,7.444,0,0,1,4.573-.221,1.186,1.186,0,0,1,.809,1.5A1.207,1.207,0,0,1,312.034,152.743Z" transform="translate(-306.886 -150.127)" fill="#aa5f5f"/>
                      <path id="Path_8116" data-name="Path 8116" d="M308.67,152.907c.282.95.144,1.844-.306,1.973s-1.048-.536-1.329-1.5c-.276-.937-.144-1.832.306-1.973S308.389,151.954,308.67,152.907Z" transform="translate(-302.659 -147.516)" fill="#aa5f5f"/>
                    </g>
                    <path id="Path_8117" data-name="Path 8117" d="M316.56,162.186c.5.034.818.034.873.034a.406.406,0,0,0,.021-.812h-.037c-.04.012-6.815.009-10.12-4.313a.4.4,0,1,0-.643.487C309.5,161.323,314.535,162.045,316.56,162.186Z" transform="translate(-281.675 -105.118)" fill="#aa5f5f"/>
                    <path id="Path_8118" data-name="Path 8118" d="M303.262,157.68a.411.411,0,0,0,.319-.116,7.691,7.691,0,0,1,5.722-1.878c.129.009.26.021.392.037h.018a.4.4,0,0,0,.432-.355.41.41,0,0,0-.358-.453c-.147-.012-.3-.028-.435-.037A8.345,8.345,0,0,0,303,156.994a.405.405,0,0,0,.263.686Z" transform="translate(-262.689 -109.409)" fill="#aa5f5f"/>
                    <path id="Path_8119" data-name="Path 8119" d="M304.159,160.592a.419.419,0,0,0,.126-.012,8.768,8.768,0,0,0,2.211-.9,1.388,1.388,0,0,0,.625-.561,1.582,1.582,0,0,0-.046-1.247c-.616-1.633-1.237-3.14-1.917-4.619a3.384,3.384,0,0,1-.462-1.994.41.41,0,0,0-.306-.487.392.392,0,0,0-.487.306,4.05,4.05,0,0,0,.515,2.512c.677,1.458,1.293,2.95,1.9,4.561.049.141.162.447.086.594a.759.759,0,0,1-.291.227,8.119,8.119,0,0,1-2.022.818.4.4,0,0,0-.291.493A.411.411,0,0,0,304.159,160.592Z" transform="translate(-262.533 -117.865)" fill="#aa5f5f"/>
                    <path id="Path_8120" data-name="Path 8120" d="M325.932,164.457c.236-.659.469-1.308.7-1.954-.245.68-2.251,1.792-2.793,2.506-.7.928-1.286,2.119-1.936,3.118a23.6,23.6,0,0,0-3.666,8.35c-.564,3.17.034,6.781-2.677,9.06-.073-.466-.144-.928-.2-1.4-.242.818-.5,1.642-.735,2.469a1.018,1.018,0,0,0-1.893-.156c-1.6-7.565-8.392-13.305-9.66-20.929a17.04,17.04,0,0,1,5.192-14.8,21,21,0,0,1,14.916-5.532,11.3,11.3,0,0,0,2.839-.129,12.193,12.193,0,0,0,2.42-1.084c3.026-1.525,6.852-2.061,9.719-.245,2.472,1.559,3.718,4.61,3.813,7.535a19.057,19.057,0,0,1-1.8,8.423c-.426-.775-.894-1.041-.888-2.092-.579,2.077-1.939,1.495-3.48,2.068-1.957.744-3.13,2.04-4.962,3.023a2.257,2.257,0,0,0-.435-2.913,9.323,9.323,0,0,1-1.862,2.971C328.125,163.158,326.055,164.111,325.932,164.457Z" transform="translate(-294.463 -134.725)" fill="#aa5f5f"/>
                    <path id="Path_8121" data-name="Path 8121" d="M316.045,156.72a13.05,13.05,0,0,0-1.476-2.861c-.567-.842-1.473-1.7-2.45-1.449a2.078,2.078,0,0,0-1.084.839,4.687,4.687,0,0,0-.3,4.227,13.207,13.207,0,0,0,2.355,3.706,5.426,5.426,0,0,0,1.78,1.645,1.83,1.83,0,0,0,2.221-.383,2.692,2.692,0,0,0-.064-2.5c-.643-1.807-1.293-3.6-1.951-5.406Z" transform="translate(-292.869 -114.541)" fill="#ff8f67"/>
                    <path id="Path_8122" data-name="Path 8122" d="M353.853,162.609l-5.783-1.293c-8.509,2.738-18.038,3.6-25.768,8.411-4.1,2.542-5.032,5.2-7.029,9.351-.429.9-7.4,10.472-7.636,9.712-3.767-11.688-11.342-26.623-1.914-37.551,4.31-4.99,10.337-8.169,16.6-10.031,0,0,16.656-4.818,23.009,4.925Z" transform="translate(-301.179 -140.017)" fill="#705449"/>
                  </g>
                </g>
                <g id="Group_3364" data-name="Group 3364" transform="translate(12.281 71.825)">
                  <g id="Group_3363" data-name="Group 3363" transform="translate(0)">
                    <path id="Path_8123" data-name="Path 8123" d="M317.638,164.021c.26.3-.034.129-.4.083-.126-.224-.248-.441-.38-.637A2.132,2.132,0,0,1,317.638,164.021Z" transform="translate(-316.857 -163.467)" fill="#cfad7a"/>
                  </g>
                </g>
                <path id="Path_8124" data-name="Path 8124" d="M293.563,168.073a4.183,4.183,0,0,0-2.159,2.175c-1.351,2.254-2.689,4.5-4.046,6.757a2.358,2.358,0,0,0-.389.968,1.546,1.546,0,0,0,1.7,1.433,3.732,3.732,0,0,0,2.181-1.155,14.543,14.543,0,0,0,3.277-4.386A14.8,14.8,0,0,0,292.3,180.5a8.958,8.958,0,0,0,4.723-3.725c-.6,1.234-1.185,2.812-.3,3.862,2.68,3.25,8.478-3.832,7.737-6.7C303.7,170.985,296.35,167.233,293.563,168.073Z" transform="translate(-199.811 -82.388)" fill="#ff8f67"/>
              </g>
              <path id="Path_8125" data-name="Path 8125" d="M307.188,181.707a10.313,10.313,0,0,1,.34-3.761c.9-2.251,3.715-3.038,5.277-4.91a10.183,10.183,0,0,1,1.2-1.464,1.563,1.563,0,0,1,1.746-.312,1.9,1.9,0,0,1-.242,2.628c1.666.53,3.394-.4,5.042-.98s3.908-.582,4.668,1c.643,1.345-.285,2.894-1.164,4.1.551-.368,1.372.119,1.553.781a2.8,2.8,0,0,1-.386,1.948c-2.852,5.709-9.253,8.5-15.149,10.883a1.512,1.512,0,0,1-.977.15,1.491,1.491,0,0,1-.613-.5c-1.069-1.32-2.6-3.666-2.6-5.483C305.88,184.39,307.145,183.29,307.188,181.707Z" transform="translate(-263.627 -75.889)" fill="#ff8f67"/>
              <path id="Path_8126" data-name="Path 8126" d="M336.658,191.714c-3.253,4.993-6.8,9.9-7.593,16.166,1.182-.435,25.1-8.576,24.237-9.823a65.718,65.718,0,0,1,4.23,6.974,2.67,2.67,0,0,1-.184,3.617,43.914,43.914,0,0,1-25.618,16.561c-3.182.708-6.591,1.02-9.654-.119a13.876,13.876,0,0,1-5.189-3.605c-6.046-6.374-7.372-16.145-5.431-24.724,1.927-8.579,6.662-16.212,11.52-23.529,2.1-3.127,4.328-6.343,7.657-8.1,6.352-3.342,10.285.91,11.51,6.892C343.791,180.115,340.419,185.959,336.658,191.714Z" transform="translate(-310.625 -90.62)" fill="#cfad7a"/>
            </g>
          </g>
          <g id="Group_3368" data-name="Group 3368" transform="translate(55.105 16.592)">
            <path id="Path_8127" data-name="Path 8127" d="M278.81,173.594s10.01-9.085,29.83-12.916v-.052a212.464,212.464,0,0,1,39.79-5.7,6.1,6.1,0,0,1,6.132,4.521,67.941,67.941,0,0,1,1.758,25.83,6.146,6.146,0,0,1-4.233,5.057c-3.054.983-7.829,2.417-13.514,3.853a73.834,73.834,0,0,1-3.927,21.309s-14.365,13.259-48.03,12.325C286.618,227.817,275.144,215.026,278.81,173.594Z" transform="translate(-264.751 -125.871)" fill="#352a20"/>
            <path id="Path_8128" data-name="Path 8128" d="M282.659,170.547s15.253,15.841,9.072,36.522l-9.36-.067s13.786-10.922.236-29.089C282.607,177.913,280.135,175.233,282.659,170.547Z" transform="translate(-211.657 -93.628)" fill="#352a20"/>
            <path id="Path_8129" data-name="Path 8129" d="M305.036,170.475s-15.508,15.578-9.651,36.36l9.357.074s-13.618-11.14.23-29.089C304.972,177.82,307.489,175.189,305.036,170.475Z" transform="translate(-262.969 -93.776)" fill="#352a20"/>
            <path id="Path_8130" data-name="Path 8130" d="M321.449,170.929s-18.972,2.75-21.446,6.962c0,0-3.893,11.566,24.69,4.659C324.693,182.55,327.434,174.764,321.449,170.929Z" transform="translate(-299.824 -92.84)" fill="#352a20"/>
            <path id="Path_8131" data-name="Path 8131" d="M378.639,145.434,231.567,183.705l2.217,14.056,144.8-44.642A5.8,5.8,0,0,0,378.639,145.434Z" transform="translate(-145.538 -145.434)" fill="#352a20"/>
            <path id="Path_8132" data-name="Path 8132" d="M254.236,152.84l-.09,12.041-2.671-.02-1.581-12.051Z" transform="translate(-75.809 -130.218)" fill="#352a20"/>
            <path id="Path_8133" data-name="Path 8133" d="M340.955,157.454l-90.334,28.364.045-4.675,90.307-26.362Z" transform="translate(-164.774 -126.153)" fill="#352a20"/>
          </g>
          <g id="Group_3369" data-name="Group 3369" transform="translate(29.313 27.041)">
            <path id="Path_8134" data-name="Path 8134" d="M332.223,160.786s-4.558-.714-6-2.2c0,0-2.953,5.042-7.492,6.463-3.8,1.2-10.356-1.057-13.7-3.339a5.383,5.383,0,0,1-2.043-2.852l-.974-3.185s13.379-7.029,26.773-6.824a2.708,2.708,0,0,1,2.45,1.682C332.162,152.8,333.492,157.089,332.223,160.786Z" transform="translate(-288.163 -148.846)" fill="#705449"/>
            <path id="Path_8135" data-name="Path 8135" d="M315.666,162.07a5.136,5.136,0,0,0,.766-.175c3.725-1.173,6.377-5.544,6.4-5.6l1.283-2.193c-.208.365,2.7,2.325,2.983,2.481a8.61,8.61,0,0,0,1.93.6,15.762,15.762,0,0,0-1.314-7.219.755.755,0,0,0-.677-.487,42.988,42.988,0,0,0-6.65.459,68.21,68.21,0,0,0-17.74,5.449l.493,1.584a3.358,3.358,0,0,0,1.274,1.832C307.274,160.753,312.477,162.527,315.666,162.07Z" transform="translate(-286.449 -147.541)" fill="#442e26"/>
            <path id="Path_8136" data-name="Path 8136" d="M326.279,151.456s-9.957,3.3-14.941,3.519l.934,1.424s12.72-1.535,14.426-2.11S326.279,151.456,326.279,151.456Z" transform="translate(-311.338 -143.46)" fill="#705449"/>
          </g>
        </g>
        <g id="Group_3382" data-name="Group 3382" transform="translate(0 104.926)">
          <path id="Path_8137" data-name="Path 8137" d="M425.7,208.792s-6.025-20.332-19.235-27.459l-125.387-.551s-25.45,3.415-29.171,27.242Z" transform="translate(138.245 -160.848)" fill="#705d22"/>
          <g id="Group_3375" data-name="Group 3375" transform="translate(326.6 190.294)">
            <path id="Path_8138" data-name="Path 8138" d="M412.79,266.049S394.256,311.635,354.316,350c-30.608,29.407-71.51,45.7-113.935,46.391L94.09,398.821S246.9,365,258.355,265.36Z" transform="translate(307.929 -176.664)" fill="#352a20"/>
            <path id="Path_8139" data-name="Path 8139" d="M694.645,306.031s-9.192,70.845-113.932,82.236c0,0-147.219,18.641-302.433-9.259,0,0-101.545-17.621-132.208-114.449l530.563,20.9Z" transform="translate(-133.146 -178.316)" fill="#3f3114"/>
            <g id="Group_3374" data-name="Group 3374" transform="translate(122.779 47.454)">
              <g id="Group_3371" data-name="Group 3371" transform="translate(254.392 1.117)">
                <path id="Path_8140" data-name="Path 8140" d="M167,406.261l14.828-7.489a29.834,29.834,0,0,1-8.1-12.221c-3.247-9.3-2.8-19.44-1.8-29.248a282.3,282.3,0,0,1,17.134-72.061c3.225-8.441,7.676-16.313,13.489-22.068L192.485,253.9c10.732-3.476,30.482-.505,36.571.542.539.086,1.06.178,1.6.279.181.037.279.049.279.049l.009.028c1.146.248,2.279.524,3.461.891,17.627,5.547,28.553,23.931,27.857,41.931-.508,13.07-1.969,26.216-5.458,38.859-5.9,21.37-13.085,47.163-30.259,62.652-5.905,5.317-15.113,9.339-22.574,9.608C196.158,409.716,178.791,410.127,167,406.261Z" transform="translate(-142.062 -252.26)" fill="#352a20"/>
                <path id="Path_8141" data-name="Path 8141" d="M194.381,284.046c7.621-19.906,21.992-36.884,45.337-29.527,17.624,5.535,28.559,23.921,27.857,41.907-.5,13.082-1.979,26.225-5.455,38.868-5.9,21.373-13.079,47.166-30.262,62.655-16.613,14.969-45.3,8.977-52.817-12.573-3.241-9.305-2.79-19.453-1.8-29.245A282.122,282.122,0,0,1,194.381,284.046Z" transform="translate(-176.513 -251.21)" fill="#3f3114"/>
                <path id="Path_8142" data-name="Path 8142" d="M199.027,379.638a16.889,16.889,0,0,0,11.474-4.208c13.832-12.466,20.35-36.09,25.591-55.074,2.763-10.019,4.362-21.548,4.9-35.239.45-11.762-6.757-23-16.748-26.148a19.424,19.424,0,0,0-5.859-1.011c-10.252-.049-16.849,13.2-19.875,21.076a266.065,266.065,0,0,0-16.16,68c-.8,7.859-1.24,16.022.992,22.411,2.616,7.489,10.077,10.181,15.664,10.2Z" transform="translate(-165.801 -240.507)" fill="#352a20"/>
              </g>
              <g id="Group_3372" data-name="Group 3372" transform="translate(127.194 0.565)">
                <path id="Path_8143" data-name="Path 8143" d="M208.529,406.06l14.831-7.47a29.783,29.783,0,0,1-8.086-12.233c-3.256-9.284-2.806-19.447-1.813-29.251a282.92,282.92,0,0,1,17.128-72.052c3.238-8.444,7.682-16.316,13.508-22.071l-10.071-9.262c10.726-3.47,30.476-.518,36.568.53.518.089,1.057.172,1.6.285.181.034.285.049.285.049l.006.015c1.133.254,2.273.524,3.455.9,17.624,5.544,28.556,23.921,27.851,41.925-.5,13.069-1.963,26.219-5.446,38.862-5.9,21.379-13.085,47.16-30.274,62.643-5.905,5.329-15.1,9.342-22.558,9.636C237.7,409.525,220.33,409.941,208.529,406.06Z" transform="translate(-183.59 -252.079)" fill="#352a20"/>
                <path id="Path_8144" data-name="Path 8144" d="M235.908,283.877c7.63-19.909,21.992-36.9,45.347-29.551,17.618,5.565,28.552,23.931,27.848,41.941-.5,13.063-1.969,26.216-5.446,38.847-5.9,21.382-13.082,47.175-30.268,62.658-16.613,14.968-45.291,8.987-52.814-12.564-3.244-9.3-2.8-19.456-1.8-29.248A282.288,282.288,0,0,1,235.908,283.877Z" transform="translate(-218.042 -251.047)" fill="#3f3114"/>
                <path id="Path_8145" data-name="Path 8145" d="M240.541,379.456a16.99,16.99,0,0,0,11.489-4.2c13.835-12.475,20.341-36.1,25.582-55.075,2.763-10.025,4.371-21.554,4.895-35.257.459-11.749-6.735-23-16.739-26.139a20.293,20.293,0,0,0-5.856-1.017c-10.255-.04-16.855,13.192-19.878,21.094a265.829,265.829,0,0,0-16.157,68c-.793,7.85-1.234,16.01,1,22.39,2.616,7.492,10.071,10.181,15.664,10.2Z" transform="translate(-207.327 -240.336)" fill="#352a20"/>
              </g>
              <g id="Group_3373" data-name="Group 3373" transform="translate(0)">
                <path id="Path_8146" data-name="Path 8146" d="M250.053,405.884l14.821-7.492a29.892,29.892,0,0,1-8.092-12.215c-3.244-9.3-2.806-19.437-1.8-29.254a282.031,282.031,0,0,1,17.143-72.049c3.225-8.448,7.667-16.325,13.489-22.081l-10.074-9.259c10.745-3.473,30.485-.505,36.565.533.536.089,1.069.175,1.62.27a1.7,1.7,0,0,1,.279.074l0,.015c1.118.245,2.279.512,3.455.894,17.627,5.544,28.556,23.924,27.86,41.931-.511,13.057-1.979,26.2-5.461,38.85-5.884,21.373-13.085,47.16-30.277,62.646-5.893,5.333-15.1,9.354-22.555,9.615C279.215,409.338,261.851,409.755,250.053,405.884Z" transform="translate(-225.112 -251.895)" fill="#352a20"/>
                <path id="Path_8147" data-name="Path 8147" d="M277.427,283.707c7.621-19.94,21.989-36.914,45.35-29.56,17.615,5.559,28.568,23.915,27.86,41.934-.508,13.06-1.972,26.209-5.464,38.844-5.893,21.379-13.088,47.172-30.265,62.658-16.626,14.981-45.282,8.993-52.814-12.558-3.234-9.305-2.793-19.456-1.807-29.257A282.7,282.7,0,0,1,277.427,283.707Z" transform="translate(-259.564 -250.86)" fill="#3f3114"/>
                <path id="Path_8148" data-name="Path 8148" d="M282.072,379.277a17,17,0,0,0,11.492-4.205c13.835-12.472,20.347-36.093,25.572-55.077,2.769-10.022,4.377-21.538,4.9-35.251.466-11.743-6.738-23-16.745-26.133a19.843,19.843,0,0,0-5.859-1.023c-10.233-.049-16.843,13.2-19.863,21.088a265.451,265.451,0,0,0-16.16,67.994c-.812,7.86-1.243,16.016.989,22.405,2.6,7.492,10.068,10.172,15.67,10.2Z" transform="translate(-248.858 -240.153)" fill="#352a20"/>
              </g>
            </g>
            <path id="Path_8149" data-name="Path 8149" d="M673.27,362.186c12.1-12.3,29.723-32.933,39.389-56.055a37.472,37.472,0,0,0-6.527-38.774L695.161,254.6A37.937,37.937,0,0,0,669.019,241.5l-10.258-.7c-.809-.064-1.626-.095-2.447-.089L204.961,238.7a38.19,38.19,0,0,0-14.38,2.766l-20.466,8.27a37.991,37.991,0,0,0-18.071,15.247l-7.418,12.025a37.948,37.948,0,0,0-5.663,19.768h0a37.985,37.985,0,0,0,6.2,20.938L162.993,345a37.929,37.929,0,0,0,30.8,17.174L645.1,373.66A38.047,38.047,0,0,0,673.27,362.186Z" transform="translate(-132.161 -231.666)" fill="#3d3537"/>
            <path id="Path_8150" data-name="Path 8150" d="M627.552,338.518c27.5,2.181,51.6-38.847,44.241-63.657-2.842-9.562-11.792-25.79-22.917-26.58-.116,0-10.123-.707-10.123-.707a9.871,9.871,0,0,0-1.063-.037q-36.351-.165-72.692-.334-79.056-.335-158.114-.689-76.928-.34-153.838-.7-19.935-.064-39.867-.168c-14.163-.064-29.076,1.041-41.812,7.939-13.468,7.3-28.023,21.722-20.362,38.164,4.46,9.572,11.826,18.46,17.544,27.321a16.47,16.47,0,0,0,13.412,7.587q35.643.905,71.3,1.835,81.509,2.081,163.015,4.187,78.293,2.012,156.6,4.037c15.063.383,30.139.68,45.2,1.164C621.558,337.982,624.669,338.288,627.552,338.518Z" transform="translate(-120.242 -217.33)" fill="#352a20"/>
            <path id="Path_8151" data-name="Path 8151" d="M104.091,322.645l-11.06-.046a72.994,72.994,0,0,1-.172-32.017s4.5-49.194,76.441-54.036a5.954,5.954,0,0,1,1.195-.144l550.119,2.444c22.785.092,45.426,5.507,65.157,16.9,22.672,13.088,43.714,34.479,31.462,66.49a5.693,5.693,0,0,1-5.351,3.556c-44.412-.2-88.84-.711-133.259-.6-8.72.021-18.7,4.273-17.486-8.307.907-9.5,2.539-15.768-.524-25.364-6.135-19.226-20.479-33.361-39.659-39.588a5.884,5.884,0,0,0-1.841-.3l-448.691-3.737S91.236,253.2,104.091,322.645Z" transform="translate(-91.164 -236.402)" fill="#63501d"/>
            <path id="Path_8152" data-name="Path 8152" d="M595.727,391.832s-249.337.245-311.5-19.251c0,0-98.4-22.01-111.248-109.5l-12.812-.049s6.692,34.994,28.421,64.288c0,0,22.96,35.334,87.459,56.459,0,0,125.4,30.6,322.8,17.609l72.922-15.866Z" transform="translate(-153.44 -181.458)" fill="#352a20"/>
          </g>
          <path id="Path_8153" data-name="Path 8153" d="M444.016,269.412s.634,37.322-43.089,74.11a25.687,25.687,0,0,1-16.546,6L133.73,348.411l9.207-84.953Z" transform="translate(481.888 9.706)" fill="#705d22"/>
          <path id="Path_8154" data-name="Path 8154" d="M132.3,237.614l215.458.956s67.023,17.07,70.224,92.136l-271.954-1.2Z" transform="translate(512.307 -43.608)" fill="#84732f"/>
          <path id="Path_8155" data-name="Path 8155" d="M517.6,265.54s-38.081,99.517-131.8,126l-177.665,4.4s125.479-41.147,155.024-131.084Z" transform="translate(180.419 12.586)" fill="#3f3114"/>
          <rect id="Rectangle_2042" data-name="Rectangle 2042" width="541.281" height="25.607" transform="matrix(-1, -0.004, 0.004, -1, 721.416, 197.001)" fill="#705d22"/>
          <g id="Group_3376" data-name="Group 3376" transform="translate(75.968 32.626)">
            <path id="Path_8156" data-name="Path 8156" d="M177.763,241.388a27.342,27.342,0,0,0,9.66,21.027l76.322,65.13a27.526,27.526,0,0,0,17.716,6.536l560.79,2.484s20.684-5.094,37.98-11.431a18.9,18.9,0,0,0,7.562-30.632c-19.995-21.447-56.067-57.84-89.664-79.725a86.391,86.391,0,0,0-46.67-13.7L513.254,190.905l-138.888-5.96a27.042,27.042,0,0,0-5.887.4L200.563,214.471A27.447,27.447,0,0,0,177.763,241.388Z" transform="translate(-177.763 -184.926)" fill="#84732f"/>
            <path id="Path_8157" data-name="Path 8157" d="M255.528,241.388a27.343,27.343,0,0,0,9.66,21.027l76.322,65.13a27.526,27.526,0,0,0,17.716,6.536c.224.009.438.012.674.012q84.215.368,168.433.744,56.768.253,113.539.5c22.73.095,66.536,7.988,83.226-8.919,5.225-5.3,8.622-13.005,6.824-20.218-1.078-4.34-3.875-8.028-6.643-11.55a546.851,546.851,0,0,0-77.492-80.046c-16.867-14.175-34.6-22-56.768-23.7l-138.888-5.96a27.043,27.043,0,0,0-5.887.4L278.328,214.471A27.447,27.447,0,0,0,255.528,241.388Z" transform="translate(-255.527 -184.926)" fill="#705d22"/>
          </g>
          <g id="Group_3381" data-name="Group 3381" transform="translate(0 188.859)">
            <path id="Path_8158" data-name="Path 8158" d="M519.421,265.566s-18.546,45.586-58.477,83.973c-30.608,29.383-71.507,45.684-113.935,46.388l-146.291,2.414s152.806-33.8,164.255-133.452Z" transform="translate(201.304 -176.201)" fill="#352a20"/>
            <path id="Path_8159" data-name="Path 8159" d="M771.607,309.409s-4.892,56.627-78.359,78.389c0,0-147.244,18.623-302.451-9.274,0,0-101.545-17.606-132.217-114.437l530.578,20.892Z" transform="translate(-245.659 -177.856)" fill="#3f3114"/>
            <g id="Group_3380" data-name="Group 3380" transform="translate(122.78 47.437)">
              <g id="Group_3377" data-name="Group 3377" transform="translate(254.393 1.128)">
                <path id="Path_8160" data-name="Path 8160" d="M273.629,405.783l14.834-7.492a29.685,29.685,0,0,1-8.1-12.2c-3.241-9.308-2.806-19.462-1.8-29.263a282.3,282.3,0,0,1,17.128-72.064c3.238-8.429,7.685-16.313,13.5-22.059l-10.071-9.287c10.736-3.455,30.488-.5,36.574.545.533.089,1.066.168,1.6.288.19.031.285.049.285.049l0,.021c1.13.254,2.282.521,3.461.879,17.627,5.565,28.565,23.928,27.86,41.938-.505,13.069-1.979,26.206-5.455,38.856-5.89,21.376-13.088,47.175-30.262,62.649-5.911,5.326-15.109,9.354-22.574,9.608C302.791,409.232,285.427,409.648,273.629,405.783Z" transform="translate(-248.687 -251.789)" fill="#352a20"/>
                <path id="Path_8161" data-name="Path 8161" d="M301.01,283.6c7.624-19.937,21.989-36.908,45.334-29.56,17.63,5.547,28.565,23.931,27.863,41.935-.5,13.063-1.966,26.2-5.461,38.844C362.86,356.2,355.662,382,338.476,397.471c-16.6,14.981-45.273,9-52.8-12.567-3.247-9.29-2.8-19.443-1.8-29.251A281.939,281.939,0,0,1,301.01,283.6Z" transform="translate(-283.141 -250.749)" fill="#3f3114"/>
                <path id="Path_8162" data-name="Path 8162" d="M305.655,379.162a16.95,16.95,0,0,0,11.477-4.193c13.844-12.466,20.356-36.1,25.591-55.071,2.769-10.031,4.368-21.563,4.892-35.248.475-11.759-6.742-23.006-16.736-26.151a19.709,19.709,0,0,0-5.856-1.014c-10.246-.046-16.846,13.189-19.869,21.082a265.143,265.143,0,0,0-16.16,68c-.815,7.863-1.25,16.013.983,22.393,2.613,7.5,10.077,10.184,15.673,10.215Z" transform="translate(-272.437 -240.042)" fill="#352a20"/>
              </g>
              <g id="Group_3378" data-name="Group 3378" transform="translate(127.198 0.567)">
                <path id="Path_8163" data-name="Path 8163" d="M315.155,405.606l14.828-7.489A29.815,29.815,0,0,1,321.9,385.9c-3.247-9.293-2.812-19.447-1.807-29.254a281.462,281.462,0,0,1,17.134-72.055c3.231-8.448,7.679-16.316,13.486-22.074l-10.071-9.268c10.739-3.473,30.485-.5,36.574.533.539.092,1.075.165,1.611.288.181.037.276.052.276.052v.021c1.127.257,2.285.518,3.47.882,17.612,5.547,28.553,23.924,27.851,41.931-.5,13.085-1.976,26.225-5.452,38.859-5.89,21.379-13.1,47.169-30.277,62.655-5.905,5.308-15.106,9.345-22.565,9.608C344.314,409.052,326.956,409.469,315.155,405.606Z" transform="translate(-290.218 -251.606)" fill="#352a20"/>
                <path id="Path_8164" data-name="Path 8164" d="M342.537,283.407c7.617-19.918,21.983-36.893,45.34-29.551,17.618,5.544,28.559,23.928,27.86,41.925-.505,13.07-1.973,26.209-5.461,38.847C404.393,356.011,397.192,381.8,380,397.3c-16.61,14.95-45.273,8.99-52.808-12.586-3.232-9.3-2.8-19.434-1.8-29.236A281.782,281.782,0,0,1,342.537,283.407Z" transform="translate(-324.667 -250.564)" fill="#3f3114"/>
                <path id="Path_8165" data-name="Path 8165" d="M347.175,378.962a16.814,16.814,0,0,0,11.48-4.184c13.847-12.469,20.356-36.109,25.585-55.071,2.775-10.028,4.374-21.551,4.907-35.248.466-11.765-6.751-23.006-16.748-26.164a19.583,19.583,0,0,0-5.856-.992c-10.246-.058-16.849,13.186-19.863,21.076a265.8,265.8,0,0,0-16.166,68.006c-.812,7.853-1.24,16,.992,22.4,2.61,7.489,10.071,10.166,15.67,10.181Z" transform="translate(-313.962 -239.854)" fill="#352a20"/>
              </g>
              <g id="Group_3379" data-name="Group 3379" transform="translate(0)">
                <path id="Path_8166" data-name="Path 8166" d="M356.682,405.406l14.825-7.474a29.812,29.812,0,0,1-8.1-12.215c-3.238-9.3-2.8-19.45-1.795-29.251A281.668,281.668,0,0,1,378.747,284.4c3.216-8.438,7.676-16.31,13.48-22.065l-10.071-9.278c10.733-3.47,30.495-.5,36.584.53.53.095,1.054.175,1.6.3.181.034.276.049.276.049l0,.015c1.146.26,2.288.524,3.47.9,17.624,5.535,28.559,23.918,27.86,41.925-.5,13.066-1.97,26.222-5.461,38.853-5.881,21.376-13.079,47.16-30.274,62.652-5.893,5.317-15.109,9.354-22.565,9.615C385.832,408.87,368.468,409.293,356.682,405.406Z" transform="translate(-331.732 -251.421)" fill="#352a20"/>
                <path id="Path_8167" data-name="Path 8167" d="M384.077,283.221c7.608-19.918,21.98-36.9,45.325-29.545,17.618,5.535,28.562,23.915,27.86,41.919-.5,13.066-1.963,26.216-5.446,38.856-5.9,21.373-13.088,47.169-30.283,62.649-16.61,14.984-45.27,9-52.8-12.558-3.244-9.311-2.8-19.465-1.8-29.245A281.9,281.9,0,0,1,384.077,283.221Z" transform="translate(-366.197 -250.375)" fill="#3f3114"/>
                <path id="Path_8168" data-name="Path 8168" d="M388.691,378.793a16.915,16.915,0,0,0,11.489-4.2c13.853-12.469,20.356-36.1,25.585-55.077,2.775-10.025,4.377-21.557,4.907-35.248.469-11.756-6.745-23-16.736-26.154a20.047,20.047,0,0,0-5.872-1c-10.239-.046-16.837,13.189-19.848,21.076a264.869,264.869,0,0,0-16.172,68c-.815,7.859-1.25,16.013,1,22.4,2.6,7.489,10.062,10.172,15.649,10.2Z" transform="translate(-355.487 -239.669)" fill="#352a20"/>
              </g>
            </g>
            <path id="Path_8169" data-name="Path 8169" d="M779.9,361.717c12.092-12.316,29.726-32.948,39.38-56.058a37.467,37.467,0,0,0-6.515-38.78l-10.978-12.754a37.929,37.929,0,0,0-26.142-13.094l-10.252-.708c-.821-.052-1.633-.1-2.45-.1l-451.346-2a38.2,38.2,0,0,0-14.4,2.763l-20.457,8.264a37.955,37.955,0,0,0-18.071,15.263l-7.418,12.019a37.979,37.979,0,0,0-5.66,19.762h0a37.945,37.945,0,0,0,6.184,20.938l17.848,27.3a37.943,37.943,0,0,0,30.8,17.174l451.294,11.48A38.132,38.132,0,0,0,779.9,361.717Z" transform="translate(-238.784 -231.205)" fill="#705d22"/>
            <path id="Path_8170" data-name="Path 8170" d="M734.192,338.044c27.493,2.187,51.592-38.853,44.232-63.657-2.845-9.566-11.8-25.8-22.914-26.58-.11-.009-10.135-.72-10.135-.72-.328-.018-.7-.028-1.057-.037q-36.341-.156-72.692-.315-79.051-.368-158.117-.7-76.915-.34-153.835-.689-19.93-.083-39.858-.165c-14.163-.064-29.089,1.041-41.818,7.939-13.474,7.3-28.029,21.719-20.362,38.158,4.46,9.575,11.832,18.454,17.532,27.321a16.562,16.562,0,0,0,13.422,7.6q35.652.891,71.3,1.822,81.509,2.1,163.021,4.187,78.293,2.026,156.592,4.034c15.076.392,30.136.686,45.193,1.173C728.194,337.51,731.309,337.8,734.192,338.044Z" transform="translate(-226.866 -216.867)" fill="#84732f" opacity="0.5"/>
            <path id="Path_8171" data-name="Path 8171" d="M210.712,322.165l-11.057-.043A72.879,72.879,0,0,1,199.5,290.1s4.478-49.194,76.426-54.03a5.894,5.894,0,0,1,1.216-.135l550.113,2.426c22.779.1,45.414,5.5,65.161,16.907,22.659,13.082,43.711,34.473,31.459,66.472a5.68,5.68,0,0,1-5.354,3.559c-44.422-.2-88.849-.7-133.265-.582-8.717.012-18.7,4.257-17.486-8.316.913-9.489,2.539-15.762-.524-25.376-6.132-19.211-20.473-33.34-39.65-39.585a6.8,6.8,0,0,0-1.844-.291l-448.69-3.728S197.87,252.713,210.712,322.165Z" transform="translate(-197.792 -235.934)" fill="#63501d"/>
            <path id="Path_8172" data-name="Path 8172" d="M702.357,391.368s-249.343.227-311.514-19.257c0,0-98.39-22.019-111.242-109.478l-12.806-.07s6.689,35.006,28.415,64.3c0,0,22.957,35.319,87.462,56.453,0,0,125.4,30.614,322.8,17.593L778.4,385.059Z" transform="translate(-260.06 -181)" fill="#352a20"/>
          </g>
          <path id="Path_8173" data-name="Path 8173" d="M234.063,204.627l44.8.2a8.685,8.685,0,0,1,6.166,2.548,64.9,64.9,0,0,1,15.345,23.863c2.928,8.346,7.483,27.7-4.594,30.789-7.379,1.9-16.24,1.271-23.814,1.611-9.673.426-19.382.757-29.067.444a19.508,19.508,0,0,1-14.558-7.2,66.592,66.592,0,0,1-13.725-28.926C212.111,215.09,220.951,204.557,234.063,204.627Z" transform="translate(375.75 -111.658)" fill="#705d22"/>
          <path id="Path_8174" data-name="Path 8174" d="M104.183,313.211c-4.634,1.038-10.279,3.28-15.3,2.407-14.751-2.53-17.14-25.906-11.847-36.489a10.514,10.514,0,0,1,7.244-5.5L545.272,174.3l8.533,37.757Z" transform="translate(553.614 -174.218)" fill="#84732f"/>
          <path id="Path_8175" data-name="Path 8175" d="M73.054,195.776c2.456,10.414,9.2,17.719,15.048,16.338,5.866-1.369,8.628-10.929,6.163-21.339-2.438-10.4-9.18-17.719-15.042-16.331S70.607,185.377,73.054,195.776Z" transform="translate(1019.317 -174.274)" fill="#a08a45"/>
          <path id="Path_8176" data-name="Path 8176" d="M83.8,205.193a1.9,1.9,0,0,0,.478-.046c1.253-.3,2.4-1.924,3.106-4.349a24.519,24.519,0,0,0-.077-11.9c-2.015-8.506-6.879-13.229-9.477-13.238-1.731.346-2.885,1.979-3.587,4.4a24.351,24.351,0,0,0,.083,11.9C76.326,200.467,81.2,205.181,83.8,205.193Z" transform="translate(1022.177 -171.421)" fill="#705d22"/>
        </g>
        <g id="Group_3383" data-name="Group 3383" transform="translate(180.798 199.768)">
          <path id="Path_8177" data-name="Path 8177" d="M297.991,228.927a9.975,9.975,0,0,0,9.3,8.1l14.24.257a6.523,6.523,0,0,0,6.8-7.789l-2.282-14.534a9.976,9.976,0,0,0-9.29-8.1l-14.237-.279a6.544,6.544,0,0,0-6.812,7.8Z" transform="translate(-79.153 -202.462)" fill="#63501d"/>
          <path id="Path_8178" data-name="Path 8178" d="M321.553,228.472a9.957,9.957,0,0,0,9.3,8.1l14.221.273a6.542,6.542,0,0,0,6.815-7.8l-2.282-14.527a9.961,9.961,0,0,0-9.3-8.1l-14.23-.273a6.537,6.537,0,0,0-6.815,7.8Z" transform="translate(-174.865 -203.382)" fill="#63501d"/>
          <path id="Path_8179" data-name="Path 8179" d="M345.1,228.018a9.953,9.953,0,0,0,9.293,8.1l14.239.282a6.534,6.534,0,0,0,6.794-7.8l-2.27-14.531a10.016,10.016,0,0,0-9.3-8.117l-14.237-.263a6.535,6.535,0,0,0-6.8,7.8Z" transform="translate(-270.572 -204.312)" fill="#63501d"/>
          <path id="Path_8180" data-name="Path 8180" d="M368.673,227.572a9.934,9.934,0,0,0,9.278,8.1l14.246.273a6.523,6.523,0,0,0,6.8-7.786l-2.279-14.54a9.979,9.979,0,0,0-9.278-8.1l-14.249-.273a6.535,6.535,0,0,0-6.8,7.8Z" transform="translate(-366.288 -205.238)" fill="#63501d"/>
        </g>
      </g>
      <g id="Group_3425" data-name="Group 3425" transform="translate(661.375 234.617)">
        <g id="Group_3396" data-name="Group 3396" transform="translate(163.127 10.177)">
          <g id="Group_3385" data-name="Group 3385" transform="translate(129.178 258.327)">
            <path id="Path_8181" data-name="Path 8181" d="M113.139,333.377c2.521,1.231,6.818.7,9.614.907l24.237,1.789c1.182.1,3.081.579,4.205.08,1.749-.757,1.675-3.149.4-4.408a14.909,14.909,0,0,0-2.57-1.642c-2.582-1.66-5.164-3.29-7.761-4.928-2.582-1.642-5.136-3.265-7.725-4.892L135.318,309c-3.394.487-9.373-4.012-18.359-4.717a136.739,136.739,0,0,1-2.8,14.861c-1.44,2.126-2.809,7.706-2.839,8.156C111.072,329.487,110.753,332.244,113.139,333.377Z" transform="translate(-111.15 -304.279)" fill="#442e26"/>
          </g>
          <g id="Group_3386" data-name="Group 3386" transform="translate(0 194.777)">
            <path id="Path_8182" data-name="Path 8182" d="M159.082,285.562c-1.2,2.536-.628,6.827-.8,9.621l-1.541,24.255c-.083,1.182-.542,3.087-.037,4.205.781,1.746,3.167,1.651,4.417.368a15.271,15.271,0,0,0,1.611-2.6c1.63-2.591,3.241-5.186,4.861-7.807,1.6-2.6,3.192-5.182,4.8-7.774l11.311,1.66c-.533-3.4,3.9-9.422,4.524-18.408a138.2,138.2,0,0,1-14.895-2.659c-2.144-1.409-7.734-2.726-8.178-2.751C162.953,283.452,160.2,283.17,159.082,285.562Z" transform="translate(-156.468 -283.531)" fill="#442e26"/>
          </g>
          <path id="Path_8183" data-name="Path 8183" d="M101.229,233.193c0,.009-.006.018,0,.034a1.586,1.586,0,0,0,.055.527c.861,3.752,12.178,7.406,26.157,8.34,14.687.98,30.406-1.2,30.2-3.755-.049-.683-3.574-2.968-4.233-3.651a.788.788,0,0,0-.144-.141,13.786,13.786,0,0,0-4.1-2.466,44.443,44.443,0,0,0-6.392-2.067,87.117,87.117,0,0,0-14.622-2.165c-13.722-.922-25.147,1.106-26.733,4.591A1.915,1.915,0,0,0,101.229,233.193Z" transform="translate(43.314 -204.08)" fill="#442e26"/>
          <path id="Path_8184" data-name="Path 8184" d="M105.372,268.232c2.711-4.744,5.761-9.409,7.183-14.693s1.115-10.916,2.732-16.154c3.452-11.079,16.362-18.227,27.594-15.275,13.532,1.976,11.5,15.005,11.5,15.021-.613,7.562-6.049,15.244-1.969,22.016.573.949,1.345,2.214.591,3.026a3.509,3.509,0,0,1-1.663.655c-4.291,1.274-5.36,8.23-6.5,11.762a3.249,3.249,0,0,1-.4.937c-2.19,3.284-10.126-2.349-12.561-3.452a4.182,4.182,0,0,0-2.052-.521c-4.153.417-5.284,7.014-9.259,8.086-4.141,1.124-9.673-3.516-13.122-5.388-1.308-.7-2.76-1.608-2.977-3.081A4.66,4.66,0,0,1,105.372,268.232Z" transform="translate(36.613 -216.836)" fill="#ff8f67"/>
          <path id="Path_8185" data-name="Path 8185" d="M112.29,348.343a70.7,70.7,0,0,1,2.077-13.7,5.627,5.627,0,0,1,1.259-2.714,5.792,5.792,0,0,1,3.743-1.216,123.346,123.346,0,0,1,37.248,2.925c1.452.352,3.127.686,4.331-.2,1.244-.891,1.418-2.64,1.476-4.172q.74-17.394.57-34.825c-.074-6.515.2-14,5.241-18.123.2-.162.414-.3.628-.447,23.392-32.608,52.48,2.9,52.48,2.9l-.119.184c11.4,11.648,19.263,28.669,27.661,41.065,2.337,3.455,4.729,7.008,5.648,11.082.91,4.009.325,8.178-.254,12.239q-3.285,22.912-6.582,45.837c-1.017,7.088-7.2,10.91-14.05,9.247-9.164-2.211-13.878-3.072-11.961-14.166q3.051-18.2,6.1-36.394c.453-2.729.9-5.6.021-8.221a16.463,16.463,0,0,0-3.669-5.467A242.278,242.278,0,0,0,200.9,311.515c-.689-.591-1.43-1.2-2.205-1.844a38.244,38.244,0,0,1-1.28,5.421c-3.415,10.558-5.85,21.159-9.939,31.478-3.164,7.97-8.068,16.981-16.592,17.909-4.567.484-8.962-1.586-13.324-3.044-12.046-4.025-25.055-3.461-37.726-4.359-2.061-.141-4.291-.4-5.771-1.832C112.293,353.544,112.174,350.8,112.29,348.343Z" transform="translate(-87.835 -132.98)" fill="#8a6d5f"/>
          <g id="Group_3387" data-name="Group 3387" transform="translate(180.944 32.008)">
            <path id="Path_8186" data-name="Path 8186" d="M109.929,234.64a.973.973,0,0,1-.432-.319,5.068,5.068,0,0,0-2.6-1.495,1.228,1.228,0,1,1,.417-2.42,7.467,7.467,0,0,1,4.037,2.316,1.225,1.225,0,0,1-1.424,1.917Z" transform="translate(-105.872 -230.389)" fill="#aa5f5f"/>
            <path id="Path_8187" data-name="Path 8187" d="M108.414,233.723c-.276.986-.894,1.657-1.345,1.525s-.606-1.029-.322-2.009c.276-.959.885-1.651,1.342-1.513C108.555,231.848,108.7,232.752,108.414,233.723Z" transform="translate(-105.015 -227.667)" fill="#aa5f5f"/>
          </g>
          <path id="Path_8188" data-name="Path 8188" d="M111.013,237.741a.308.308,0,0,0,.205-.074.317.317,0,0,0,.037-.438,4.224,4.224,0,0,0-3.865-1.2.311.311,0,0,0-.236.371.3.3,0,0,0,.364.242,3.551,3.551,0,0,1,3.265,1A.3.3,0,0,0,111.013,237.741Z" transform="translate(71.498 -186.924)" fill="#aa5f5f"/>
          <path id="Path_8189" data-name="Path 8189" d="M120.01,250.175s-8.812-4.4-8.034-16.224l-2.1.594S109.027,248.494,120.01,250.175Z" transform="translate(54.513 -191.033)" fill="#705449"/>
          <path id="Path_8190" data-name="Path 8190" d="M103.757,248.572a5.15,5.15,0,0,1,2.45-3.13,6.244,6.244,0,0,1,3.238-5.535c-.729.233-1.066-.9-.882-1.639.821-3.412,3.7-5.869,6.4-8.074,3.109-2.527,6.99-5.2,10.775-4.058a10.894,10.894,0,0,1,11.97-2.015,1.335,1.335,0,0,1-.928,1.3,11.885,11.885,0,0,1,7.369.156,4.359,4.359,0,0,1,2.616,1.972,1.973,1.973,0,0,1-1.038,2.754,5.1,5.1,0,0,1,4.956.977,2.9,2.9,0,0,1-.407,4.435c3.351-1.721,3.587,13.247-1.17,10.463-.726-.426-1.106-1.323-1.871-1.654a3.859,3.859,0,0,0-1.559-.15,7.45,7.45,0,0,1-5.722-2.76c-.45.214-.9.438-1.348.668a2.856,2.856,0,0,1-4.453,2.138,4.57,4.57,0,0,1-5.571.46,5.09,5.09,0,0,1-5.63,4.257,5.512,5.512,0,0,1-6.025,7.048,2.954,2.954,0,0,1-3.792,4.04,2.529,2.529,0,0,0-1-.312,3.433,3.433,0,0,0-.891.3,2.259,2.259,0,0,1-2.414-1.038,6.594,6.594,0,0,1-.851-2.677c-.515.861-1.813-.089-2.123-1.041a6.851,6.851,0,0,1-.037-3.948C104.468,251.506,103.521,249.91,103.757,248.572Z" transform="translate(40.572 -213.333)" fill="#aa5f5f"/>
          <path id="Path_8191" data-name="Path 8191" d="M108.49,246.258c.806-1.734,2.015-3.25,2.87-4.974a13.711,13.711,0,0,0,1.1-9.026c-.27-1.149-.659-2.42-.074-3.452.628-1.121,2.107-1.394,3.388-1.544q4.516-.482,9.045-.873c1.559-.126,3.3-.2,4.478.827a3.544,3.544,0,0,1,1.109,2.165,2.781,2.781,0,0,1,.208.371,6.3,6.3,0,0,1,.49,2.83,26.953,26.953,0,0,1-4.686,15.232,17.133,17.133,0,0,1-7.057,6.233,10.029,10.029,0,0,1-9.164-.386,5.411,5.411,0,0,1-1.884-1.865A6.188,6.188,0,0,1,108.49,246.258Z" transform="translate(49.937 -206.777)" fill="#705449"/>
          <g id="Group_3388" data-name="Group 3388" transform="translate(139.407 186.966)">
            <path id="Path_8192" data-name="Path 8192" d="M112.648,300.444a13.068,13.068,0,0,0,3.982,3.853c8.527,5.967,18.506,5.575,18.816-6.545.147-5.614-1.133-13.48-6.907-16.1C119.742,277.634,108.121,292.682,112.648,300.444Z" transform="translate(-105.79 -280.981)" fill="#705449"/>
            <path id="Path_8193" data-name="Path 8193" d="M117.982,288.635a24.323,24.323,0,0,1,.214,5.179c4.435.459,10.016-2.478,10.016-2.478l-1.562-5.143A8.79,8.79,0,0,1,117.982,288.635Z" transform="translate(-117.982 -270.226)" fill="#705449"/>
          </g>
          <g id="Group_3389" data-name="Group 3389" transform="translate(68.491 199.384)">
            <path id="Path_8194" data-name="Path 8194" d="M141.108,289.865a13.022,13.022,0,0,0-3.3,4.444c-4.824,9.226-3.127,19.064,8.925,17.811,5.59-.582,13.213-2.882,15.082-8.928C164.647,293.951,148.217,284.361,141.108,289.865Z" transform="translate(-134.018 -278.403)" fill="#705449"/>
            <path id="Path_8195" data-name="Path 8195" d="M146.01,285.035a25.193,25.193,0,0,1-5.106.882c.119,4.46,6.1,12.668,6.1,12.668l4.842-2.251C148.169,293.345,145.74,286.867,146.01,285.035Z" transform="translate(-140.904 -285.035)" fill="#705449"/>
          </g>
          <path id="Path_8196" data-name="Path 8196" d="M112.3,326.141c.352,1.813,2.49,2.625,4.316,2.937,11.137,1.859,23.333-2.356,33.478,2.622,4.524,2.2,9.1,8.6,14.408,4.561a12.147,12.147,0,0,0,3.418-4.45c.561-1.115,1.02-2.282,1.479-3.412,7.709-19.293,19.75-37.169,24.283-57.528,1.577-6.974,2.254-13.593.049-20.16a5.63,5.63,0,0,0-.922-1.339,4.317,4.317,0,0,0-3.93-1.391,4.885,4.885,0,0,1-.946.613c-5.777,3.109-13.909-2.358-17.14-6.8a4,4,0,0,1-1.032-2.542c.08-.652.5-1.32.273-1.963-.184-.616-.891-.919-1.531-1.081-4.98-1.231-9.765-.07-14.132,2.539-10.742,6.4-19.048,21.444-22.062,30.691-4.012,12.331-5.715,25.422-10.818,37.365-1.688,3.921-3.706,7.685-5.758,11.44-.87,1.587-1.734,3.155-2.582,4.738A4.92,4.92,0,0,0,112.3,326.141Z" transform="translate(-27.963 -187.4)" fill="#cfad7a"/>
          <path id="Path_8197" data-name="Path 8197" d="M101.9,247.242c2.245-10.347,6.129-16.595,9.786-20.362h0a1.141,1.141,0,0,0,.159-.162,22.46,22.46,0,0,1,16.129-6.772l.012.015a21.074,21.074,0,0,1,5.731.649c.3.083.616.172.919.257,5.9,1.822,11.624,6.043,14.5,11.59a29.8,29.8,0,0,1,2.653,8.57c.469,2.68.839,5.372,1.538,8.062a17.778,17.778,0,0,0,3.391,4.31l.009.009c.058.055.1.11.168.162l-.025-.009a7.22,7.22,0,0,1,.576.637c-1.237-1.259-8.806-3.746-9.627-4.012l-.064-.021c-3-.766-5.924-1.893-9.005-2.558-9.268-2-19.793-2.04-29.223-1.409a23.577,23.577,0,0,0-8.3,2.1C101.2,248.106,101.862,247.435,101.9,247.242Z" transform="translate(43.505 -219.939)" fill="#705449"/>
          <path id="Path_8198" data-name="Path 8198" d="M112.442,311.136c3.789-7.311,8.711-13.875,11.97-21.6,2.04-4.842,4.159-21.983,9.841-27.416.077-.132.165-.279.251-.417,4.509-7.131,7.685-16.46,14.524-21.793a16.125,16.125,0,0,1,5.967-2.79,18.788,18.788,0,0,1,9.611,0,17.137,17.137,0,0,1,11.768,12.31c.634,2.793.57,5.706.91,8.546.358,2.842,1.259,5.814,3.4,7.716s5.8,2.313,7.774.23a7.79,7.79,0,0,0,1.712-4.355,30.052,30.052,0,0,0-1.611-14.592.98.98,0,0,0-.064-.2,2.8,2.8,0,0,1,1.011-.417,4.317,4.317,0,0,1,3.93,1.391,5.629,5.629,0,0,1,.922,1.339,13.694,13.694,0,0,1,1.185,3.654,64.555,64.555,0,0,1-6.472,44.066c-3.244,5.911-7.388,11.269-10.732,17.1-2.741,4.824-4.947,9.955-8.1,14.509a6.178,6.178,0,0,1-1.691,1.767,2.416,2.416,0,0,1-1.568.42c-2.26-.242-2.432-3.43-1.957-5.651-6.653,2.806-12.864-1.265-19.244-2.545-6.751-1.314-13.422-3.106-20.163-4.444-1.816-.355-5.979-.453-9.256-1.351-2.383-.665-4.282-1.7-4.472-3.6A3.572,3.572,0,0,1,112.442,311.136Zm33.864-37.849c4.922,2.343,10.6,2.487,16.041,2.092a9.949,9.949,0,0,0,5.333-1.461c2.447-1.819,2.839-5.277,3.014-8.325.316-5.526.6-11.244-1.461-16.377-1.531-3.773-5.333-8.365-9.765-8.49-4.509-.123-8.267,1.17-10.984,4.778a61.763,61.763,0,0,0-9.958,19.673A15.5,15.5,0,0,0,146.306,273.288Z" transform="translate(-28.585 -185.78)" fill="#705449"/>
          <g id="Group_3392" data-name="Group 3392" transform="translate(136.943 87.674)">
            <g id="Group_3390" data-name="Group 3390" transform="translate(13.745 2.021)">
              <path id="Path_8199" data-name="Path 8199" d="M122.226,269.968c-.885.772-2.046.864-3.777.616a9.012,9.012,0,0,1-3.5-1.081c-4.282-2.668-2.2-7.688-1.09-11.639.775-2.772,2.123-8.441,5.268-8.625,3.672-.205,10.9,1.587,9.115,7.679-1.044,3.559-3.228,6.674-4.414,10.215A6.32,6.32,0,0,1,122.226,269.968Z" transform="translate(-112.364 -249.223)" fill="#563c34"/>
              <path id="Path_8200" data-name="Path 8200" d="M121.525,270.026c-.885.772-2.037.848-3.777.6a8.716,8.716,0,0,1-3.495-1.072c-4.291-2.683-2.208-7.694-1.1-11.648.781-2.772,2.129-8.438,5.259-8.625,3.676-.208,10.922,1.593,9.124,7.682-1.041,3.559-3.225,6.665-4.414,10.212A6.53,6.53,0,0,1,121.525,270.026Z" transform="translate(-109.516 -249.13)" fill="#8a6d5f"/>
            </g>
            <g id="Group_3391" data-name="Group 3391" transform="translate(0)">
              <path id="Path_8201" data-name="Path 8201" d="M128.5,269.039c-.925.928-2.251,1.225-4.294,1.3a11.546,11.546,0,0,1-4.181-.441c-5.293-1.868-3.495-7.232-2.7-11.376.557-2.9,1.424-8.788,5.029-9.535,4.227-.888,12.824-.438,11.5,5.954-.766,3.74-2.91,7.228-3.856,10.971A6.425,6.425,0,0,1,128.5,269.039Z" transform="translate(-116.375 -248.389)" fill="#563c34"/>
              <path id="Path_8202" data-name="Path 8202" d="M127.686,268.959c-.928.925-2.257,1.228-4.3,1.3a11.348,11.348,0,0,1-4.184-.444c-5.287-1.865-3.495-7.229-2.7-11.363.561-2.9,1.427-8.784,5.032-9.547,4.224-.885,12.824-.435,11.5,5.97-.769,3.728-2.913,7.225-3.862,10.962A6.494,6.494,0,0,1,127.686,268.959Z" transform="translate(-113.059 -248.563)" fill="#8a6d5f"/>
            </g>
          </g>
          <g id="Group_3394" data-name="Group 3394" transform="translate(132.791 79.826)">
            <g id="Group_3393" data-name="Group 3393">
              <path id="Path_8203" data-name="Path 8203" d="M103.595,262.777a3.677,3.677,0,0,0,2.45,3.8l15.526,5.516c5.758.894,13.593,15.847,13.593,15.847l16.527,14.445-1.164,2.956a29.333,29.333,0,0,0,4.454,2.625,21.437,21.437,0,0,0,9.556-11.4l-3.051-2.928-2.5,1.614-12.4-13.759,1.92-5.8a5.128,5.128,0,0,0-.833-4.8l-7.685-9.765a2.686,2.686,0,0,0-4.484.417l-2.313,4.515c-1.81.946-12.034-12.72-16.252-18.518a3.745,3.745,0,0,0-1.286-1.118,3.6,3.6,0,0,0-3.614.132C105.537,250.767,103.972,258.559,103.595,262.777Z" transform="translate(-103.58 -246.001)" fill="#442e26"/>
              <path id="Path_8204" data-name="Path 8204" d="M102.932,263.582,120.2,282.124l-1.657,1.786-19-17.86Z" transform="translate(-46.866 -209.733)" fill="#442e26"/>
              <path id="Path_8205" data-name="Path 8205" d="M99.516,273.458a1.56,1.56,0,0,0,2.086-.527l1.219-1.519a1.347,1.347,0,1,0-2.018-1.623L99.587,271.3A1.571,1.571,0,0,0,99.516,273.458Z" transform="translate(-28.681 -198.484)" fill="#442e26"/>
            </g>
            <path id="Path_8206" data-name="Path 8206" d="M119.555,262.777a3.69,3.69,0,0,0,1.283,3.13,25.283,25.283,0,0,0,8.046-9.979,27.994,27.994,0,0,0,2.729-9.5,3.6,3.6,0,0,0-3.614.132C121.5,250.767,119.932,258.559,119.555,262.777Z" transform="translate(-119.54 -246.001)" fill="#66473e"/>
          </g>
          <g id="Group_3395" data-name="Group 3395" transform="translate(104.535 57.38)">
            <path id="Path_8207" data-name="Path 8207" d="M113.312,257.746c1.149-.686,2.058-.343,3.32-.38,2.092-.058,4.3-.94,6.349-.208,1.669.594,2.787,2.153,3.712,3.678a48.564,48.564,0,0,1,4.769,10.524c-2.227.273-3.979-1.752-5.293-3.556a3.283,3.283,0,0,1-.162,3.6,2.647,2.647,0,0,1-3.415.631c.41.594-.365,1.366-1.069,1.394-.72.052-1.43-.279-2.138-.178-.355.064-.689.221-1.032.312a4.735,4.735,0,0,1-3.048-.515,23.8,23.8,0,0,1-4.475-2.53,1.852,1.852,0,0,1-.708-.726,1.957,1.957,0,0,1-.129-.913C110.075,265.82,110.268,259.574,113.312,257.746Z" transform="translate(-61.892 -201.135)" fill="#ff8f67"/>
            <path id="Path_8208" data-name="Path 8208" d="M131.911,304.487c-6.132-2.08-15.808-3.532-16.653-11.321-.922-8.628,4-19.358,6.205-27.56,2.358-8.769,5.057-16.142,11.367-23.159,7.271-8.068,16.448-2.156,17.122,7.875.787,11.8-4.723,24.7-8.668,35.564a144.133,144.133,0,0,1,27.655,7.725,38.064,38.064,0,0,1-2.711,12.233,8.024,8.024,0,0,1-1.672,2.809c-1.761,1.694-4.542,1.654-6.974,1.4A114.482,114.482,0,0,1,131.911,304.487Z" transform="translate(-115.144 -238.673)" fill="#cfad7a"/>
          </g>
          <path id="Path_8209" data-name="Path 8209" d="M121.6,269.564a.421.421,0,0,0,.38-.236c5.284-11.517,6.2-25.284,6.212-25.425a.408.408,0,0,0-.383-.432h-.021a.409.409,0,0,0-.417.383c-.012.141-.925,13.753-6.141,25.125a.41.41,0,0,0,.2.548A.449.449,0,0,0,121.6,269.564Z" transform="translate(11.6 -171.394)" fill="#fff"/>
          <path id="Path_8210" data-name="Path 8210" d="M130.748,303.486a.419.419,0,0,0,.4-.288,127.953,127.953,0,0,0,5.247-29.327.409.409,0,0,0-.4-.426.415.415,0,0,0-.42.392,126.531,126.531,0,0,1-5.213,29.107.408.408,0,0,0,.267.518A.434.434,0,0,0,130.748,303.486Z" transform="translate(-24.614 -109.56)" fill="#fff"/>
        </g>
        <g id="Group_3413" data-name="Group 3413" transform="translate(0 43.434)">
          <path id="Path_8211" data-name="Path 8211" d="M137.688,247.537v.028a1.922,1.922,0,0,0,.113.591c1.256,4.135,13.7,7,28.758,6.478,15.8-.527,28.476-4.582,28.332-9.036a3.229,3.229,0,0,0-1.219-2.221.867.867,0,0,0-.162-.141,14.409,14.409,0,0,0-4.619-2.319,43.567,43.567,0,0,0-7.017-1.614,88.37,88.37,0,0,0-15.86-.809c-14.769.5-26.8,4.071-28.194,8.172A2.245,2.245,0,0,0,137.688,247.537Z" transform="translate(57.525 -215.033)" fill="#442e26"/>
          <path id="Path_8212" data-name="Path 8212" d="M165.166,272.5c2.689-4.454,5.737-8.735,8.178-13.3,1.688-3.133,3.728-7.66,7.415-8.8a5.667,5.667,0,0,1,5.743,1.283c2.012,2.181,1.427,5.611.723,8.481-.827,3.375-1.688,6.824-3.614,9.71-2.282,3.434-5.853,5.771-9.351,7.973a12.955,12.955,0,0,1-5.617,2.368c-2.046.178-4.359-.928-4.855-2.916C163.377,275.634,164.275,273.962,165.166,272.5Z" transform="translate(-15.104 -190.931)" fill="#442e26"/>
          <g id="Group_3405" data-name="Group 3405" transform="translate(0 9.334)">
            <g id="Group_3402" data-name="Group 3402" transform="translate(12.5)">
              <path id="Path_8213" data-name="Path 8213" d="M153.212,322.343s-.521,9.516-2.959,13.455c0,0,3.078,7.575,10.7,2.123l3.271-21Z" transform="translate(37.198 -62.454)" fill="#eacaa4"/>
              <g id="Group_3397" data-name="Group 3397" transform="translate(0 118.183)">
                <path id="Path_8214" data-name="Path 8214" d="M146.834,292.88c-.741,17.682,28.92,26.534,41.23,33.567,8.123,4.64,21.257,9.189,27.747,15.792a12.2,12.2,0,0,1,3.063,5.688,28.069,28.069,0,0,1,.769,5.7c.181,3.767-.08,7.67.165,10.981.735,9.725.8,19.079.747,28.764-.012,8.794-9.342,25.52,4.717,28.531,3.216.7,6.025-.444,9.134-.953,2.809-.462,5.66-.686,8.092-2.45,6.64-4.836,4.408-18.172,4.242-25.193-.236-9.743-.809-19.511-.009-29.245,1.084-13.146,2.833-27.955-4.876-39.512-7.121-10.668-16.494-16.586-26.381-24.672-7.715-6.337-15.783-15.419-24.292-20.626a48.667,48.667,0,0,0-13.483-5.562C163.377,270.141,147.652,273.357,146.834,292.88Z" transform="translate(-35.77 -272.429)" fill="#8a6d5f"/>
                <path id="Path_8215" data-name="Path 8215" d="M170.232,331.25l4.79-9.152s2.662-.172,6.968-.291a4.847,4.847,0,0,1,4.294-2.08,27.275,27.275,0,0,1,5.63.842c2.61.539,5.247.9,7.905,1.182,15.21.392,33.8,2.046,44.676,7.311l37.325-51.448s32.948,2.208,28.164,25.125c-.175.9-1.366,2.1-1.865,2.846-1.755,2.551-3.6,5.06-5.516,7.51a153.389,153.389,0,0,1-20.313,21.652,105.723,105.723,0,0,1-15.517,11.342c-5.357,3.192-12.132,7.5-18.656,6.539a65.067,65.067,0,0,1-7.538-2.067q-12.06-3.308-24.105-6.622c-3.721-1.023-8.181-.46-12.037-.542-6.077-.107-12.246-.23-18.172-1.734-5.228-1.335-7.562-3.182-6.99-7.942q-3.533-.965-7.057-1.936C171.552,331.608,170.9,331.428,170.232,331.25Z" transform="translate(-170.232 -261.731)" fill="#8a6d5f"/>
              </g>
              <path id="Path_8216" data-name="Path 8216" d="M141.578,277.9c2.784.8,4.254,3.945,4.4,6.824.077,1.535-.2,3.25-1.4,4.215s-3.434.558-3.679-.968a1.474,1.474,0,1,1-2.75.423l-.4,1.862q-5.495-1.856-10.987-3.709c-1.544-.515-3.388-1.461-3.29-3.09.095-1.452,1.844-3.023,2.435-4.362,2.233-.1,4.383.649,6.662.456C135.617,279.287,138.429,277,141.578,277.9Z" transform="translate(137.458 -143.395)" fill="#ff8f67"/>
              <path id="Path_8217" data-name="Path 8217" d="M139.05,252.246s13.409,12.57,21.79,52.3a13.3,13.3,0,0,0,6.181,8.662l30.225,18.12-3.611,9.333-41.046-14.825a16.33,16.33,0,0,1-9.418-8.87l-14.451-33.413Z" transform="translate(70.132 -195.882)" fill="#cfad7a"/>
              <path id="Path_8218" data-name="Path 8218" d="M150.906,337.391c7.7,6.506,19.86,8.61,29.312,10.95,3.905.974,17.943,3.14,20.329-1.893.6-1.271-.885-5.719-.708-7.458.576-5.348,3.182-10.4,6.046-14.825,4.144-6.481,9.471-12.092,14.953-17.434a.985.985,0,0,0,.2-.227c.04,0,.04,0,.04-.043.668-.643,1.308-1.332,1.936-2.049.04-.034.07-.061.1-.095.073-.1.172-.224.27-.331l.028-.031.04-.031.031-.034c.266-.325.5-.613.766-.943l.04-.043c.365-.417.735-.839,1.106-1.268.034,0,.034-.031.034-.067.028,0,.067,0,.07-.031v-.028c.469-.524.861-.992,1.308-1.51,0,0,.037,0,.037-.028a3.655,3.655,0,0,1,.4-.456c.2-.224.4-.487.628-.72l.04-.034a65.438,65.438,0,0,0,5.666-7.424c6.95-10.8,13.618-28.412-2.515-34.538-13.174-4.986-27-11.18-41.475-9.844a8.99,8.99,0,0,0-4.444,1.332c-2.267,1.617-2.7,4.748-3.106,7.55a61.924,61.924,0,0,1-6.484,19.526l-.04.037a13.153,13.153,0,0,1-.714,1.363,8.193,8.193,0,0,1-.616,1.164,7.437,7.437,0,0,1-.536,1.072c0,.034,0,.034-.031.077a.789.789,0,0,1-.138.227l-.034.028c-.233.5-.512.949-.781,1.449-.1.193-.2.361-.306.551-.2.368-.4.763-.607,1.121a3.772,3.772,0,0,0-.263.456c-.107.156-.208.361-.306.53a.66.66,0,0,1-.138.22c-1.486,2.628-3.038,5.277-4.6,8.062-5.342,9.712-10.481,19.483-15.5,29.364C147.626,327.672,144.627,332.092,150.906,337.391Z" transform="translate(-30.396 -207.171)" fill="#cfad7a"/>
              <g id="Group_3401" data-name="Group 3401" transform="translate(183.509)">
                <g id="Group_3400" data-name="Group 3400" transform="translate(0 1.201)">
                  <g id="head">
                    <g id="Group_3398" data-name="Group 3398">
                      <path id="Path_8219" data-name="Path 8219" d="M177.878,268.283a18.8,18.8,0,0,1-.652-5.6c.23-2.052,1.461-3.826,1.9-5.81a27.141,27.141,0,0,0,.557-5.725c.049-3.737-.741-7.541-3.415-10.337-5.9-6.141-15.936-8.634-23.511-4.625-7.841,4.141-12.88,15.033-11.1,23.778,1.51,7.415,5.189,15.361,12.166,18.861,3.394,1.706,12.212,7.761,15.642,3.715.775-.907.169-1.89.365-2.9a8.879,8.879,0,0,1,1-2.193c.824-1.715,1.195-3.562,3-4.582C176.809,271.208,178.782,272.654,177.878,268.283Z" transform="translate(-134.364 -234.236)" fill="#ff8f67"/>
                      <path id="Path_8220" data-name="Path 8220" d="M157.592,242.7c-.551.974-.067,2.619-.193,3.718a20.425,20.425,0,0,1-1.21,4.463,32.806,32.806,0,0,1-5.9,10.374c-3.219,3.758-3.982,5.8-.141,9.8,3.032,3.188,13.658,7.988,16.886,3.826,3.345-4.3,4.316-10.478,6.686-15.416.175-.358-4.221-2.129-4.72-2.46a21.771,21.771,0,0,1-4.435-4.061,59.3,59.3,0,0,1-6.791-10.138Z" transform="translate(-147.558 -216.772)" fill="#ff8f67"/>
                    </g>
                  </g>
                  <g id="Group_3399" data-name="Group 3399" transform="translate(36.26 22.638)">
                    <path id="Path_8221" data-name="Path 8221" d="M146.426,245.887a1.217,1.217,0,0,1-.429-.325,5.054,5.054,0,0,0-2.6-1.5,1.226,1.226,0,1,1,.417-2.417,7.5,7.5,0,0,1,4.04,2.316,1.214,1.214,0,0,1-.126,1.724A1.2,1.2,0,0,1,146.426,245.887Z" transform="translate(-142.375 -241.627)" fill="#aa5f5f"/>
                    <path id="Path_8222" data-name="Path 8222" d="M144.917,244.965c-.276.971-.891,1.66-1.345,1.528s-.606-1.038-.322-2.009.885-1.651,1.345-1.525S145.2,243.991,144.917,244.965Z" transform="translate(-141.521 -238.91)" fill="#aa5f5f"/>
                  </g>
                  <path id="Path_8223" data-name="Path 8223" d="M154.489,241.411c-3.314-2.993-5.333,1.675-6.086,4.254-.548,1.905-2.169,5.63.144,7.072C152.979,255.476,157.975,244.55,154.489,241.411Z" transform="translate(-128.822 -221.432)" fill="#ff8f67"/>
                  <path id="Path_8224" data-name="Path 8224" d="M148.923,246.194a.313.313,0,0,0,.294-.2c.046-.116,1.063-2.827-.616-4.7a.311.311,0,0,0-.459.42c1.415,1.577.508,4.031.5,4.052a.308.308,0,0,0,.181.4A.3.3,0,0,0,148.923,246.194Z" transform="translate(-124.946 -219.868)" fill="#aa5f5f"/>
                  <path id="Path_8225" data-name="Path 8225" d="M148.7,246.52a.3.3,0,0,0,.107-.015.313.313,0,0,0,.2-.392c-.726-2.067,1.237-3.479,1.32-3.541a.32.32,0,0,0,.08-.438.313.313,0,0,0-.435-.07c-.024.018-2.432,1.74-1.556,4.248A.314.314,0,0,0,148.7,246.52Z" transform="translate(-126.328 -218.21)" fill="#aa5f5f"/>
                </g>
                <path id="Path_8226" data-name="Path 8226" d="M141.29,251.024a19.993,19.993,0,0,1,7.939-10.659,36.455,36.455,0,0,1,21.826-6.478,17.739,17.739,0,0,1,12.371,6.089,15.165,15.165,0,0,1,3.369,4.858c2.371,6.61-4.846,7.21-9.483,6.267a4.371,4.371,0,0,0-2.441-.089c-1.8.665-2.95,3.725-4.585,2.747a5.116,5.116,0,0,1-2.591,4.585c1.029-1.5-1.3-3.412-2.986-2.781s-2.512,2.515-3.164,4.2q-1.268,3.349-2.542,6.656c-.015-.79-.015-1.565-.025-2.358a6.232,6.232,0,0,1-3.675,2.6c.2-.87.407-1.734.609-2.613-1.247,2.031-1.8,5.336-4.919,4.962a6.216,6.216,0,0,1-4.074-2.806c-.989-1.384-1.672-2.956-2.652-4.352-1.093-1.565-2.564-2.934-3.155-4.751a7.858,7.858,0,0,1-.331-2.594A14.185,14.185,0,0,1,141.29,251.024Z" transform="translate(-140.338 -233.844)" fill="#aa5f5f"/>
              </g>
            </g>
            <g id="Group_3403" data-name="Group 3403" transform="translate(197.175 265.108)">
              <path id="Path_8227" data-name="Path 8227" d="M146.905,340.387c2.012.827,5.32.22,7.5.248l18.9.245c.916.012,2.423.288,3.268-.144,1.323-.677,1.158-2.521.11-3.446a11.8,11.8,0,0,0-2.08-1.145q-3.12-1.751-6.251-3.458c-2.086-1.158-4.147-2.288-6.23-3.434l.842-8.855a65.119,65.119,0,0,1-14.218,1.044,33.2,33.2,0,0,1-1.731,7.844,24.531,24.531,0,0,0-1.816,6.457C145.107,337.461,144.994,339.624,146.905,340.387Z" transform="translate(-145.156 -320.398)" fill="#442e26"/>
            </g>
            <g id="Group_3404" data-name="Group 3404" transform="translate(0 170.728)">
              <path id="Path_8228" data-name="Path 8228" d="M211.915,319.579c.361,1.443,2.205,1.678,3.339.87a12.677,12.677,0,0,0,1.568-1.764c1.571-1.783,3.17-3.587,4.741-5.363s3.143-3.535,4.72-5.3l6.864,2.26a49.422,49.422,0,0,1,3.936-13.541,33.007,33.007,0,0,1-7.519-3.483c-1.443-1.348-5.553-3.1-5.908-3.195-1.639-.459-3.721-1.035-4.9.668-1.244,1.78-1.363,5.146-1.878,7.268-.784,3.29-1.574,6.585-2.349,9.878-.674,2.824-1.36,5.66-2.025,8.49C212.277,317.26,211.676,318.66,211.915,319.579Z" transform="translate(-211.86 -289.584)" fill="#442e26"/>
            </g>
          </g>
          <path id="Path_8229" data-name="Path 8229" d="M148.167,248.957a.3.3,0,0,0,.205-.074.323.323,0,0,0,.034-.441,4.173,4.173,0,0,0-3.862-1.195.313.313,0,0,0,.126.613,3.466,3.466,0,0,1,3.268.989A.293.293,0,0,0,148.167,248.957Z" transform="translate(83.678 -197.042)" fill="#aa5f5f"/>
          <path id="Path_8230" data-name="Path 8230" d="M157.951,260.865s-8.993-4.009-8.735-15.863l-2.067.7S146.909,259.661,157.951,260.865Z" transform="translate(65.48 -201.492)" fill="#705449"/>
          <path id="Path_8231" data-name="Path 8231" d="M147.768,256.815c.8-1.74,2.012-3.259,2.864-4.968a13.714,13.714,0,0,0,1.1-9.036c-.263-1.158-.655-2.426-.077-3.458.622-1.127,2.107-1.4,3.388-1.531,3.011-.334,6.034-.628,9.048-.879,1.556-.141,3.308-.205,4.481.833a3.512,3.512,0,0,1,1.109,2.153c.074.116.147.248.208.365a6.436,6.436,0,0,1,.484,2.839,26.813,26.813,0,0,1-4.686,15.229,17.021,17.021,0,0,1-7.048,6.233,10.015,10.015,0,0,1-9.17-.386,5.544,5.544,0,0,1-1.893-1.865A6.239,6.239,0,0,1,147.768,256.815Z" transform="translate(53.485 -218.279)" fill="#705449"/>
          <path id="Path_8232" data-name="Path 8232" d="M143.72,241.389h0v-.012c.04-.061.089-.113.129-.184a22.437,22.437,0,0,1,14.442-9.863v.009a21.124,21.124,0,0,1,5.755-.518c.312.015.637.043.943.064,6.147.607,12.6,3.6,16.54,8.441a29.678,29.678,0,0,1,4.319,7.862,67.207,67.207,0,0,0,4.04,9.36,3.269,3.269,0,0,1-.472.089,14.291,14.291,0,0,1,4.616,2.322c-1.464-.98-9.376-1.911-10.239-1.994a.257.257,0,0,0-.061-.009c-3.106-.162-6.184-.674-9.348-.7-9.477-.089-19.786,1.982-28.9,4.475a19.83,19.83,0,0,0-7.161,3.155,1.729,1.729,0,0,1-.1-.588C138.339,252.713,140.887,245.806,143.72,241.389Z" transform="translate(56.739 -230.797)" fill="#705449"/>
          <g id="Group_3406" data-name="Group 3406" transform="translate(195.604 180.603)">
            <path id="Path_8233" data-name="Path 8233" d="M147.161,312.629a14.52,14.52,0,0,0,4.806,3.841c10.034,5.725,21.012,4.245,20.1-9.167-.413-6.227-2.643-14.77-9.287-17.088C152.65,286.7,141.354,304.515,147.161,312.629Z" transform="translate(-139.485 -289.761)" fill="#705449"/>
            <path id="Path_8234" data-name="Path 8234" d="M152.456,299.5a28.069,28.069,0,0,1,.769,5.7c4.94.046,10.8-3.767,10.8-3.767l-2.254-5.522C158.3,299.853,154.478,299.865,152.456,299.5Z" transform="translate(-152.456 -277.087)" fill="#705449"/>
          </g>
          <g id="Group_3407" data-name="Group 3407" transform="translate(76.393 192.239)">
            <path id="Path_8235" data-name="Path 8235" d="M196.736,295.113a14.365,14.365,0,0,0-5.014,3.544c-8.279,8.056-9.9,19.024,3.244,21.86,6.1,1.32,14.932,1.544,18.99-4.2C220.142,307.56,206.136,291.771,196.736,295.113Z" transform="translate(-185.3 -291.299)" fill="#705449"/>
            <path id="Path_8236" data-name="Path 8236" d="M195.817,293.56a26.7,26.7,0,0,1-5.694.806c-.018,4.953,3.829,10.781,3.829,10.781l5.513-2.282C195.5,299.419,195.453,295.594,195.817,293.56Z" transform="translate(-184.056 -293.56)" fill="#705449"/>
          </g>
          <path id="Path_8237" data-name="Path 8237" d="M146.834,322.23a90.329,90.329,0,0,1,10.417-26.745,100.573,100.573,0,0,1,8.3-12.319,37.314,37.314,0,0,0,4.576-5.89c.205-.365,2.334-3.369,2.334-3.412.015,5.078,5.562,5.777,9.192,3.639,4.319-2.536,6.481-7.422,8.53-11.768a53.759,53.759,0,0,0,5.2-15.835c.435-3.253.4-3.574,3.881-3.528a20.9,20.9,0,0,1,7.5,1.535c3.547,1.415,1.6,4.944.913,7.51a19.818,19.818,0,0,0-.254,8.683c2.279,12.065,19.355,20.185,28.032,9.036.8-1.008,4.833-11.823,3.048-12.031,3.112.361,5.976,3,7.51,5.645a14.648,14.648,0,0,1,1.452,9.219c-1.764,13.443-14.359,22.323-22.411,33.227a113.25,113.25,0,0,0-17.272,34.712c-1.023,3.663-3.293,7.667-7.081,8.108-2.484.3-4.858-1.063-6.8-2.622a28.916,28.916,0,0,1-9.134-12.984c-11.143,4.533-24.072,6.3-35.132,1.547a7.719,7.719,0,0,1-3.743-2.769c-1.026-1.666-.821-3.783-.493-5.7C145.814,327.042,146.289,324.628,146.834,322.23Z" transform="translate(-18.026 -198.677)" fill="#705449"/>
          <g id="Group_3408" data-name="Group 3408" transform="translate(116.107 48.754)">
            <path id="Path_8238" data-name="Path 8238" d="M185.183,273.081c.42,1.786.469,4.077,2.162,4.809.453.2.971.245,1.406.487s.784.8.511,1.228a1.1,1.1,0,0,1-.833.392,5.923,5.923,0,0,1-3.813-.723c-.239,1.24.346,2.469.622,3.706.27,1.219.046,2.8-1.127,3.274-.962.392-2.034-.2-2.9-.769a2.461,2.461,0,0,0,.242,1.5,4.856,4.856,0,0,1-1.657-1.017c.046.582-.588,1.023-1.167,1a2.919,2.919,0,0,1-1.568-.674c-1.783-1.231-3.605-2.591-4.5-4.564a12.81,12.81,0,0,1-.7-5.639c.058-2.291-.824-7.645.444-9.578,1.2-1.835,5.311-2.478,7.225-3.691.861,2.236,1.351,4.711,2.61,6.714C182.971,270.833,184.748,271.316,185.183,273.081Z" transform="translate(-156.983 -213.477)" fill="#ff8f67"/>
            <path id="Path_8239" data-name="Path 8239" d="M215.744,266.035c-.285.328-.579.646-.891.953-3.363,3.274-7.158,3.02-11.5,3.063-4.708.04-9.437-.8-14.145-.288-5.62.622-8.754,1.887-7.5,7.633,1.623,7.516,3.357,15.021,5.035,22.522l-8.163,2.934c-7.921-7.1-12.708-18.5-14.592-28.727-1.838-9.856-1-15.982,9.03-19.839s20.28-4.438,30.837-6.12c4.325-.7,9.305-2.028,13.7-1.173,4.524.873,4.162,5.268,3.13,9.2a28.584,28.584,0,0,1-1.323,3.666A23.977,23.977,0,0,1,215.744,266.035Z" transform="translate(-163.209 -246.714)" fill="#cfad7a"/>
          </g>
          <g id="Group_3409" data-name="Group 3409" transform="translate(191.398 85.013)">
            <path id="Path_8240" data-name="Path 8240" d="M163.518,287.98c-1.6.916-3.51.845-6.3.2a16.175,16.175,0,0,1-5.516-2.107c-6.49-4.469-2.11-11.094.478-16.414,1.816-3.74,5.127-11.4,10.3-11.1,6.058.334,17.541,4.071,13.422,12.267-2.4,4.769-6.576,8.726-9.216,13.459A9.262,9.262,0,0,1,163.518,287.98Z" transform="translate(-148.316 -258.552)" fill="#563c34"/>
            <path id="Path_8241" data-name="Path 8241" d="M162.377,288.167c-1.6.928-3.513.842-6.3.2a15.79,15.79,0,0,1-5.513-2.107c-6.49-4.463-2.11-11.079.478-16.4,1.813-3.734,5.124-11.406,10.3-11.115,6.055.346,17.541,4.086,13.422,12.267-2.4,4.781-6.576,8.739-9.219,13.48A9.177,9.177,0,0,1,162.377,288.167Z" transform="translate(-143.693 -258.179)" fill="#8a6d5f"/>
          </g>
          <g id="Group_3410" data-name="Group 3410" transform="translate(178.943 115.393)">
            <path id="Path_8242" data-name="Path 8242" d="M167.338,294.488c-1.384.879-3.078.879-5.578.407a14.238,14.238,0,0,1-4.947-1.666c-5.914-3.721-2.276-9.749-.162-14.552,1.467-3.369,4.129-10.276,8.711-10.206,5.369.092,15.67,2.989,12.325,10.38-1.954,4.325-5.51,7.973-7.685,12.255A8,8,0,0,1,167.338,294.488Z" transform="translate(-153.592 -268.471)" fill="#563c34"/>
            <path id="Path_8243" data-name="Path 8243" d="M166.321,294.613c-1.378.87-3.072.867-5.565.4a14.133,14.133,0,0,1-4.959-1.675c-5.915-3.718-2.267-9.731-.165-14.537,1.476-3.378,4.129-10.282,8.717-10.206,5.375.08,15.673,2.98,12.328,10.38-1.957,4.316-5.507,7.964-7.682,12.255A8.287,8.287,0,0,1,166.321,294.613Z" transform="translate(-149.476 -268.213)" fill="#8a6d5f"/>
          </g>
          <g id="Group_3411" data-name="Group 3411" transform="translate(152.267 105.938)">
            <path id="Path_8244" data-name="Path 8244" d="M176.044,291.4c-1.378.864-3.072.87-5.571.4a14.25,14.25,0,0,1-4.953-1.666c-5.915-3.718-2.27-9.749-.165-14.552,1.476-3.36,4.126-10.276,8.708-10.2,5.382.077,15.682,2.983,12.337,10.377-1.963,4.322-5.51,7.976-7.685,12.249A8.14,8.14,0,0,1,176.044,291.4Z" transform="translate(-162.3 -265.384)" fill="#563c34"/>
            <path id="Path_8245" data-name="Path 8245" d="M175.028,291.517c-1.378.873-3.075.873-5.562.4a14.116,14.116,0,0,1-4.962-1.669c-5.911-3.718-2.264-9.749-.165-14.552,1.479-3.366,4.129-10.273,8.714-10.187,5.372.077,15.679,2.971,12.328,10.377-1.954,4.306-5.51,7.961-7.676,12.249A8.19,8.19,0,0,1,175.028,291.517Z" transform="translate(-158.182 -265.126)" fill="#8a6d5f"/>
          </g>
          <g id="Group_3412" data-name="Group 3412" transform="translate(164.663 73.969)">
            <path id="Path_8246" data-name="Path 8246" d="M172.244,284.377c-1.6.919-3.51.858-6.307.205a15.9,15.9,0,0,1-5.5-2.1c-6.493-4.466-2.113-11.091.475-16.414,1.813-3.743,5.127-11.4,10.285-11.109,6.062.34,17.547,4.071,13.437,12.273-2.4,4.778-6.579,8.726-9.213,13.462A9.227,9.227,0,0,1,172.244,284.377Z" transform="translate(-157.045 -254.946)" fill="#563c34"/>
            <path id="Path_8247" data-name="Path 8247" d="M171.1,284.567c-1.593.922-3.5.842-6.3.2a15.917,15.917,0,0,1-5.5-2.11c-6.493-4.466-2.116-11.085.475-16.4,1.81-3.737,5.127-11.412,10.285-11.115,6.058.346,17.544,4.083,13.437,12.27-2.4,4.772-6.582,8.739-9.226,13.468A9.073,9.073,0,0,1,171.1,284.567Z" transform="translate(-152.423 -254.567)" fill="#8a6d5f"/>
          </g>
        </g>
        <g id="Group_3424" data-name="Group 3424" transform="translate(371.672)">
          <g id="Group_3414" data-name="Group 3414" transform="translate(42.101 287.384)">
            <path id="Path_8248" data-name="Path 8248" d="M73.378,339.308c2.456,1.357,6.769,1.054,9.547,1.406L107.04,343.8c1.173.15,3.041.738,4.193.3,1.789-.665,1.841-3.057.649-4.383a15.4,15.4,0,0,0-2.5-1.779c-2.484-1.792-4.971-3.556-7.483-5.333-2.481-1.78-4.956-3.529-7.446-5.3l2.374-11.18c-3.415.306-9.146-4.5-18.083-5.691a136.537,136.537,0,0,1-3.6,14.7c-1.544,2.046-3.2,7.541-3.262,7.991C71.516,335.3,71.06,338.049,73.378,339.308Z" transform="translate(-71.583 -310.443)" fill="#442e26"/>
          </g>
          <g id="Group_3415" data-name="Group 3415" transform="translate(0 245.104)">
            <path id="Path_8249" data-name="Path 8249" d="M88.377,306.367c.043,2.806,2.456,6.389,3.532,8.987l9.336,22.433c.456,1.1.876,3.008,1.822,3.792,1.476,1.219,3.581.08,4.129-1.626a14.711,14.711,0,0,0,.3-3.038c.319-3.048.616-6.086.907-9.158.3-3.035.582-6.046.876-9.094l10.873-3.51c-1.979-2.806-.655-10.172-4.077-18.512a137.589,137.589,0,0,1-14.534,4.208c-2.545-.325-8.138.974-8.555,1.139C90.919,302.756,88.313,303.73,88.377,306.367Z" transform="translate(-88.376 -296.639)" fill="#442e26"/>
          </g>
          <path id="Path_8250" data-name="Path 8250" d="M46.268,224.947c-.652,1.482.793,3.173,1.737,4.147a31.865,31.865,0,0,0,8.665,5.829A89.973,89.973,0,0,0,70.5,240.495c14.442,4.567,30.638,6.31,31.021,3.764.107-.68-2.9-3.774-3.4-4.6-.028-.046-.073-.113-.119-.175a14.773,14.773,0,0,0-3.535-3.415,46.258,46.258,0,0,0-5.9-3.578,91.833,91.833,0,0,0-14.129-5.719,86.748,86.748,0,0,0-14.984-3.461c-3.342-.438-7.032-.836-10.343.037a7.031,7.031,0,0,0-1.293.466C47.285,224.081,46.516,224.372,46.268,224.947Z" transform="translate(59.723 -203.804)" fill="#442e26"/>
          <path id="Path_8251" data-name="Path 8251" d="M66.955,366.751c13.024-9.189,31.521-5.869,45.475-13.575a4.083,4.083,0,0,0,1.835-1.6c.527-1.093.07-2.389-.407-3.51-5.4-12.7-12.867-24.43-18.469-37.046s-9.327-26.666-6.619-40.192c.858-4.325,3.109-9.18,7.452-9.893a12.4,12.4,0,0,1,4.953.521c8.043,1.957,30.277,3.238,33.438,12.579,1.2,3.535-1.023,7.746-.986,11.379.083,6.64,2.971,13.428,5.011,19.646a261.575,261.575,0,0,1,10.889,48.03c.809,6.267,1.21,13.272-2.668,18.252-3.094,3.985-8.193,5.734-13.033,7.155a305.151,305.151,0,0,1-52.661,10.564c-4.205.472-9.247.493-11.688-2.953-1.4-1.97-1.513-4.588-2.622-6.717-1.207-2.343-3.614-4.218-3.715-6.846C63.05,370.141,64.989,368.153,66.955,366.751Z" transform="translate(-40.977 -125.374)" fill="#8a6d5f"/>
          <path id="Path_8252" data-name="Path 8252" d="M117.313,273.48c2.181,22.8,4.279,45.644,4.634,68.564.1,6.251.064,12.57-1.213,18.705-4.092,19.667-20.087,34.574-27.873,53.09-1.372,3.271-3.106,7.167-6.6,7.7-4.337.637-7.293-4.374-11.4-5.914-2.573-.953-5.694-.576-7.786-2.34-2.992-2.539-1.734-7.339-.11-10.907a184.548,184.548,0,0,1,18.99-32.583c2.3-3.155,4.748-6.313,5.872-10.049,1.1-3.666.845-7.605.273-11.391-3.5-23.156-18.335-44.572-16.111-67.874.533-5.672,2.371-11.636,6.913-15.07,4.631-3.495,10.993-3.553,16.733-2.7,4.689.707,9.474,1.994,13.143,5s5.967,8.077,4.579,12.6Z" transform="translate(-19.4 -122.475)" fill="#8a6d5f"/>
          <path id="Path_8253" data-name="Path 8253" d="M56.578,325.461c.361,1.822,2.5,2.619,4.322,2.943,11.14,1.859,23.33-2.349,33.478,2.613,4.527,2.2,9.106,8.613,14.411,4.576a12.277,12.277,0,0,0,3.418-4.466c.561-1.106,1.017-2.282,1.482-3.406,7.706-19.3,19.741-37.175,24.277-57.531,1.464-6.506,2.842-15.44.5-21.839-.6-1.626-1.4-3.473-3.063-4-1.51-.487-3.09.306-4.619.711a9.734,9.734,0,0,1-11.48-6.885c-.4-1.709-.659-3.927-2.346-4.38a4,4,0,0,0-2.162.273c-5.519,1.783-10.855.848-16.145,4C87.915,244.453,79.6,259.5,76.594,268.751c-4.012,12.344-5.715,25.438-10.818,37.371-1.691,3.921-3.718,7.688-5.758,11.434-.882,1.6-1.737,3.161-2.582,4.751A4.935,4.935,0,0,0,56.578,325.461Z" transform="translate(-10.412 -181.305)" fill="#cfad7a"/>
          <path id="Path_8254" data-name="Path 8254" d="M56.813,308.381c3.789-7.3,8.72-13.872,11.97-21.6,2.046-4.842,4.163-21.979,9.838-27.425.083-.123.168-.276.26-.4,4.5-7.127,7.676-16.463,14.531-21.8a15.9,15.9,0,0,1,5.954-2.784,18.837,18.837,0,0,1,9.615-.015,17.123,17.123,0,0,1,11.762,12.313c.646,2.79.576,5.715.913,8.558.358,2.836,1.268,5.8,3.4,7.715,2.15,1.9,5.81,2.316,7.777.227a7.785,7.785,0,0,0,1.709-4.368,30.006,30.006,0,0,0-1.608-14.579,1.031,1.031,0,0,0-.064-.2,2.6,2.6,0,0,1,1.008-.417,4.276,4.276,0,0,1,3.927,1.391,5.705,5.705,0,0,1,.925,1.354,13.552,13.552,0,0,1,1.188,3.633,64.59,64.59,0,0,1-6.475,44.072c-3.247,5.908-7.388,11.268-10.723,17.119-2.751,4.8-4.947,9.942-8.111,14.5a6.289,6.289,0,0,1-1.685,1.758,2.5,2.5,0,0,1-1.574.426c-2.26-.245-2.429-3.424-1.957-5.648-6.647,2.8-12.858-1.268-19.247-2.542-6.745-1.329-13.416-3.112-20.157-4.447-1.816-.358-5.982-.466-9.259-1.363-2.38-.649-4.285-1.7-4.472-3.581A3.631,3.631,0,0,1,56.813,308.381Zm33.873-37.842c4.916,2.334,10.589,2.484,16.041,2.086a9.922,9.922,0,0,0,5.329-1.464c2.444-1.81,2.833-5.28,3.011-8.319.312-5.516.6-11.235-1.458-16.384-1.535-3.783-5.333-8.359-9.774-8.481-4.5-.135-8.255,1.155-10.981,4.763a61.914,61.914,0,0,0-9.948,19.682A15.453,15.453,0,0,0,90.686,270.538Z" transform="translate(-11.113 -181.291)" fill="#705449"/>
          <g id="Group_3418" data-name="Group 3418" transform="translate(100.025 87.611)">
            <g id="Group_3416" data-name="Group 3416" transform="translate(13.59 2.793)">
              <path id="Path_8255" data-name="Path 8255" d="M65.543,267.049c-.946.7-2.1.689-3.813.3a8.729,8.729,0,0,1-3.4-1.366c-4.055-3.017-1.562-7.838-.129-11.688,1.008-2.708,2.815-8.245,5.957-8.16,3.685.092,10.745,2.475,8.463,8.4-1.342,3.467-3.77,6.38-5.25,9.823A6.24,6.24,0,0,1,65.543,267.049Z" transform="translate(-56.123 -246.132)" fill="#563c34"/>
              <path id="Path_8256" data-name="Path 8256" d="M64.851,267.153c-.943.7-2.1.686-3.81.294a8.8,8.8,0,0,1-3.4-1.366c-4.055-3.02-1.565-7.838-.129-11.688,1.008-2.7,2.824-8.239,5.954-8.157,3.685.092,10.745,2.475,8.463,8.408-1.332,3.452-3.767,6.368-5.244,9.811A6.411,6.411,0,0,1,64.851,267.153Z" transform="translate(-53.305 -245.917)" fill="#8a6d5f"/>
            </g>
            <g id="Group_3417" data-name="Group 3417" transform="translate(0)">
              <path id="Path_8257" data-name="Path 8257" d="M71.8,265.844c-1.011.839-2.355,1.035-4.4.937a11.058,11.058,0,0,1-4.12-.784c-5.127-2.294-2.891-7.5-1.758-11.559.793-2.852,2.144-8.637,5.807-9.091,4.282-.527,12.809.637,10.968,6.9-1.075,3.654-3.5,6.953-4.751,10.607A6.574,6.574,0,0,1,71.8,265.844Z" transform="translate(-60.051 -245.19)" fill="#563c34"/>
              <path id="Path_8258" data-name="Path 8258" d="M70.979,265.825c-1.008.851-2.355,1.035-4.389.94a11.564,11.564,0,0,1-4.135-.775c-5.118-2.306-2.888-7.507-1.746-11.563.793-2.852,2.144-8.64,5.8-9.094,4.291-.53,12.818.628,10.978,6.892-1.081,3.657-3.5,6.953-4.757,10.61A6.569,6.569,0,0,1,70.979,265.825Z" transform="translate(-56.719 -245.22)" fill="#8a6d5f"/>
            </g>
          </g>
          <path id="Path_8259" data-name="Path 8259" d="M58.94,276.556a13.1,13.1,0,0,1-4.671-2.708,20.089,20.089,0,0,1-4.944-7.336,4.1,4.1,0,0,1-.438-2.45,5.556,5.556,0,0,1,1.057-1.819c4.215-5.832.19-11.027.487-17.162a38.954,38.954,0,0,1,1.871-9.869A24.544,24.544,0,0,1,65.194,220.3c3.2-1.532,8.114-1.277,11.55-.943a22.137,22.137,0,0,1,14.975,8.3,16.817,16.817,0,0,1,3.161,6.086,16.1,16.1,0,0,1-.992,9.832c-1.167,2.98-3.106,5.691-3.853,8.837-.769,3.247-.086,7.213-.1,10.585-.009,2.334-2.245,1.026-3.556,1.4-3.5.992-5.308,5.48-6.714,8.365a4.131,4.131,0,0,1-1.917,2.245c-1.452.561-2.781-.484-3.9-1.228a55.435,55.435,0,0,1-4.671-3.519,2.39,2.39,0,0,0-1.351-.68c-3.035-.074-2.352,6.132-4.355,7.235a2.4,2.4,0,0,1-1.09.23A10.536,10.536,0,0,1,58.94,276.556Z" transform="translate(57.633 -211.475)" fill="#ff8f67"/>
          <g id="Group_3419" data-name="Group 3419" transform="translate(105.639 4.979)">
            <path id="Path_8260" data-name="Path 8260" d="M57.613,231.061a4.7,4.7,0,0,1,.052-2.175A6.416,6.416,0,0,1,57.613,231.061Z" transform="translate(-37.061 -196.283)" fill="#aa5f5f"/>
            <path id="Path_8261" data-name="Path 8261" d="M54.571,228.482a23.942,23.942,0,0,1,8.457-7.859,23.42,23.42,0,0,1,9.21-2.3,28.417,28.417,0,0,1,15.8,3.216,19.9,19.9,0,0,1,9.777,12.509c1.213,5.308-.413,11.33-4.561,14.861l.836-2.325a19.215,19.215,0,0,1-1.712,2.276,28.655,28.655,0,0,1-.309-5.663,7.147,7.147,0,0,1-4.043,3.963,21.392,21.392,0,0,1-5.666,1.289,3.056,3.056,0,0,0,1.951-3.032,9.019,9.019,0,0,1-3.581,2.545c.45-.637.9-1.277,1.342-1.905-1.433,1.553-3.363,1.286-5.152,2-1.531.6-1.587,1.467-2.7,2.45-1.222,1.063-.165.689-1.289.41-.766-.178-.873-1.4-2.129-1.3a2.547,2.547,0,0,0-2.1,1.826c-.392,1.378.4,2.821.025,4.169-.364,1.323-1.6,2.242-2.622,3.118-2.172,1.856-4.432,3.807-7.363,4.211a2.972,2.972,0,0,1,1.124-1.231,13.69,13.69,0,0,0-2.585.165c-1.4.04-2.659-1.767-3.954-2.386a17.839,17.839,0,0,1-3.528-1.651c-2.352-1.826-1.985-5.67-1.933-8.365A38.108,38.108,0,0,1,54.571,228.482Z" transform="translate(-47.806 -218.242)" fill="#aa5f5f"/>
          </g>
          <g id="Group_3420" data-name="Group 3420" transform="translate(94.089 100.814)">
            <path id="Path_8262" data-name="Path 8262" d="M71.279,250.427,97.734,269.35a3.726,3.726,0,0,1,1.127,1.265l.934,1.712a3.793,3.793,0,0,0,3.274,1.969l5.1.067a3.752,3.752,0,0,1,2.374.879L147.16,305.7a3.8,3.8,0,0,1-.361,6.1l-.567.371a3.8,3.8,0,0,1-4.285-.107l-39.533-28.458a3.781,3.781,0,0,0-5.149.668l-5.333,6.487a3.788,3.788,0,0,1-5.5.389h0a3.8,3.8,0,0,1-.7-4.723l1.911-3.241a3.8,3.8,0,0,0-1.366-5.2l-1.969-1.149a3.8,3.8,0,0,0-3.342-.236l-9.765,3.97a3.857,3.857,0,0,1-2.806.025L50.55,273.659a2.024,2.024,0,0,1-.266-.12l-12.828-6.126c-.135-.064-.27-.144-.392-.217l-6.291-3.985a3.792,3.792,0,0,1-.1-6.343l7.516-5.09a3.839,3.839,0,0,1,1.954-.656l28.746-1.4A3.813,3.813,0,0,1,71.279,250.427Z" transform="translate(-29.009 -249.148)" fill="#442e26"/>
            <path id="Path_8263" data-name="Path 8263" d="M68.813,272.526l4.221-6.383a1.828,1.828,0,0,0-.266-2.346L58.209,250.117a2.173,2.173,0,0,0-2.4-.386l-10.781,5.091L51.3,259.07l5.238-3.3a2.136,2.136,0,0,1,2.441.1l10.533,7.841a1.851,1.851,0,0,1,.389,2.567L66.277,271.2Z" transform="translate(-2.882 -249.53)" fill="#442e26"/>
            <path id="Path_8264" data-name="Path 8264" d="M25.2,269.055l22.054,16.882-1.474,2.246L22.309,269.934Z" transform="translate(92.785 -209.253)" fill="#442e26"/>
            <path id="Rectangle_2043" data-name="Rectangle 2043" d="M.541,0H13.063a.54.54,0,0,1,.54.54V5.648a.536.536,0,0,1-.536.536H.537A.537.537,0,0,1,0,5.648V.541A.541.541,0,0,1,.541,0Z" transform="translate(144.928 86.75) rotate(-140.48)" fill="#442e26"/>
          </g>
          <path id="Path_8265" data-name="Path 8265" d="M58,253.9c3.029-.539,6.31,2.362,8.788,3.657a51.851,51.851,0,0,0,10.16,4.061,1.717,1.717,0,0,1,1.014.57c.444.7-.4,1.58-1.222,1.734-1.862.346-3.565-1.244-5.394-1.118-2.9.208-1.74,3.179-3.308,4.895a19.873,19.873,0,0,1-3.966,3.372c-1.479.8-4.493-.432-5.948-.879a12.846,12.846,0,0,1-4.928-2.551C48.935,263.778,52.654,254.859,58,253.9Z" transform="translate(67.114 -139.831)" fill="#ff8f67"/>
          <path id="Path_8266" data-name="Path 8266" d="M58.289,281.08c.539-3.611,1.47-7.222,1.822-9.412a149.757,149.757,0,0,1,5.5-22.712c1.057-3.262,2.279-6.567,4.662-9.241,3.626-4.061,11.719-6.775,16.414-2.515,2.548,2.3,3.057,5.783,2.968,8.977a61.485,61.485,0,0,1-3.795,18.261c-.659,1.865-7.553,15.48-5.994,16.206A161.027,161.027,0,0,0,114.5,292.217q-3.023,6.625-6.037,13.244c-1.109,2.444-45.567-10.622-48.8-13.8C57.587,289.616,57.661,285.35,58.289,281.08Z" transform="translate(10.616 -178.592)" fill="#cfad7a"/>
          <g id="Group_3422" data-name="Group 3422" transform="translate(135.603 37.108)">
            <g id="Group_3421" data-name="Group 3421" transform="translate(6.056)">
              <path id="Path_8267" data-name="Path 8267" d="M54.038,233.569a1.2,1.2,0,0,1-.34-.41,5.051,5.051,0,0,0-2.169-2.07,1.23,1.23,0,1,1,.989-2.251,7.43,7.43,0,0,1,3.369,3.207,1.215,1.215,0,0,1-.533,1.642A1.228,1.228,0,0,1,54.038,233.569Z" transform="translate(-50.792 -228.732)" fill="#aa5f5f"/>
              <path id="Path_8268" data-name="Path 8268" d="M53.581,232.233c-.505.885-1.256,1.4-1.669,1.161s-.337-1.142.162-2.028c.505-.867,1.256-1.394,1.672-1.158S54.086,231.36,53.581,232.233Z" transform="translate(-51.397 -225.802)" fill="#aa5f5f"/>
            </g>
            <path id="Path_8269" data-name="Path 8269" d="M56.732,236.436a.266.266,0,0,0,.144-.031.3.3,0,0,0,.135-.413,4.089,4.089,0,0,0-3.461-2.083.322.322,0,0,0-.319.306.305.305,0,0,0,.3.315,3.533,3.533,0,0,1,2.934,1.743A.3.3,0,0,0,56.732,236.436Z" transform="translate(-53.231 -218.051)" fill="#aa5f5f"/>
          </g>
          <path id="Path_8270" data-name="Path 8270" d="M47.226,235.471c.588-1.094,1.2-2.181,1.856-3.231a42.775,42.775,0,0,1,3.774-5.262,34.663,34.663,0,0,1,3.832-3.93c.606-.524,1.237-1.032,1.878-1.5a10.1,10.1,0,0,1,1.795-1.222c.064-.04.123-.089.19-.129,8.595-5.541,18.065-3,18.071-2.986a23.446,23.446,0,0,1,5.777,1.914c.3.141.606.309.894.466,5.7,3.09,10.714,8.509,12.512,14.579a28.315,28.315,0,0,1,.925,8.965c-.08,2.72-.27,5.446-.119,8.221a17.942,17.942,0,0,0,2.6,4.983,1.626,1.626,0,0,1,.113.19,6.94,6.94,0,0,1,.463.753c-1.014-1.5-8.291-5.648-9.085-6.089a.254.254,0,0,0-.064-.025c-2.931-1.437-5.7-3.2-8.745-4.53-9.143-4.022-19.982-6.42-29.842-7.918a27.683,27.683,0,0,0-4.178-.3c-.723,0-1.44.04-2.165.092-.668.052-1.237-.006-1.709.524C45.854,237.71,46.647,236.586,47.226,235.471Z" transform="translate(59.83 -216.616)" fill="#705449"/>
          <path id="Path_8271" data-name="Path 8271" d="M81.884,332.566a.412.412,0,0,0,.417-.389c.741-14.776-17.563-59.053-18.344-60.934a.412.412,0,0,0-.757.325c.187.45,19.012,45.978,18.28,60.563a.41.41,0,0,0,.392.435Z" transform="translate(26.661 -104.434)" fill="#cfad7a"/>
          <path id="Path_8272" data-name="Path 8272" d="M66.353,267.838a.4.4,0,0,0,.38-.236c.38-.8,9.177-19.881,8.987-27.6a.413.413,0,0,0-.407-.4H75.3a.4.4,0,0,0-.4.42c.187,7.538-8.821,27.043-8.913,27.236a.416.416,0,0,0,.205.551A.349.349,0,0,0,66.353,267.838Z" transform="translate(24.742 -169.212)" fill="#fff"/>
          <path id="Path_8273" data-name="Path 8273" d="M54.557,240.329c1.044-1.6,2.463-2.934,3.568-4.509a13.653,13.653,0,0,0,2.407-8.763c-.092-1.182-.3-2.5.429-3.43.8-1.017,2.288-1.078,3.584-1.026,3.026.126,6.058.273,9.075.46,1.562.1,3.3.291,4.3,1.482a3.585,3.585,0,0,1,.787,2.3c.052.129.1.254.147.383a6.59,6.59,0,0,1,.07,2.885,26.885,26.885,0,0,1-6.87,14.371,17.208,17.208,0,0,1-7.9,5.136,10.024,10.024,0,0,1-9.008-1.737,5.39,5.39,0,0,1-1.587-2.123A6.176,6.176,0,0,1,54.557,240.329Z" transform="translate(60.231 -204.297)" fill="#705449"/>
          <path id="Path_8274" data-name="Path 8274" d="M63.895,248.446s-7.82-5.97-4.827-17.446l-2.169.2S53.435,244.722,63.895,248.446Z" transform="translate(65.974 -186.943)" fill="#705449"/>
          <g id="Group_3423" data-name="Group 3423" transform="translate(72.363 223.458)">
            <path id="Path_8275" data-name="Path 8275" d="M62.055,300.056a13.181,13.181,0,0,0,1.112,5.434c3.636,9.743,12.089,15.073,19.2,5.268,3.3-4.555,6.692-11.762,3.43-17.192C80.833,285.278,62.719,291.091,62.055,300.056Z" transform="translate(-47.04 -289.572)" fill="#705449"/>
            <path id="Path_8276" data-name="Path 8276" d="M70.172,291.788c-.208,1.7.083,3.881-.585,5.522,5.137,2.527,16.959,1.945,16.959,1.945l-.279-5.6C81.125,295.127,72.135,293.114,70.172,291.788Z" transform="translate(-69.587 -285.001)" fill="#705449"/>
          </g>
          <path id="Path_8277" data-name="Path 8277" d="M75.379,318.815a.411.411,0,0,0,.361-.208c2.466-4.245,14.99-23.826,15.112-24.029a.4.4,0,0,0-.123-.564.405.405,0,0,0-.567.119c-.129.2-12.662,19.8-15.14,24.059a.414.414,0,0,0,.153.564A.369.369,0,0,0,75.379,318.815Z" transform="translate(-18.089 -57.089)" fill="#cfad7a"/>
        </g>
      </g>
    </g>
  </g>
</svg>
