<svg xmlns="http://www.w3.org/2000/svg" width="31.282" height="21.94" viewBox="0 0 31.282 21.94">
  <g id="inventorymovement" transform="translate(-13.924 -434.03)">
    <g id="Group_1011" data-name="Group 1011" transform="translate(13.924 434.468)">
      <path id="Path_3091" data-name="Path 3091" d="M1321.779-145.236l.7-.4c.315-.182.628-.369.945-.547a.383.383,0,0,1,.541.126.372.372,0,0,1-.149.534q-1.079.634-2.166,1.253a.532.532,0,0,1-.568-.065q-.9-.536-1.792-1.073c-1.569-.945-3.135-1.894-4.708-2.835a.537.537,0,0,1-.291-.519q.006-3.549,0-7.1a.6.6,0,0,1,.367-.594q3.237-1.6,6.463-3.231a.54.54,0,0,1,.533-.005q3.278,1.648,6.56,3.286c.073.037.145.075.217.113a.272.272,0,0,1,.153.274c-.005.784-.012,1.569,0,2.353a.414.414,0,0,1-.584.419.344.344,0,0,1-.253-.374c0-.508,0-1.017,0-1.525v-.228a1.586,1.586,0,0,0-.152.065q-2.84,1.611-5.68,3.22a.25.25,0,0,0-.156.245q.008,3.2.005,6.4C1321.767-145.387,1321.773-145.333,1321.779-145.236ZM1327.293-156a.5.5,0,0,0-.066-.055q-2.86-1.431-5.723-2.856a.308.308,0,0,0-.24.007q-2.831,1.406-5.656,2.823a1.155,1.155,0,0,0-.114.077c.056.036.1.065.139.09q2.791,1.583,5.58,3.169a.313.313,0,0,0,.357,0q2.288-1.306,4.582-2.6C1326.528-155.567,1326.9-155.782,1327.293-156ZM1321-145.268c.007-.061.013-.085.013-.109q0-3.247-.007-6.5a.3.3,0,0,0-.14-.207q-2.835-1.619-5.676-3.227c-.036-.021-.076-.035-.133-.061,0,.072-.011.126-.011.18q0,3.078,0,6.156a.286.286,0,0,0,.164.281q2.662,1.6,5.319,3.2C1320.675-145.457,1320.826-145.37,1321-145.268Z" transform="translate(-1314.29 159.983)" fill="#da251c"/>
      <path id="Path_3092" data-name="Path 3092" d="M1322.781-131.658a1.3,1.3,0,0,1,.181.08q1.081.645,2.159,1.3a.368.368,0,0,1,.159.541.365.365,0,0,1-.54.1q-1.09-.648-2.177-1.3a.363.363,0,0,1-.193-.443A.39.39,0,0,1,1322.781-131.658Z" transform="translate(-1320.555 138.145)" fill="#fff"/>
    </g>
    <path id="Path_3087" data-name="Path 3087" d="M1179.051-252.313q0-1.894,0-3.783c0-.9,0-1.8,0-2.7a.5.5,0,0,1,.318-.511q2.466-1.162,4.924-2.34a.583.583,0,0,1,.567.017c1.478.754,2.956,1.508,4.442,2.245a.613.613,0,0,1,.4.647c-.021,2.045-.01,4.09-.01,6.136v.314a3.247,3.247,0,0,1,.594.165c1.505.755,3,1.526,4.507,2.282a.548.548,0,0,1,.339.551q-.008,3.168,0,6.336a.521.521,0,0,1-.311.516c-1.632.873-3.258,1.758-4.892,2.627a.48.48,0,0,1-.39-.005c-1.606-.868-3.2-1.753-4.809-2.624a.547.547,0,0,1-.312-.543c0-1.962,0-3.924.007-5.885,0-.228-.031-.384-.331-.4v.353c0,1.97,0,3.94,0,5.911a.6.6,0,0,1-.356.594c-1.584.857-3.159,1.731-4.745,2.585a.532.532,0,0,1-.433.009c-1.586-.854-3.16-1.728-4.744-2.585a.612.612,0,0,1-.366-.612q.012-3.156,0-6.311a.513.513,0,0,1,.338-.521c1.629-.767,3.253-1.544,4.88-2.315C1178.784-252.224,1178.9-252.259,1179.051-252.313Zm-.657,11.521a.686.686,0,0,0,.024-.1c0-1.82.006-3.64,0-5.46a.344.344,0,0,0-.162-.238c-.52-.3-1.049-.585-1.575-.873-.062-.034-.13-.06-.237-.108v1.175c-.29-.137-.533-.261-.785-.366a.24.24,0,0,1-.163-.269c.008-.3.006-.6,0-.9,0-.073-.026-.183-.077-.213-.379-.221-.768-.425-1.175-.647-.005.073-.011.112-.011.152,0,1.8,0,3.59-.007,5.385a.284.284,0,0,0,.187.283q1.833,1,3.664,2.008C1178.171-240.906,1178.273-240.855,1178.394-240.792Zm1.454-17.338c-.007.081-.014.122-.014.163,0,1.793,0,3.586-.008,5.38,0,.171.089.228.21.294q1.864,1.018,3.727,2.04c.076.042.155.077.253.125.006-.09.012-.147.012-.2,0-1.585-.031-3.17.015-4.754a1,1,0,0,0-.682-1.133,13.154,13.154,0,0,1-1.305-.7v1.188c-.288-.135-.55-.241-.794-.38a.373.373,0,0,1-.155-.262c-.019-.3,0-.6-.01-.9a.3.3,0,0,0-.1-.223C1180.631-257.71,1180.256-257.907,1179.848-258.131Zm9.516,17.341a.852.852,0,0,0,.023-.116c0-1.81.007-3.62,0-5.43a.369.369,0,0,0-.171-.258c-.52-.3-1.049-.582-1.576-.869-.062-.034-.129-.057-.228-.1v1.169c-.282-.132-.526-.254-.777-.358a.254.254,0,0,1-.174-.286c.011-.3.008-.6,0-.9,0-.067-.022-.167-.067-.193-.385-.225-.779-.436-1.188-.662-.006.08-.012.121-.012.162,0,1.793,0,3.587,0,5.38a.287.287,0,0,0,.184.286q1.723.938,3.442,1.885C1188.992-240.986,1189.167-240.895,1189.364-240.79Zm-12.457-7.415c.629.345,1.211.669,1.8.981a.309.309,0,0,0,.245-.026q1.912-1.04,3.817-2.092a1.124,1.124,0,0,0,.137-.109c-.588-.3-1.15-.591-1.72-.867a.356.356,0,0,0-.27.027c-.425.212-.844.436-1.266.656Zm11.617-10.706c-.588-.3-1.132-.57-1.669-.854a.343.343,0,0,0-.366,0c-1.253.66-2.511,1.313-3.766,1.968-.062.033-.121.073-.206.125.584.319,1.143.616,1.692.93a.341.341,0,0,0,.385-.005c1.16-.641,2.324-1.274,3.486-1.911C1188.216-258.73,1188.35-258.811,1188.524-258.91Zm-.653,10.71c.629.343,1.211.666,1.8.973a.342.342,0,0,0,.266-.039q1.876-1.019,3.746-2.05c.062-.034.119-.076.2-.129-.582-.294-1.134-.566-1.678-.854a.32.32,0,0,0-.341.008c-.876.462-1.756.917-2.634,1.376C1188.79-248.686,1188.35-248.452,1187.87-248.2Zm-2.208-1.213c.356.195.688.366,1.008.557a.347.347,0,0,0,.39,0c.669-.357,1.344-.7,2.016-1.054.626-.327,1.251-.655,1.908-1-.313-.16-.6-.3-.873-.45a.381.381,0,0,0-.395,0c-1.276.614-2.556,1.22-3.835,1.83C1185.817-249.5,1185.755-249.463,1185.663-249.413Zm-10.97,0c.4.217.754.423,1.122.608a.331.331,0,0,0,.249-.038q1.884-.976,3.763-1.962c.055-.029.105-.065.181-.112-.3-.152-.578-.281-.844-.433a.394.394,0,0,0-.416-.009c-1.266.611-2.537,1.212-3.807,1.817C1174.87-249.51,1174.8-249.471,1174.693-249.416Zm11.2-10.835c-.338-.171-.615-.325-.9-.449a.464.464,0,0,0-.337,0c-.825.379-1.643.771-2.463,1.161-.53.253-1.059.508-1.631.783.372.205.708.383,1.036.575a.306.306,0,0,0,.34,0c1.082-.572,2.169-1.137,3.254-1.7Z" transform="translate(-1149.927 695.747)" fill="#fff"/>
  </g>
</svg>
