<svg xmlns="http://www.w3.org/2000/svg" width="33.377" height="44.478" viewBox="0 0 33.377 44.478">
  <g id="password" transform="translate(-153.072 530.292)">
    <path id="Path_5796" data-name="Path 5796" d="M157.251-512.273c0-.176,0-.356,0-.536.011-1.907-.047-3.817.046-5.719a12.357,12.357,0,0,1,9.923-11.5A12.463,12.463,0,0,1,182.1-519.811a16.2,16.2,0,0,1,.163,2.343c.024,1.568.007,3.137.007,4.706v.461a13.639,13.639,0,0,1,1.522.362,4.068,4.068,0,0,1,2.65,4.036c.01,2.076,0,4.152,0,6.228q0,5.744,0,11.487a4,4,0,0,1-2.359,3.948,4.48,4.48,0,0,1-1.822.4q-12.5.039-25,.012a4.087,4.087,0,0,1-4.179-4.272c-.017-2.43,0-4.859,0-7.289,0-3.506-.007-7.012,0-10.518a4.076,4.076,0,0,1,3-4.153C156.429-512.155,156.8-512.191,157.251-512.273Zm12.509,2.83H157.581c-1.281,0-1.722.436-1.722,1.713q0,8.719,0,17.438c0,1.241.461,1.7,1.7,1.7h24.4c1.239,0,1.7-.457,1.7-1.7q0-8.742,0-17.484c0-1.217-.458-1.666-1.679-1.666Zm9.709-2.8c0-2.036.056-4.021-.01-6A9.668,9.668,0,0,0,167.7-527.3a9.62,9.62,0,0,0-7.659,9.562c-.016,1.676,0,3.353,0,5.029,0,.148.017.3.027.462Z" fill="#1f1f1f"/>
    <path id="Path_5797" data-name="Path 5797" d="M177.888-476.5a1.726,1.726,0,0,1,0-.23,1.719,1.719,0,0,0-1-2.019,3.95,3.95,0,0,1-1.488-4.913,4.125,4.125,0,0,1,4.4-2.562,4.074,4.074,0,0,1,3.615,3.571,4.119,4.119,0,0,1-2.474,4.364.588.588,0,0,0-.262.436c-.024.875-.006,1.752-.014,2.628a1.328,1.328,0,0,1-1.4,1.476,1.326,1.326,0,0,1-1.371-1.459C177.884-475.64,177.888-476.071,177.888-476.5Zm1.359-4.211a1.3,1.3,0,0,0,1.412-1.351,1.323,1.323,0,0,0-1.358-1.417,1.318,1.318,0,0,0-1.41,1.362A1.3,1.3,0,0,0,179.248-480.713Z" transform="translate(-9.514 -19.018)" fill="#1f1f1f"/>
  </g>
</svg>
