<svg xmlns="http://www.w3.org/2000/svg" width="1.917" height="1.578" viewBox="0 0 1.917 1.578">
  <path id="Path_16235" data-name="Path 16235" d="M612.964,349.477a3.462,3.462,0,0,1,.2-.525.431.431,0,0,1,.5-.214c.288.064.574.136.857.219a.494.494,0,0,1,.359.572c-.018.125-.033.251-.059.375a.49.49,0,0,1-.6.386c-.293-.067-.585-.14-.875-.221A.522.522,0,0,1,612.964,349.477Zm1.536-.042c-.032-.029-.082-.1-.149-.127-.152-.054-.314-.084-.471-.124-.413-.1-.41-.1-.519.307-.034.129,0,.2.128.226.176.042.352.082.526.131C614.495,349.982,614.42,349.944,614.5,349.435Z" transform="translate(-612.964 -348.726)" fill="#fff"/>
</svg>
