<svg xmlns="http://www.w3.org/2000/svg" width="1.704" height="1.388" viewBox="0 0 1.704 1.388">
  <path id="Path_16236" data-name="Path 16236" d="M619.074,333.273l.761.187a.078.078,0,0,1,.017.007c.272.139.339.432.193.845a.5.5,0,0,1-.588.338q-.319-.063-.635-.143a.5.5,0,0,1-.391-.633,1.788,1.788,0,0,1,.09-.293A.524.524,0,0,1,619.074,333.273Zm.662.614c-.024-.019-.067-.079-.122-.094-.185-.052-.373-.091-.561-.13-.221-.046-.189.145-.237.26s.008.194.128.221c.141.032.282.06.422.093C619.646,334.3,619.739,334.226,619.736,333.887Z" transform="translate(-618.416 -333.273)" fill="#fff"/>
</svg>
