<svg xmlns="http://www.w3.org/2000/svg" width="21.737" height="21.983" viewBox="0 0 21.737 21.983">
  <g id="pendingconfirmations" transform="translate(-190.194 -312.868)">
    <path id="Path_3093" data-name="Path 3093" d="M206.223,312.868c.071.019.144.034.214.056a1.146,1.146,0,0,1,.817,1.063c.012.578.005,1.156.006,1.734,0,.507,0,1.015,0,1.522a.586.586,0,1,1-1.172-.009q0-1.516,0-3.033v-.143h-14.7V333.62h6.493a.588.588,0,0,1,.133,1.167,1.419,1.419,0,0,1-.2.011h-6.334a1.179,1.179,0,0,1-1.268-1c0-.007-.008-.012-.013-.018V313.9c.008-.028.016-.056.023-.085a1.138,1.138,0,0,1,.592-.8,2.932,2.932,0,0,1,.415-.149Z" transform="translate(0)" fill="#fff"/>
    <path id="Path_3095" data-name="Path 3095" d="M277.141,409.344c-.185-.021-.37-.039-.554-.064a6.679,6.679,0,0,1-4.047-2.074,6.469,6.469,0,0,1-1.791-3.7,6.662,6.662,0,0,1,2.317-6.152,6.478,6.478,0,0,1,3.6-1.588,6.8,6.8,0,0,1,7.412,5.021c.107.409.142.836.211,1.254.005.033.013.065.019.1v.784c-.007.04-.015.08-.02.12-.027.218-.042.438-.08.654a6.7,6.7,0,0,1-2.229,3.961,6.627,6.627,0,0,1-3.575,1.626c-.188.025-.376.043-.564.065Zm5.982-6.81a5.633,5.633,0,1,0-5.654,5.628A5.638,5.638,0,0,0,283.122,402.534Z" transform="translate(-72.373 -74.492)" fill="#da251c"/>
    <path id="Path_3096" data-name="Path 3096" d="M226.086,355.475h4.9a.588.588,0,0,1,.125,1.168,1.3,1.3,0,0,1-.156.009h-9.738a.6.6,0,0,1-.647-.44.586.586,0,0,1,.532-.736c.142-.006.283,0,.425,0Z" transform="translate(-27.298 -38.311)" fill="#fff"/>
    <path id="Path_3097" data-name="Path 3097" d="M223.309,397.687c.712,0,1.425,0,2.137,0a.588.588,0,0,1,.425.994.616.616,0,0,1-.486.184q-1.214,0-2.428,0c-.586,0-1.171,0-1.757,0a.589.589,0,1,1-.028-1.178C221.885,397.685,222.6,397.687,223.309,397.687Z" transform="translate(-27.317 -76.267)" fill="#fff"/>
    <path id="Path_3098" data-name="Path 3098" d="M222.466,441.079c-.44,0-.881,0-1.321,0a.589.589,0,0,1-.571-.77.583.583,0,0,1,.557-.408q1.338-.005,2.675,0a.589.589,0,1,1-.009,1.178C223.354,441.083,222.91,441.079,222.466,441.079Z" transform="translate(-27.291 -114.223)" fill="#fff"/>
    <path id="Path_3099" data-name="Path 3099" d="M222.484,483.3c-.448,0-.9,0-1.343,0a.587.587,0,0,1-.178-1.145.746.746,0,0,1,.22-.032q1.3,0,2.6,0a.591.591,0,1,1,0,1.179Z" transform="translate(-27.303 -152.193)" fill="#fff"/>
    <path id="Path_3100" data-name="Path 3100" d="M320.708,430.854a3.665,3.665,0,0,1-1.588,3.351l.123.1a4.561,4.561,0,0,1,1.179,1.457,2.867,2.867,0,0,1,.3,1.306c0,.158,0,.316,0,.482H315.7a3.31,3.31,0,0,1,.338-1.881A4.933,4.933,0,0,1,317.3,434.2a3.656,3.656,0,0,1-1.588-3.351Zm-1.108,1.04h-2.775a.231.231,0,0,0,.007.052c.037.091.071.185.116.272a3.785,3.785,0,0,0,1.214,1.329.109.109,0,0,0,.1,0,4.25,4.25,0,0,0,.975-.945A2.368,2.368,0,0,0,319.6,431.894Zm.019,4.623c-.084-.172-.148-.331-.234-.477a3.95,3.95,0,0,0-1.039-1.113c-.137-.105-.138-.107-.278,0a3.708,3.708,0,0,0-1.128,1.277c-.049.1-.086.2-.133.313Z" transform="translate(-112.839 -106.091)" fill="#fff"/>
  </g>
</svg>
