<svg xmlns="http://www.w3.org/2000/svg" width="23.483" height="23.484" viewBox="0 0 23.483 23.484">
  <g id="print" transform="translate(-1766.833 -314.758)">
    <g id="Group_8639" data-name="Group 8639">
      <path id="Path_13043" data-name="Path 13043" d="M2707.11,1216.232h-11.737a.5.5,0,0,0-.083-.035,2.054,2.054,0,0,1-1.7-2.125q0-1.385,0-2.771v-.25c-.24,0-.446,0-.651,0a3.448,3.448,0,0,1-3.316-2.565c-.041-.153-.075-.307-.113-.461V1201.7a.355.355,0,0,0,.037-.08,3.43,3.43,0,0,1,3.511-2.946h.532v-.278c0-.772-.01-1.544,0-2.315a3.412,3.412,0,0,1,3.281-3.312q4.366-.039,8.733,0a3.354,3.354,0,0,1,3.239,2.919c.091.893.042,1.8.055,2.7,0,.089,0,.178,0,.288.26,0,.5,0,.73,0a3.428,3.428,0,0,1,3.344,3.324q.031,2.865,0,5.73a3.406,3.406,0,0,1-2.938,3.279c-.368.047-.742.043-1.136.064v.247c0,.963.007,1.926,0,2.888a2.047,2.047,0,0,1-1.37,1.9C2707.389,1216.158,2707.248,1216.191,2707.11,1216.232Zm1.8-6.556h.554a2.063,2.063,0,0,0,2.139-2.137q0-2.67,0-5.34a2.061,2.061,0,0,0-2.148-2.15q-8.216,0-16.432,0a2.059,2.059,0,0,0-2.141,2.134q0,2.681,0,5.363a2.275,2.275,0,0,0,.071.588,2.158,2.158,0,0,0,2.615,1.515v-2.266c-.153,0-.29.006-.427,0a.686.686,0,0,1-.1-1.358,1.535,1.535,0,0,1,.3-.014h15.813c.053,0,.107,0,.16,0a.687.687,0,1,1,0,1.374c-.134,0-.268,0-.4,0Zm-13.948-2.283v6.646a.712.712,0,0,0,.809.818h10.93c.565,0,.823-.26.823-.827q0-3.2,0-6.393v-.244Zm.009-8.736h12.548c0-.886.029-1.757-.008-2.625a1.992,1.992,0,0,0-1.682-1.853,7.036,7.036,0,0,0-1.073-.043q-3.849,0-7.7,0a2.02,2.02,0,0,0-2.077,1.857c-.057.88-.012,1.767-.012,2.663Z" transform="translate(-922.672 -877.99)" fill="#da251c"/>
      <path id="Path_16121" data-name="Path 16121" d="M414.664-199.01a.384.384,0,0,1-.161-.359c.011-.154.08-.266.183-.29a.426.426,0,0,1,.1-.007h7c.021,0,.041,0,.062,0,.119.01.2.111.219.274a.367.367,0,0,1-.14.363.141.141,0,0,0-.019.02Z" transform="translate(1359.926 531.411)" fill="#5d5c5c"/>
      <path id="Path_16122" data-name="Path 16122" d="M414.664-199.035a.364.364,0,0,1-.161-.346.281.281,0,0,1,.183-.28.441.441,0,0,1,.1-.007h7c.021,0,.041,0,.062,0,.119.009.2.107.219.264a.347.347,0,0,1-.14.35.138.138,0,0,0-.019.019Z" transform="translate(1359.926 532.921)" fill="#5d5c5c"/>
      <path id="Path_16123" data-name="Path 16123" d="M414.594-199.014a.532.532,0,0,1-.092-.358c.006-.153.046-.264.1-.289a.142.142,0,0,1,.057-.007h3.991a.254.254,0,0,1,.035,0c.068.01.114.111.125.273a.523.523,0,0,1-.08.361.136.136,0,0,0-.011.02Z" transform="translate(1355.554 526.168)" fill="#5d5c5c"/>
    </g>
  </g>
</svg>
