<svg xmlns="http://www.w3.org/2000/svg" width="31.282" height="31.347" viewBox="0 0 31.282 31.347">
  <g id="procurement" transform="translate(-858.71 -85.383)">
    <path id="Path_16227" data-name="Path 16227" d="M874.073,87.882c.093-.148.167-.274.248-.4a1,1,0,0,1,1.353-.352.463.463,0,0,0,.614-.041.6.6,0,0,1,.162-.1c.377-.163.681-.328.7-.849a.883.883,0,0,1,.919-.755c.568-.012,1.137-.014,1.706,0a.986.986,0,0,1,.975,1.028c0,.21.045.341.261.385a.429.429,0,0,1,.142.067,1.132,1.132,0,0,0,1.279.178.884.884,0,0,1,1.1.453c.264.418.52.841.771,1.267a.971.971,0,0,1-.38,1.45c-.181.1-.282.2-.213.413a.637.637,0,0,1,.012.251c-.042.4-.052.723.415.962a.846.846,0,0,1,.219,1.184c-.268.476-.553.944-.851,1.4a.982.982,0,0,1-1.332.331.463.463,0,0,0-.615.037.67.67,0,0,1-.189.113c-.375.156-.653.33-.67.832a.89.89,0,0,1-.917.758c-.272.011-.545,0-.811,0-.076.623-.1,1.234-.229,1.825a9.933,9.933,0,0,1-7.051,7.844.421.421,0,0,0-.357.5c.023.641.007,1.283.007,1.836a2.864,2.864,0,0,1,.789.557,1.69,1.69,0,0,1,.212.89c.018,1.864.01,3.728.009,5.591a1.037,1.037,0,0,1-1.182,1.181q-2.369,0-4.739,0a1.03,1.03,0,0,1-1.156-1.143q0-2.89,0-5.781a1.055,1.055,0,0,1,1.009-1.183c0-.736.007-1.48-.012-2.224,0-.068-.167-.161-.271-.192a9.97,9.97,0,0,1-4.9-3.187,10.1,10.1,0,0,1,5.526-16.364,9.925,9.925,0,0,1,7.168,1.072ZM877.91,96.5a9.1,9.1,0,1,0-9.084,9.113A9.105,9.105,0,0,0,877.91,96.5ZM866.3,115.7h5.016v-6.043H866.3Zm10.266-25.721c.985-1.429,2.048-1.873,3.306-1.368a2.532,2.532,0,0,1,1.56,2.715c-.229,1.378-1.172,2.07-2.94,2.157l.41,2h.822c.069-.853.13-.934.888-1.308a4.393,4.393,0,0,0,.569-.337,1.093,1.093,0,0,1,1.245-.07c.069.038.145.065.227.1l.817-1.3a1.418,1.418,0,0,0-.12-.077.987.987,0,0,1-.657-1.152,5.579,5.579,0,0,0-.011-.85.986.986,0,0,1,.487-.987c.1-.059.193-.117.308-.187l-.81-1.289c-.093.044-.151.067-.2.1a1.132,1.132,0,0,1-1.327-.077,5.386,5.386,0,0,0-.772-.422,1,1,0,0,1-.62-.944c0-.09-.012-.181-.018-.262h-1.606c-.006.073-.015.123-.014.174a1.062,1.062,0,0,1-.713,1.078,6.616,6.616,0,0,0-.794.448,1.063,1.063,0,0,1-1.108.059c-.091-.046-.183-.089-.292-.142l-.256.411Zm3.871.976a1.52,1.52,0,0,0-1.5-1.516,1.474,1.474,0,0,0-1.514,1.52,1.508,1.508,0,1,0,3.015,0Zm-10.126,15.612h-2.99v2.063h2.99Z" fill="#fff"/>
    <path id="Path_16228" data-name="Path 16228" d="M972.942,174.313v1.935q0,2.448,0,4.9c0,.608-.14.75-.735.751h-2.559c-.607,0-.749-.139-.749-.736q0-3.238,0-6.476v-.37a6.339,6.339,0,0,1-.935-.012.915.915,0,0,1-.513-.279c-.156-.179-.059-.4.077-.577q1.47-1.957,2.941-3.913a.52.52,0,0,1,.916.011c.977,1.294,1.954,2.587,2.911,3.9a.8.8,0,0,1,.1.575c-.053.242-.29.3-.531.3C973.569,174.309,973.275,174.313,972.942,174.313Zm-4.032-1.025c.108.007.158.013.209.014.678.012.79.124.79.79v6.776h2.022v-.323q0-1.469,0-2.938,0-1.8,0-3.6c0-.545.152-.7.686-.7.088,0,.176-.01.312-.018l-2.007-2.676Z" transform="translate(-84.416 -65.166)" fill="#fff"/>
    <path id="Path_16229" data-name="Path 16229" d="M947.029,203.7c0-.705,0-1.411,0-2.116,0-.454.177-.63.631-.631q1.39,0,2.78,0c.454,0,.631.178.632.631q0,2.148,0,4.3c0,.453-.179.631-.631.632q-1.39,0-2.78,0c-.453,0-.63-.178-.631-.631C947.027,205.153,947.029,204.427,947.029,203.7Zm1.024,1.778h1.983v-3.5h-1.983Z" transform="translate(-68.613 -89.783)" fill="#fff"/>
    <path id="Path_16230" data-name="Path 16230" d="M883.912,107.112A8.087,8.087,0,1,1,875.863,99,8.095,8.095,0,0,1,883.912,107.112Zm-15.164-.014a7.076,7.076,0,1,0,7.124-7.085A7.086,7.086,0,0,0,868.748,107.1Z" transform="translate(-7.013 -10.58)" fill="#da251c"/>
    <path id="Path_16231" data-name="Path 16231" d="M885.858,121.139q0-1.674,0-3.349c0-.5.167-.663.662-.664h6.761c.5,0,.664.168.664.662q0,3.381,0,6.761c0,.5-.168.664-.663.664h-6.76c-.5,0-.663-.168-.664-.663Q885.856,122.845,885.858,121.139Zm7.056,3.051v-6.029H890.4v1.472h-1.014v-1.48h-2.5v6.037Z" transform="translate(-21.09 -24.661)" fill="#fff"/>
  </g>
</svg>
