<svg xmlns="http://www.w3.org/2000/svg" width="31.282" height="19.79" viewBox="0 0 31.282 19.79">
  <g id="procurement" transform="translate(-1710 -317.605)">
    <path id="Path_13036" data-name="Path 13036" d="M3611.646,271.024a.645.645,0,0,1,.625-.349c1.476.006,2.952,0,4.428,0a1.273,1.273,0,0,1,.153.005.5.5,0,0,1,.473.5.476.476,0,0,1-.5.466c-.58.01-1.16,0-1.741,0h-.35v1.12h1.011c.53,0,1.059-.007,1.589,0a.293.293,0,0,0,.315-.209,3.1,3.1,0,0,1,5.691-.008.3.3,0,0,0,.312.216q4.872-.008,9.743,0c.049,0,.1-.008.191-.015v-.332c0-1.069-.011-2.138.011-3.207a.794.794,0,0,1,.243-.544c.3-.242.717.024.722.448.008.743,0,1.486,0,2.23,0,.387-.006.774,0,1.161a.88.88,0,0,0,.09.255c.074-.066.179-.117.218-.2a3.1,3.1,0,0,1,5.674-.065.379.379,0,0,0,.428.276c.312-.022.626-.006.954-.006v-2.168c-.211,0-.412.008-.612,0a1.507,1.507,0,0,1-1.454-1.48c-.01-.346-.009-.692,0-1.038a.489.489,0,0,1,.553-.542c.466-.007.932,0,1.4,0a1.383,1.383,0,0,0-1.263-1.085c-1.983-.028-3.967-.01-5.992-.01,0,.182.006.352,0,.521a.484.484,0,0,1-.46.509.494.494,0,0,1-.514-.493c-.008-.091,0-.183,0-.275v-8.62h-18.874V266.7c0,.092,0,.183,0,.275a.485.485,0,0,1-.47.5.5.5,0,0,1-.5-.474,2.577,2.577,0,0,1,0-.275v-8.4c0-.858.373-1.235,1.222-1.235h18.387c.86,0,1.222.364,1.223,1.226v.845c.134.006.242.015.35.015,1.049,0,2.1.02,3.146,0a2.146,2.146,0,0,1,2.231,2.668c-.021.162-.2.3-.337.507.235.94.485,1.956.75,2.968a.352.352,0,0,0,.219.2,2.58,2.58,0,0,1,2,2.586q.006,2.5,0,5.009c0,.472-.167.635-.648.638s-.933,0-1.426,0a3.172,3.172,0,0,1-1.292,2.531,3.015,3.015,0,0,1-2.007.595,3.14,3.14,0,0,1-2.94-3.1h-11a3.135,3.135,0,0,1-1.388,2.575,2.972,2.972,0,0,1-2,.518,3.139,3.139,0,0,1-2.845-3.106c-.093,0-.19-.013-.288-.013-.57,0-1.141-.025-1.71,0-1.283.066-1.74-.276-1.65-1.67.008-.13,0-.262,0-.433-.49,0-.956-.013-1.42,0a.665.665,0,0,1-.665-.33Zm28.045-5.579a1.759,1.759,0,0,0-.024-.2c-.226-.907-.46-1.811-.675-2.721-.05-.211-.141-.27-.351-.269-1.261.009-2.523,0-3.785.006-.088,0-.177.013-.275.021v3.162Zm-1.945,10.462a2.122,2.122,0,1,0-2.136-2.1,2.122,2.122,0,0,0,2.136,2.1Zm-17.264,0a2.122,2.122,0,1,0-2.111-2.128,2.123,2.123,0,0,0,2.111,2.128Zm18.823-14.65a1.036,1.036,0,0,0-1.105-1.09c-1.139-.007-2.278,0-3.417,0a1.4,1.4,0,0,0-.2.029v1.062Zm2.621,7.285h-1.056c-.144.928.151,1.227,1.075,1.034,0-.3,0-.6,0-.908A.912.912,0,0,0,3641.926,268.543Z" transform="translate(-1901.645 60.508)" fill="#da251c"/>
  </g>
</svg>
