<svg xmlns="http://www.w3.org/2000/svg" width="115.37" height="129.632" viewBox="0 0 115.37 129.632">
  <g id="reasonforrejection" transform="translate(0 0.5)">
    <circle id="Ellipse_80" data-name="Ellipse 80" cx="49.749" cy="49.749" r="49.749" transform="translate(15.372)" fill="none" stroke="#f2f2f2" stroke-width="1"/>
    <path id="Path_12728" data-name="Path 12728" d="M497.228,218.64H406.094a.354.354,0,0,1,0-.708h91.134a.354.354,0,1,1,0,.708Z" transform="translate(-399.596 -196.392)" fill="#cacaca"/>
    <ellipse id="Ellipse_81" data-name="Ellipse 81" cx="2.074" cy="2.12" rx="2.074" ry="2.12" transform="translate(10.481 15.494)" fill="#fff"/>
    <ellipse id="Ellipse_82" data-name="Ellipse 82" cx="2.074" cy="2.12" rx="2.074" ry="2.12" transform="translate(17.645 15.494)" fill="#fff"/>
    <ellipse id="Ellipse_83" data-name="Ellipse 83" cx="2.074" cy="2.12" rx="2.074" ry="2.12" transform="translate(24.809 15.494)" fill="#fff"/>
    <path id="Path_12729" data-name="Path 12729" d="M828.344,189.744h-5.089a.385.385,0,1,0,0,.771h5.089a.385.385,0,1,0,0-.771Z" transform="translate(-735.026 -173.725)" fill="#fff"/>
    <path id="Path_12730" data-name="Path 12730" d="M828.344,197.129h-5.089a.385.385,0,1,0,0,.771h5.089a.385.385,0,1,0,0-.771Z" transform="translate(-735.026 -179.663)" fill="#fff"/>
    <path id="Path_12731" data-name="Path 12731" d="M828.344,204.5h-5.089a.385.385,0,1,0,0,.771h5.089a.385.385,0,1,0,0-.771Z" transform="translate(-735.026 -185.593)" fill="#fff"/>
    <rect id="Rectangle_10248" data-name="Rectangle 10248" width="32.045" height="6.853" rx="3.426" transform="translate(49.665 28.816)" fill="#fff"/>
    <rect id="Rectangle_10249" data-name="Rectangle 10249" width="64.595" height="6.853" rx="3.426" transform="translate(33.39 42.521)" fill="#fff"/>
    <rect id="Rectangle_10250" data-name="Rectangle 10250" width="64.595" height="6.853" rx="3.426" transform="translate(33.39 56.226)" fill="#fff"/>
    <path id="Path_12732" data-name="Path 12732" d="M408.784,699.739l-.136-.013a15.773,15.773,0,0,1-11.4-6.781,15.3,15.3,0,0,1-1.727-3.428l-.041-.115.122-.01c1.459-.117,2.957-.365,3.623-.483l-4.292-1.454-.027-.127a2.991,2.991,0,0,1,1.259-3.107,3.042,3.042,0,0,1,3.409-.058c.467.3.956.594,1.429.88a19.859,19.859,0,0,1,4.563,3.389,9.534,9.534,0,0,1,2.278,7.885Z" transform="translate(-390.834 -570.908)" fill="#b9b9b9"/>
    <path id="Path_12733" data-name="Path 12733" d="M171.3,613.358h2.115l1.007-8.16H171.3Z" transform="translate(-137.749 -486.662)" fill="#feb8b8"/>
    <path id="Path_12734" data-name="Path 12734" d="M545.3,751.65H551.8v-.082a2.532,2.532,0,0,0-2.532-2.532h0l-1.188-.9-2.217.9H545.3Z" transform="translate(-511.818 -622.747)" fill="#fff"/>
    <path id="Path_12735" data-name="Path 12735" d="M84.745,590.146l1.692,1.269,5.7-5.923-2.5-1.874Z" transform="translate(-68.146 -469.31)" fill="#feb8b8"/>
    <path id="Path_12736" data-name="Path 12736" d="M452.051,725.1l5.2,3.9.049-.066a2.532,2.532,0,0,0-.506-3.545h0l-.409-1.434-2.315-.609-.454-.341Z" transform="translate(-436.836 -602.543)" fill="#fff"/>
    <path id="Path_12737" data-name="Path 12737" d="M475.341,532.4s.117,3.186.264,5.74c.024.419-.957.874-.932,1.33.017.3.2.6.218.912.018.333-.237.627-.218.971s.308.722.326,1.066c.189,3.7.872,8.137.188,9.377-.337.611-4.639,9.073-4.639,9.073s2.4,3.6,3.081,2.4c.9-1.583,7.875-8.988,7.875-10.4s1.613-12,1.613-12l1.124,6.264.516,1.241-.162.729.333.983.018.973.324,1.807s-.976,14.079-.426,14.471,3.22,1.1,3.535.394,2.352-14.694,2.352-14.694.329-6.409.685-12.367c.02-.346.264-.763.282-1.1.022-.4-.132-.909-.111-1.293.022-.44.217-.75.236-1.171a24.293,24.293,0,0,0-.932-7.608c-.786-1.178-1.493-2.119-1.493-2.119s-10.584-3.477-13.412.056Z" transform="translate(-451.71 -443.993)" fill="#e9e9e9"/>
    <path id="Path_12738" data-name="Path 12738" d="M506.179,388.616l-4.2-.839-1.958,2.657h0c-3.653,3.592-3.708,6.763-3.056,11.845v7.133l-.472,4.781s-1.671,3.5.052,4.309,13.044.744,14.125.42.144-.724-.14-2.238c-.533-2.844-.177-1.472-.14-2.377.526-12.988-.7-18.321-.824-19.722l-2.134-3.87Z" transform="translate(-471.993 -332.971)" fill="#c4c3ca"/>
    <path id="Path_12739" data-name="Path 12739" d="M614.175,435.218a1.7,1.7,0,0,1-2.543.546l-9.061,5.753.026-3.132,8.8-5.108a1.705,1.705,0,0,1,2.776,1.941Z" transform="translate(-557.876 -369.1)" fill="#feb8b8"/>
    <path id="Path_12740" data-name="Path 12740" d="M515.423,410.073l-1.031-.109a2.729,2.729,0,0,0-2.464,1.075,2.661,2.661,0,0,0-.465.978v0a2.727,2.727,0,0,0,1.03,2.836l3.563,2.627c2.5,3.378,7.2,5.62,12.711,7.441l8.568-5.321-3.03-3.67-5.877,3.149-8.735-6.762-.005,0-3.325-2.142Z" transform="translate(-484.549 -350.8)" fill="#c4c3ca"/>
    <circle id="Ellipse_84" data-name="Ellipse 84" cx="4.893" cy="4.893" r="4.893" transform="translate(27.876 43.8)" fill="#feb8b8"/>
    <path id="Path_12741" data-name="Path 12741" d="M541.537,381.548l-.118,0c-.017.044-.035.087-.056.13Z" transform="translate(-508.655 -327.962)" fill="#2f2e41"/>
    <path id="Path_12742" data-name="Path 12742" d="M549.109,357.256a.859.859,0,0,0,.035.142A.673.673,0,0,0,549.109,357.256Z" transform="translate(-514.884 -308.428)" fill="#2f2e41"/>
    <path id="Path_12743" data-name="Path 12743" d="M518.682,328.076c-.2.625-.381-.168-1.044-.025a2.988,2.988,0,0,1-2.377-.376,3.683,3.683,0,0,0-3.373-.514c-1.117.4-2.988.674-3.279,1.822a3.194,3.194,0,0,1-.386,1.163,4.075,4.075,0,0,1-.836.677c-.955.752-.225,2.887.227,4.015a4.423,4.423,0,0,0,2.629,2.371,9.289,9.289,0,0,0,3.478.447,2.639,2.639,0,0,0-.053-1.694,10.713,10.713,0,0,1-.53-1.789,1.731,1.731,0,0,1,.61-1.667,1,1,0,0,1,1.434.389c-.106-.642.545-1.263,1.215-1.373a6.48,6.48,0,0,1,2.158.272C519.274,331.924,519.02,328.9,518.682,328.076Z" transform="translate(-480.958 -284.067)" fill="#2f2e41"/>
    <circle id="Ellipse_85" data-name="Ellipse 85" cx="10.013" cy="10.013" r="10.013" transform="translate(45.096 45.948)" fill="#da251c"/>
    <path id="Path_12744" data-name="Path 12744" d="M639.926,371.057l-2.63,2.63-2.63-2.63a1.09,1.09,0,0,0-1.542,1.542l2.63,2.63-2.63,2.63a1.09,1.09,0,1,0,1.542,1.542l2.63-2.63,2.63,2.63a1.09,1.09,0,0,0,1.542-1.542l-2.63-2.63,2.63-2.63a1.09,1.09,0,0,0-1.542-1.542Z" transform="translate(-582.187 -319.269)" fill="#fff"/>
    <path id="Path_12745" data-name="Path 12745" d="M612.065,345.861a1.7,1.7,0,0,1-1.366,2.213L608.577,358.6l-2.242-2.187,2.408-9.888a1.705,1.705,0,0,1,3.322-.659Z" transform="translate(-560.902 -298.316)" fill="#feb8b8"/>
    <path id="Path_12746" data-name="Path 12746" d="M513.283,380.9l-.793.669a2.729,2.729,0,0,0-.93,2.522,2.661,2.661,0,0,0,.383,1.013l0,0a2.727,2.727,0,0,0,2.76,1.22l4.362-.752c4.169.535,9.039-1.3,14.169-4.021l2.092-9.866-4.746-.354-1.8,6.421-10.927,1.622h-.006l-3.847.916Z" transform="translate(-484.661 -319.749)" fill="#c4c3ca"/>
    <path id="Path_12747" data-name="Path 12747" d="M488.744,765.033l-113.872.06c-.276,0-.5-.1-.5-.233s.223-.233.5-.233l113.872-.06c.276,0,.5.1.5.233S489.02,765.033,488.744,765.033Z" transform="translate(-374.373 -635.961)" fill="#fff"/>
  </g>
</svg>
