<svg xmlns="http://www.w3.org/2000/svg" width="27.986" height="28.054" viewBox="0 0 27.986 28.054">
  <g id="rolesrightmanagement" transform="translate(-22.132 -534.944)">
    <g id="Group_20" data-name="Group 20" transform="translate(33.788 544.767)">
      <g id="Group_19" data-name="Group 19" transform="translate(0 0)">
        <path id="Path_69" data-name="Path 69" d="M89.33,589.608a2.337,2.337,0,1,0,2.337,2.337A2.337,2.337,0,0,0,89.33,589.608Zm0,3.74a1.4,1.4,0,1,1,1.4-1.4A1.4,1.4,0,0,1,89.33,593.348Z" transform="translate(-86.993 -589.608)" fill="#da251c"/>
      </g>
    </g>
    <g id="Group_22" data-name="Group 22" transform="translate(30.983 534.944)">
      <g id="Group_21" data-name="Group 21" transform="translate(0 0)">
        <path id="Path_70" data-name="Path 70" d="M81.361,546.148l-.646-.285c-.025-.09-.052-.177-.081-.262l.359-.62a.468.468,0,0,0,0-.462,5.235,5.235,0,0,0-.673-.94.467.467,0,0,0-.452-.144l-.539.123v-3A2.806,2.806,0,0,0,77.88,538.1a1.87,1.87,0,1,0-2.7,0,2.806,2.806,0,0,0-1.452,2.456v3l-.539-.123a.467.467,0,0,0-.452.144,5.25,5.25,0,0,0-.673.94.468.468,0,0,0,0,.462l.359.62q-.043.125-.08.258l-.672.286a.467.467,0,0,0-.284.43v1.058a.468.468,0,0,0,.284.43l.672.286c.025.089.052.175.08.258l-.359.62a.467.467,0,0,0,0,.462,5.248,5.248,0,0,0,.673.94.467.467,0,0,0,.453.144l.679-.155q.1.078.206.152l.066.72a.467.467,0,0,0,.269.382,5.052,5.052,0,0,0,1.085.364.469.469,0,0,0,.45-.152l.476-.553h.228l.476.553a.468.468,0,0,0,.45.152,5.049,5.049,0,0,0,1.084-.364.467.467,0,0,0,.269-.381l.066-.72q.106-.073.206-.152l.679.155a.466.466,0,0,0,.452-.144,5.263,5.263,0,0,0,.673-.94.468.468,0,0,0,0-.462l-.359-.62q.044-.127.081-.262l.646-.285a.467.467,0,0,0,.279-.428v-1.058A.468.468,0,0,0,81.361,546.148Zm-4.833-10.262a.935.935,0,1,1-.935.935A.935.935,0,0,1,76.528,535.886Zm-1.87,4.674a1.87,1.87,0,1,1,3.74,0v1.675a4.957,4.957,0,0,0-.83-.263.469.469,0,0,0-.45.152l-.476.553h-.228l-.476-.553a.469.469,0,0,0-.45-.152,4.949,4.949,0,0,0-.83.263v-1.675Zm6.046,6.768-.576.254a.468.468,0,0,0-.267.324,3.492,3.492,0,0,1-.176.565.468.468,0,0,0,.028.413l.332.573q-.113.176-.244.341l-.626-.143a.465.465,0,0,0-.414.105,3.429,3.429,0,0,1-.467.345.467.467,0,0,0-.219.355l-.061.668q-.189.074-.376.128l-.429-.5a.467.467,0,0,0-.354-.162H76.2a.468.468,0,0,0-.354.162l-.429.5c-.125-.036-.251-.079-.376-.128l-.061-.667a.468.468,0,0,0-.22-.355,3.437,3.437,0,0,1-.466-.345.465.465,0,0,0-.413-.105l-.626.143q-.131-.166-.244-.341l.332-.574a.467.467,0,0,0,.028-.413,3.472,3.472,0,0,1-.176-.565.467.467,0,0,0-.273-.326l-.6-.256v-.44l.6-.256a.468.468,0,0,0,.273-.326,3.512,3.512,0,0,1,.176-.565.467.467,0,0,0-.028-.413l-.332-.573q.113-.175.244-.341l.626.143a.469.469,0,0,0,.413-.105,3.43,3.43,0,0,1,.467-.345.467.467,0,0,0,.219-.355l.061-.668q.188-.074.377-.128l.428.5a.468.468,0,0,0,.354.162h.656a.469.469,0,0,0,.354-.162l.429-.5c.125.036.251.079.376.128l.061.667a.467.467,0,0,0,.22.355,3.422,3.422,0,0,1,.467.345.468.468,0,0,0,.413.1l.626-.143q.131.166.244.341l-.333.574a.467.467,0,0,0-.027.413,3.508,3.508,0,0,1,.176.565.468.468,0,0,0,.267.324l.576.254v.449Z" transform="translate(-71.386 -534.944)" fill="#fff"/>
      </g>
    </g>
    <g id="Group_24" data-name="Group 24" transform="translate(42.669 555.518)">
      <g id="Group_23" data-name="Group 23">
        <path id="Path_71" data-name="Path 71" d="M138.753,649.436a2.337,2.337,0,1,0,2.337,2.337A2.337,2.337,0,0,0,138.753,649.436Zm0,3.74a1.4,1.4,0,1,1,1.4-1.4A1.4,1.4,0,0,1,138.753,653.176Z" transform="translate(-136.416 -649.436)" fill="#da251c"/>
      </g>
    </g>
    <g id="Group_26" data-name="Group 26" transform="translate(39.864 545.695)">
      <g id="Group_25" data-name="Group 25" transform="translate(0 0)">
        <path id="Path_72" data-name="Path 72" d="M130.783,605.976l-.646-.285q-.038-.135-.081-.262l.359-.62a.467.467,0,0,0,0-.462,5.23,5.23,0,0,0-.673-.94.467.467,0,0,0-.452-.144l-.539.123v-3a2.807,2.807,0,0,0-1.452-2.456,1.87,1.87,0,1,0-2.7,0,2.807,2.807,0,0,0-1.452,2.456v3l-.539-.123a.468.468,0,0,0-.452.143,5.246,5.246,0,0,0-.673.94.467.467,0,0,0,0,.462l.359.62q-.043.125-.08.259l-.672.286a.468.468,0,0,0-.284.43v1.058a.467.467,0,0,0,.284.43l.672.286c.025.089.052.175.08.258l-.359.62a.467.467,0,0,0,0,.462,5.243,5.243,0,0,0,.673.94.466.466,0,0,0,.452.144l.679-.155q.1.078.206.152l.066.72a.468.468,0,0,0,.269.382,5.054,5.054,0,0,0,1.084.364.468.468,0,0,0,.45-.152l.476-.553h.228l.476.553a.468.468,0,0,0,.45.152,5.054,5.054,0,0,0,1.084-.364.468.468,0,0,0,.269-.381l.066-.72c.07-.049.139-.1.206-.152l.679.155a.464.464,0,0,0,.452-.144,5.266,5.266,0,0,0,.673-.94.468.468,0,0,0,0-.462l-.359-.62q.044-.127.081-.262l.646-.285a.468.468,0,0,0,.279-.428V606.4A.467.467,0,0,0,130.783,605.976Zm-4.833-10.262a.935.935,0,1,1-.935.935A.935.935,0,0,1,125.95,595.714Zm-1.87,4.674a1.87,1.87,0,0,1,3.74,0v1.675a4.935,4.935,0,0,0-.83-.263.469.469,0,0,0-.45.152l-.476.553h-.228l-.476-.553a.469.469,0,0,0-.45-.152,4.926,4.926,0,0,0-.83.263v-1.675Zm6.046,6.769-.576.254a.468.468,0,0,0-.267.324,3.488,3.488,0,0,1-.176.565.468.468,0,0,0,.028.413l.333.574q-.113.175-.244.341l-.626-.143a.465.465,0,0,0-.414.1,3.392,3.392,0,0,1-.467.345.468.468,0,0,0-.219.355l-.061.667q-.189.075-.376.128l-.429-.5a.467.467,0,0,0-.354-.162h-.656a.468.468,0,0,0-.354.162l-.429.5c-.125-.036-.251-.078-.376-.128l-.061-.667a.467.467,0,0,0-.22-.355,3.433,3.433,0,0,1-.467-.345.465.465,0,0,0-.413-.1l-.626.143q-.131-.166-.244-.341l.333-.574a.468.468,0,0,0,.027-.413,3.489,3.489,0,0,1-.176-.565.466.466,0,0,0-.273-.326l-.6-.256v-.441l.6-.256a.467.467,0,0,0,.273-.326,3.509,3.509,0,0,1,.176-.565.468.468,0,0,0-.028-.413l-.332-.573q.113-.175.244-.341l.626.143a.467.467,0,0,0,.414-.1,3.434,3.434,0,0,1,.467-.345.467.467,0,0,0,.219-.355l.061-.668q.188-.074.377-.128l.428.5a.468.468,0,0,0,.354.162h.656a.468.468,0,0,0,.354-.162l.429-.5c.125.036.251.078.376.128l.061.667a.468.468,0,0,0,.22.355,3.454,3.454,0,0,1,.467.345.467.467,0,0,0,.413.1l.626-.143q.131.165.244.341l-.333.574a.468.468,0,0,0-.028.413,3.491,3.491,0,0,1,.176.565.468.468,0,0,0,.267.324l.576.254v.449Z" transform="translate(-120.808 -594.772)" fill="#fff"/>
      </g>
    </g>
    <g id="Group_28" data-name="Group 28" transform="translate(24.906 555.518)">
      <g id="Group_27" data-name="Group 27" transform="translate(0)">
        <path id="Path_73" data-name="Path 73" d="M39.907,649.436a2.337,2.337,0,1,0,2.337,2.337A2.337,2.337,0,0,0,39.907,649.436Zm0,3.74a1.4,1.4,0,1,1,1.4-1.4A1.4,1.4,0,0,1,39.907,653.176Z" transform="translate(-37.57 -649.436)" fill="#da251c"/>
      </g>
    </g>
    <g id="Group_30" data-name="Group 30" transform="translate(22.132 545.695)">
      <g id="Group_29" data-name="Group 29" transform="translate(0 0)">
        <path id="Path_74" data-name="Path 74" d="M32.076,605.976l-.646-.285q-.038-.135-.081-.262l.359-.62a.467.467,0,0,0,0-.462,5.243,5.243,0,0,0-.673-.94.468.468,0,0,0-.453-.144l-.539.123v-3a2.806,2.806,0,0,0-1.452-2.456,1.87,1.87,0,1,0-2.7,0,2.807,2.807,0,0,0-1.452,2.456v3l-.539-.123a.468.468,0,0,0-.452.143,5.255,5.255,0,0,0-.673.94.468.468,0,0,0,0,.462l.359.62q-.044.127-.081.262l-.645.285a.468.468,0,0,0-.279.428v1.058a.468.468,0,0,0,.279.428l.646.285q.038.135.081.262l-.359.62a.467.467,0,0,0,0,.462,5.252,5.252,0,0,0,.673.94.466.466,0,0,0,.453.144l.679-.155q.1.078.206.152l.066.72a.468.468,0,0,0,.269.382,5.054,5.054,0,0,0,1.084.364.467.467,0,0,0,.45-.152l.476-.553h.228l.476.553a.468.468,0,0,0,.45.152,5.055,5.055,0,0,0,1.084-.364.467.467,0,0,0,.269-.381l.066-.72q.106-.073.206-.152l.679.155a.466.466,0,0,0,.453-.144,5.266,5.266,0,0,0,.673-.94.468.468,0,0,0,0-.462l-.359-.62q.044-.127.081-.262l.646-.285a.468.468,0,0,0,.279-.428V606.4A.467.467,0,0,0,32.076,605.976Zm-4.833-10.262a.935.935,0,1,1-.935.935A.935.935,0,0,1,27.243,595.714Zm-1.87,4.674a1.87,1.87,0,0,1,3.739,0v1.675a4.929,4.929,0,0,0-.83-.263.468.468,0,0,0-.45.152l-.476.553H27.13l-.476-.553a.469.469,0,0,0-.45-.152,4.926,4.926,0,0,0-.83.263v-1.675Zm6.046,6.769-.576.254a.468.468,0,0,0-.267.324,3.488,3.488,0,0,1-.176.565.468.468,0,0,0,.028.413l.333.574q-.113.175-.244.341l-.626-.143a.465.465,0,0,0-.414.1,3.391,3.391,0,0,1-.467.345.468.468,0,0,0-.219.355l-.061.667q-.189.075-.376.128l-.429-.5a.467.467,0,0,0-.354-.162h-.656a.468.468,0,0,0-.354.162l-.429.5c-.125-.036-.251-.078-.376-.128l-.061-.667a.468.468,0,0,0-.22-.355,3.433,3.433,0,0,1-.467-.345.465.465,0,0,0-.413-.1l-.626.143q-.131-.166-.244-.341l.333-.574a.468.468,0,0,0,.028-.413,3.49,3.49,0,0,1-.176-.565.468.468,0,0,0-.267-.324l-.576-.254v-.449l.576-.254a.468.468,0,0,0,.267-.324,3.483,3.483,0,0,1,.176-.565.468.468,0,0,0-.028-.413l-.332-.573q.113-.175.244-.341l.626.143a.468.468,0,0,0,.414-.1,3.434,3.434,0,0,1,.467-.345.468.468,0,0,0,.219-.355l.061-.668q.188-.074.376-.128l.429.5a.467.467,0,0,0,.354.162h.656a.469.469,0,0,0,.354-.162l.429-.5c.125.036.251.078.376.128l.061.667a.468.468,0,0,0,.22.355,3.433,3.433,0,0,1,.467.345.466.466,0,0,0,.413.1l.626-.143q.131.165.244.341l-.333.574a.468.468,0,0,0-.027.413,3.49,3.49,0,0,1,.176.565.468.468,0,0,0,.267.324l.576.254v.449Z" transform="translate(-22.132 -594.772)" fill="#fff"/>
      </g>
    </g>
    <g id="Group_32" data-name="Group 32" transform="translate(24.749 538.748)">
      <g id="Group_31" data-name="Group 31" transform="translate(0 0)">
        <path id="Path_75" data-name="Path 75" d="M43.157,556.111a12.636,12.636,0,0,0-6.463,6.157l.842.406a11.7,11.7,0,0,1,5.985-5.7Z" transform="translate(-36.694 -556.111)" fill="#da251c"/>
      </g>
    </g>
    <g id="Group_34" data-name="Group 34" transform="translate(32.372 561.474)">
      <g id="Group_33" data-name="Group 33">
        <path id="Path_76" data-name="Path 76" d="M86.543,682.576a11.808,11.808,0,0,1-7.149.063l-.277.893a12.69,12.69,0,0,0,7.72-.069Z" transform="translate(-79.116 -682.576)" fill="#da251c"/>
      </g>
    </g>
    <g id="Group_36" data-name="Group 36" transform="translate(40.557 538.695)">
      <g id="Group_35" data-name="Group 35" transform="translate(0 0)">
        <path id="Path_77" data-name="Path 77" d="M125.017,555.818l-.355.865a11.673,11.673,0,0,1,6.16,5.872l.847-.4A12.606,12.606,0,0,0,125.017,555.818Z" transform="translate(-124.662 -555.818)" fill="#da251c"/>
      </g>
    </g>
  </g>
</svg>
