<svg xmlns="http://www.w3.org/2000/svg" width="27.896" height="22.223" viewBox="0 0 27.896 22.223">
  <g id="updateinventory" transform="translate(-255.947 -692.301)">
    <path id="Path_3078" data-name="Path 3078" d="M269.9,984.02h13.277c.6,0,.732.159.648.756a2.092,2.092,0,0,1-2.133,1.781h-14.88q-4.382,0-8.764,0a2.1,2.1,0,0,1-2.08-1.808c-.074-.559.075-.726.654-.726H269.9Zm13.007.88H256.949c-.008.04-.019.063-.014.08a.536.536,0,0,0,.054.117,1.349,1.349,0,0,0,1.255.611q11.655-.007,23.31,0a2.375,2.375,0,0,0,.261-.005A1.277,1.277,0,0,0,282.9,984.9Z" transform="translate(0 -272.033)" fill="#fff"/>
    <path id="Path_3081" data-name="Path 3081" d="M309.989,721.444c0,.845-.367,1.21-1.217,1.21H289.056a1.037,1.037,0,0,1-1.184-1.181q0-6.2,0-12.392c0-.868.367-1.238,1.229-1.238,5.057,0,9.853,0,14.91,0l.08,0v-.849c-5.107-.009-9.952-.008-15.059-.005a1.863,1.863,0,0,0-2.014,2.021q0,6.246,0,12.492a1.864,1.864,0,0,0,2.02,2.016q9.892,0,19.784,0a1.864,1.864,0,0,0,2.026-2.041c0-2.447,0-4.567,0-7.014l-.856.08C309.99,716.952,309.99,719.035,309.989,721.444Z" transform="translate(-29.036 -13.12)" fill="#fff"/>
    <path id="Path_3082" data-name="Path 3082" d="M352.043,894.149H340.668a.7.7,0,0,0,0,1.392h11.376a.7.7,0,0,0,0-1.392Zm-.034,1.139H340.7a.445.445,0,0,1,0-.885H352.01a.445.445,0,0,1,0,.885Z" transform="translate(-78.595 -188.04)" fill="#fff"/>
    <path id="Path_3083" data-name="Path 3083" d="M355.781,900.96h-5.773a.256.256,0,0,0,0,.5h5.773a.256.256,0,0,0,0-.5Z" transform="translate(-87.719 -194.406)" fill="#da241c"/>
    <rect id="Rectangle_1987" data-name="Rectangle 1987" width="12.364" height="1.165" rx="0.582" transform="translate(261.448 697.608)" fill="#da241c"/>
    <rect id="Rectangle_1988" data-name="Rectangle 1988" width="12.364" height="1.165" rx="0.582" transform="translate(261.448 699.57)" fill="#da241c"/>
    <rect id="Rectangle_1989" data-name="Rectangle 1989" width="12.364" height="1.165" rx="0.582" transform="translate(261.448 701.533)" fill="#da241c"/>
    <g id="Group_1009" data-name="Group 1009" transform="translate(274.641 692.301)">
      <path id="Path_3084" data-name="Path 3084" d="M549,700.581a.55.55,0,0,1-.332-.108c-.138-.1-.276-.2-.413-.3a.073.073,0,0,0-.085-.008c-.141.062-.283.122-.427.177a.088.088,0,0,0-.066.078c-.027.171-.055.343-.087.513a.551.551,0,0,1-.549.454q-.368,0-.737,0a.55.55,0,0,1-.547-.448c-.033-.168-.06-.337-.085-.507a.1.1,0,0,0-.081-.1c-.133-.049-.263-.1-.393-.162a.077.077,0,0,0-.09.006c-.138.1-.279.2-.418.3a.555.555,0,0,1-.726-.055q-.26-.256-.517-.516a.556.556,0,0,1-.057-.736c.1-.136.194-.272.293-.407a.068.068,0,0,0,.007-.08q-.1-.217-.184-.438a.074.074,0,0,0-.067-.054c-.167-.026-.333-.057-.5-.085a.556.556,0,0,1-.482-.565q0-.362,0-.724a.555.555,0,0,1,.472-.554c.167-.028.333-.058.5-.084a.068.068,0,0,0,.061-.052c.058-.15.118-.3.182-.446a.069.069,0,0,0-.011-.079q-.15-.208-.3-.419a.557.557,0,0,1,.061-.736q.255-.257.513-.511a.556.556,0,0,1,.731-.058q.207.147.412.3a.068.068,0,0,0,.079.007c.145-.064.291-.126.438-.185a.074.074,0,0,0,.054-.066c.026-.165.056-.329.084-.494a.558.558,0,0,1,.572-.489h.711a.554.554,0,0,1,.56.472c.03.167.055.334.087.5a.1.1,0,0,0,.05.059c.153.066.309.127.462.193a.068.068,0,0,0,.079-.007q.208-.151.418-.3a.554.554,0,0,1,.73.061q.255.253.507.507a.555.555,0,0,1,.063.735q-.146.208-.3.413a.074.074,0,0,0-.008.085c.062.141.122.283.177.427a.089.089,0,0,0,.079.066c.171.027.343.055.513.087a.543.543,0,0,1,.45.544q0,.368,0,.736a.551.551,0,0,1-.458.552c-.17.032-.342.059-.513.086a.079.079,0,0,0-.071.058c-.057.146-.117.29-.18.433a.077.077,0,0,0,.01.09c.1.133.192.268.288.4a.558.558,0,0,1-.064.75l-.5.5A.553.553,0,0,1,549,700.581Zm-5.975-3.758c0,.01-.007.014-.007.018,0,.228,0,.457,0,.685,0,.015.028.039.046.042.221.04.441.079.663.114a.291.291,0,0,1,.257.229,2.466,2.466,0,0,0,.273.654.321.321,0,0,1-.019.4c-.136.181-.264.367-.39.544l.525.525.594-.422a.268.268,0,0,1,.3-.02,3.123,3.123,0,0,0,.714.292.26.26,0,0,1,.2.212c.014.068.024.137.036.206l.089.532h.734c0-.019.01-.035.013-.051.035-.208.074-.417.1-.626a.312.312,0,0,1,.257-.289,2.2,2.2,0,0,0,.625-.258.329.329,0,0,1,.414.023c.178.136.364.261.535.383l.526-.524c-.132-.186-.266-.379-.4-.568a.3.3,0,0,1-.019-.354,2.522,2.522,0,0,0,.277-.665.3.3,0,0,1,.273-.243c.029,0,.058-.009.088-.014l.6-.1v-.736l-.074-.015-.657-.112a.257.257,0,0,1-.219-.2,3,3,0,0,0-.3-.73.269.269,0,0,1,.016-.3l.059-.083.361-.507-.525-.525-.582.417a.273.273,0,0,1-.316.017,2.915,2.915,0,0,0-.731-.3.266.266,0,0,1-.208-.223c-.022-.118-.041-.238-.061-.356l-.063-.372H546.3c-.005.026-.011.05-.015.075-.038.219-.074.438-.113.656a.271.271,0,0,1-.21.229,2.842,2.842,0,0,0-.705.3.28.28,0,0,1-.327-.018l-.475-.339-.105-.074-.525.522.026.038q.2.279.4.558a.274.274,0,0,1,.017.316,2.782,2.782,0,0,0-.287.7.282.282,0,0,1-.247.223Z" transform="translate(-542.297 -692.959)" fill="#da241c"/>
      <path id="Path_3085" data-name="Path 3085" d="M546.452,700.581a.55.55,0,0,1-.332-.108c-.138-.1-.276-.2-.413-.3a.073.073,0,0,0-.085-.008c-.141.062-.283.122-.427.177a.088.088,0,0,0-.066.078c-.027.171-.055.343-.087.513a.551.551,0,0,1-.549.454q-.368,0-.737,0a.55.55,0,0,1-.547-.448c-.033-.168-.06-.337-.085-.507a.1.1,0,0,0-.081-.1c-.133-.049-.263-.1-.393-.162a.077.077,0,0,0-.09.006c-.138.1-.279.2-.418.3a.554.554,0,0,1-.725-.055q-.26-.256-.517-.516a.556.556,0,0,1-.057-.736c.1-.136.194-.272.293-.407a.068.068,0,0,0,.007-.08q-.1-.217-.184-.438a.074.074,0,0,0-.067-.054c-.167-.026-.333-.057-.5-.085a.556.556,0,0,1-.482-.565q0-.362,0-.724a.555.555,0,0,1,.472-.554c.167-.028.333-.058.5-.084a.068.068,0,0,0,.061-.052c.058-.15.118-.3.182-.446a.07.07,0,0,0-.011-.079q-.15-.208-.3-.419a.557.557,0,0,1,.061-.736q.255-.257.513-.511a.556.556,0,0,1,.731-.058q.207.147.412.3a.068.068,0,0,0,.079.007c.145-.064.291-.126.438-.185a.074.074,0,0,0,.054-.066c.026-.165.056-.329.084-.494a.558.558,0,0,1,.572-.489h.711a.553.553,0,0,1,.56.472c.03.167.055.334.087.5a.1.1,0,0,0,.05.059c.153.066.309.127.462.193a.068.068,0,0,0,.079-.007q.208-.151.418-.3a.554.554,0,0,1,.73.061l.507.507a.555.555,0,0,1,.063.735q-.146.208-.3.413a.073.073,0,0,0-.008.085c.062.141.122.283.177.427a.089.089,0,0,0,.08.066c.171.027.343.055.513.087a.543.543,0,0,1,.45.544q0,.368,0,.736a.551.551,0,0,1-.458.552c-.17.032-.342.059-.513.086a.079.079,0,0,0-.071.058c-.057.146-.116.29-.18.433a.077.077,0,0,0,.01.09c.1.133.192.268.288.4a.558.558,0,0,1-.064.75l-.5.5A.553.553,0,0,1,546.452,700.581Zm-5.975-3.758c0,.01-.007.014-.007.018,0,.228,0,.457,0,.685,0,.015.028.039.046.042.221.04.441.079.663.114a.29.29,0,0,1,.257.229,2.464,2.464,0,0,0,.273.654.321.321,0,0,1-.019.4c-.136.181-.264.367-.389.544l.525.525.594-.422a.268.268,0,0,1,.3-.02,3.126,3.126,0,0,0,.714.292.26.26,0,0,1,.2.212c.014.068.024.137.036.206l.089.532h.734c0-.019.01-.035.013-.051.035-.208.074-.417.1-.626a.312.312,0,0,1,.258-.289,2.2,2.2,0,0,0,.625-.258.329.329,0,0,1,.414.023c.178.136.364.261.535.383l.526-.524c-.132-.186-.266-.379-.4-.568a.3.3,0,0,1-.019-.354,2.522,2.522,0,0,0,.277-.665.3.3,0,0,1,.273-.243c.029,0,.059-.009.088-.014l.6-.1v-.736l-.074-.015-.657-.112a.257.257,0,0,1-.219-.2,3,3,0,0,0-.3-.73.269.269,0,0,1,.016-.3l.059-.083.361-.507-.525-.525-.582.417a.273.273,0,0,1-.316.017,2.914,2.914,0,0,0-.731-.3.267.267,0,0,1-.208-.223c-.022-.118-.041-.238-.061-.356l-.063-.372h-.734c-.005.026-.011.05-.015.075-.038.219-.074.438-.113.656a.271.271,0,0,1-.21.229,2.842,2.842,0,0,0-.705.3.28.28,0,0,1-.327-.018l-.475-.339-.105-.074-.525.522.026.038q.2.279.4.558a.274.274,0,0,1,.017.316,2.787,2.787,0,0,0-.287.7.282.282,0,0,1-.247.223Z" transform="translate(-539.909 -692.959)" fill="#da241c"/>
      <path id="Path_3086" data-name="Path 3086" d="M580.988,729.616a1.844,1.844,0,1,1-1.842,1.841A1.843,1.843,0,0,1,580.988,729.616Zm1.287,1.844a1.285,1.285,0,1,0-1.283,1.286A1.285,1.285,0,0,0,582.275,731.46Z" transform="translate(-576.607 -727.244)" fill="#da241c"/>
    </g>
  </g>
</svg>
