<svg xmlns="http://www.w3.org/2000/svg" width="31.003" height="25.259" viewBox="0 0 31.003 25.259">
  <g id="usermanagement" transform="translate(-276.03 -391.418)">
    <path id="Path_56" data-name="Path 56" d="M324.524,403.051l-.365.077v.053l.276.014a4.486,4.486,0,0,1,2.8.989,3.006,3.006,0,0,1,.836,1.193,5.443,5.443,0,0,1,.351,2.186c-.006.371-.054.741-.079,1.111,0,.051,0,.128.036.152a.841.841,0,0,1,.309.8,1.278,1.278,0,0,1-.427.947,2.083,2.083,0,0,1-.3.149.332.332,0,0,0-.143.128c-.249.577-.482,1.16-.736,1.734a1.835,1.835,0,0,1-.588.67,6.063,6.063,0,0,1-1.926,1.029,2.187,2.187,0,0,1-1.489-.068,5.659,5.659,0,0,1-1.916-1.193,2.482,2.482,0,0,1-.534-.881c-.176-.428-.328-.867-.5-1.3-.018-.046-.068-.108-.107-.112-.368-.034-.531-.3-.652-.59a1.291,1.291,0,0,1-.041-1.012,2.323,2.323,0,0,1,.16-.241.4.4,0,0,0,.08-.21c-.054-.425-.133-.846-.183-1.271a3.719,3.719,0,0,1,.122-1.746,5.885,5.885,0,0,1,.483-.839c.034-.06.05-.13.078-.193a.341.341,0,0,1,.06-.1,1.937,1.937,0,0,1,1.146-.624,1.381,1.381,0,0,0,.658-.27,3.386,3.386,0,0,1,1.124-.571,3.289,3.289,0,0,1,1.382-.071.414.414,0,0,1,.069.022Z" transform="translate(-28.16 -7.739)" fill="#fff"/>
    <path id="Path_57" data-name="Path 57" d="M280.461,394.039a.692.692,0,0,1,.48.191c.27.216.544.427.814.642a.181.181,0,0,0,.227.017,8.315,8.315,0,0,1,1.679-.74,1.85,1.85,0,0,0,.323-.1.31.31,0,0,0,.148-.187c.056-.33.1-.664.135-1a.673.673,0,0,1,.7-.68c.452-.039.9-.114,1.357-.112a9.171,9.171,0,0,1,1.291.132.658.658,0,0,1,.536.636c.036.359.092.717.149,1.073a.212.212,0,0,0,.118.131c.414.156.837.292,1.247.458a7.552,7.552,0,0,1,.743.377.207.207,0,0,0,.256-.01c.267-.211.538-.418.8-.631a.651.651,0,0,1,.949-.014c.378.32.735.665,1.1,1,.083.075.088.124-.023.182s-.227.167-.353.222a4.409,4.409,0,0,1-.482.15.894.894,0,0,1-.191.057.4.4,0,0,1-.191-.036.551.551,0,0,1-.142-.119c-.2-.2-.165-.166-.373-.01a3.582,3.582,0,0,1-1.093.629.6.6,0,0,1-.52-.068,7.715,7.715,0,0,0-1.693-.819,6.474,6.474,0,0,0-.717-.188.7.7,0,0,1-.551-.51,9.919,9.919,0,0,1-.245-1.052c-.045-.246-.042-.269-.294-.274-.331-.006-.662,0-.992,0-.114,0-.145.053-.165.156-.067.349-.134.7-.224,1.044a.836.836,0,0,1-.693.66,6.329,6.329,0,0,0-2.21.928.849.849,0,0,1-.986-.023c-.283-.168-.553-.359-.821-.551-.087-.062-.136-.064-.209.01q-.384.393-.778.777c-.078.076-.078.127-.017.222.217.337.432.677.62,1.03a.711.711,0,0,1-.025.71c-.243.442-.484.887-.69,1.346a4.116,4.116,0,0,0-.275.9.823.823,0,0,1-.643.708c-.344.087-.693.159-1.042.225-.107.02-.154.057-.154.167,0,.351,0,.7,0,1.054,0,.148.078.2.2.218.3.055.611.1.91.18a.9.9,0,0,1,.737.773,5.531,5.531,0,0,0,.586,1.575,4.08,4.08,0,0,0,.3.522.853.853,0,0,1,.015,1.012c-.164.285-.348.56-.535.832-.061.089-.073.148.007.226.261.257.519.518.777.778.086.086.158.054.245-.007a9.325,9.325,0,0,1,.838-.55,1.491,1.491,0,0,1,.546-.138c.252-.027.427.165.624.279a6.432,6.432,0,0,0,1.961.773.849.849,0,0,1,.713.661c.066.243.122.49.167.738a.326.326,0,0,1-.056.224,5.437,5.437,0,0,0-.679,1.23c-.05.127-.1.136-.2.051a.7.7,0,0,1-.232-.506c-.041-.333-.082-.666-.123-1a.223.223,0,0,0-.187-.211,8.044,8.044,0,0,1-1.693-.666.577.577,0,0,1-.122-.065c-.206-.191-.379-.111-.561.046-.227.2-.466.376-.7.564a.665.665,0,0,1-.818.016,10.071,10.071,0,0,1-1.951-1.96.655.655,0,0,1,.046-.792c.222-.291.438-.588.659-.88a.176.176,0,0,0,.01-.224,8.779,8.779,0,0,1-.839-1.99.22.22,0,0,0-.136-.135,8.047,8.047,0,0,0-.948-.137.776.776,0,0,1-.766-.736c-.017-.417-.112-.833-.107-1.248a10.321,10.321,0,0,1,.136-1.355.636.636,0,0,1,.623-.547c.333-.038.666-.081,1-.119a.217.217,0,0,0,.209-.186,8.118,8.118,0,0,1,.827-1.959.174.174,0,0,0-.007-.223c-.206-.271-.4-.552-.611-.819a.689.689,0,0,1,0-.988,10.565,10.565,0,0,1,1.773-1.769A.7.7,0,0,1,280.461,394.039Z" transform="translate(0 -0.651)" fill="#da251c"/>
    <path id="Path_58" data-name="Path 58" d="M295.139,414.57a3.52,3.52,0,1,1,3.492,3.616A3.518,3.518,0,0,1,295.139,414.57Zm3.506,2.317a2.225,2.225,0,1,0,0-4.45,2.225,2.225,0,0,0,0,4.45Z" transform="translate(-12.448 -13.081)" fill="#da251c"/>
    <path id="Path_59" data-name="Path 59" d="M330.393,447.77c-.438-.623-.839-1.2-1.245-1.769a.363.363,0,0,1-.01-.341q.316-1.2.64-2.394a1.216,1.216,0,0,1,.063-.207.522.522,0,0,0-.114-.567c-.12-.168-.227-.345-.341-.517a.115.115,0,0,1,.015-.174c.294-.276.583-.557.874-.835.061-.058.119-.091.2-.015q.429.415.866.821a.148.148,0,0,1,.021.226c-.141.21-.268.429-.415.634a.332.332,0,0,0-.059.3q.139.507.276,1.015.18.666.359,1.332c.045.164.1.327.133.493a.266.266,0,0,1-.02.186c-.38.559-.766,1.114-1.151,1.67C330.456,447.67,330.432,447.71,330.393,447.77Z" transform="translate(-34.572 -32.466)" fill="#fff"/>
    <path id="Path_60" data-name="Path 60" d="M331.521,445.283q-.18-.666-.359-1.332-.138-.508-.276-1.015a.332.332,0,0,1,.059-.3c.147-.2.274-.425.415-.634a.148.148,0,0,0-.021-.226q-.438-.405-.866-.821c-.078-.076-.136-.044-.2.015-.291.279-.58.559-.874.835a.115.115,0,0,0-.015.174c.114.172.221.349.341.517a.522.522,0,0,1,.114.567,1.216,1.216,0,0,0-.063.207q-.322,1.2-.64,2.394a.363.363,0,0,0,.01.341c.407.571.808,1.146,1.245,1.769.039-.06.063-.1.09-.138.384-.556.771-1.11,1.151-1.67a.266.266,0,0,0,.02-.186C331.617,445.61,331.565,445.448,331.521,445.283Z" transform="translate(-34.572 -32.466)" fill="none"/>
    <path id="Path_61" data-name="Path 61" d="M298.79,411.152a3.519,3.519,0,1,0,3.385,3.641A3.518,3.518,0,0,0,298.79,411.152Z" transform="translate(-12.448 -13.081)" fill="none"/>
    <path id="Path_62" data-name="Path 62" d="M320.142,404.529a.341.341,0,0,0-.06.1c-.028.063-.044.134-.078.193a5.885,5.885,0,0,0-.483.839,3.719,3.719,0,0,0-.122,1.746c.049.425.129.846.183,1.271a.4.4,0,0,1-.08.21,2.323,2.323,0,0,0-.16.241,1.291,1.291,0,0,0,.041,1.012c.122.288.284.556.652.59.04,0,.09.066.107.112.167.432.319.87.5,1.3a2.482,2.482,0,0,0,.534.881,5.659,5.659,0,0,0,1.916,1.193,2.187,2.187,0,0,0,1.489.068,6.07,6.07,0,0,0,1.926-1.029,1.835,1.835,0,0,0,.588-.67c.254-.574.488-1.158.736-1.734a.332.332,0,0,1,.143-.128,2.083,2.083,0,0,0,.3-.149,1.278,1.278,0,0,0,.427-.947.841.841,0,0,0-.309-.8c-.032-.024-.039-.1-.036-.152.024-.371.072-.741.079-1.111a5.443,5.443,0,0,0-.351-2.186,3.006,3.006,0,0,0-.836-1.193,4.486,4.486,0,0,0-2.8-.989l-.276-.014v-.053l.365-.077,0-.037a.414.414,0,0,0-.069-.022,3.289,3.289,0,0,0-1.382.071,3.386,3.386,0,0,0-1.124.571,1.381,1.381,0,0,1-.658.27A1.937,1.937,0,0,0,320.142,404.529Z" transform="translate(-28.16 -7.739)" fill="none"/>
    <path id="Path_63" data-name="Path 63" d="M284.7,412.072a5.437,5.437,0,0,1,.679-1.23.326.326,0,0,0,.056-.224c-.044-.248-.1-.495-.167-.738a.849.849,0,0,0-.713-.661,6.432,6.432,0,0,1-1.961-.773c-.2-.114-.372-.305-.624-.279a1.491,1.491,0,0,0-.546.138,9.325,9.325,0,0,0-.838.55c-.087.06-.159.093-.245.007-.258-.26-.516-.521-.777-.778-.079-.078-.068-.137-.007-.226.187-.272.371-.546.535-.832a.853.853,0,0,0-.015-1.012,4.08,4.08,0,0,1-.3-.522,5.531,5.531,0,0,1-.586-1.575.9.9,0,0,0-.737-.773c-.3-.075-.606-.124-.91-.18-.127-.023-.207-.07-.2-.218.006-.351.005-.7,0-1.054,0-.11.047-.146.154-.167.349-.066.7-.137,1.042-.225a.823.823,0,0,0,.643-.708,4.116,4.116,0,0,1,.275-.9c.206-.46.448-.9.69-1.346a.711.711,0,0,0,.025-.71c-.189-.353-.4-.693-.62-1.03-.061-.095-.062-.146.017-.222q.395-.383.778-.777c.073-.074.122-.073.209-.01.267.192.538.383.821.551a.849.849,0,0,0,.986.023,6.329,6.329,0,0,1,2.21-.928.836.836,0,0,0,.693-.66c.09-.344.157-.694.224-1.044.02-.1.051-.157.165-.156.33,0,.661-.005.992,0,.252,0,.248.028.294.274a9.919,9.919,0,0,0,.245,1.052.7.7,0,0,0,.551.51,6.474,6.474,0,0,1,.717.188,7.715,7.715,0,0,1,1.693.819.6.6,0,0,0,.52.068,3.582,3.582,0,0,0,1.093-.629c.208-.156.171-.193.373.01a.551.551,0,0,0,.142.119.4.4,0,0,0,.191.036.894.894,0,0,0,.191-.057,4.409,4.409,0,0,0,.482-.15c.126-.055.23-.158.353-.222s.106-.107.023-.182c-.367-.333-.724-.678-1.1-1a.651.651,0,0,0-.949.014c-.266.213-.537.42-.8.631a.207.207,0,0,1-.256.01,7.552,7.552,0,0,0-.743-.377c-.41-.166-.833-.3-1.247-.458a.212.212,0,0,1-.118-.131c-.058-.356-.113-.714-.149-1.073a.658.658,0,0,0-.536-.636,9.171,9.171,0,0,0-1.291-.132c-.452,0-.9.072-1.357.112a.673.673,0,0,0-.7.68c-.038.334-.078.667-.135,1a.31.31,0,0,1-.148.188,1.85,1.85,0,0,1-.323.1,8.315,8.315,0,0,0-1.679.74.181.181,0,0,1-.227-.017c-.27-.216-.544-.426-.814-.642a.7.7,0,0,0-.964.005A10.565,10.565,0,0,0,278.2,396a.689.689,0,0,0,0,.988c.212.266.4.548.611.819a.174.174,0,0,1,.007.223,8.118,8.118,0,0,0-.827,1.959.217.217,0,0,1-.209.186c-.334.038-.666.081-1,.119a.636.636,0,0,0-.623.547,10.321,10.321,0,0,0-.136,1.355c0,.415.089.831.107,1.248a.776.776,0,0,0,.766.736,8.047,8.047,0,0,1,.948.137.22.22,0,0,1,.136.135,8.779,8.779,0,0,0,.839,1.99.176.176,0,0,1-.01.224c-.221.292-.437.589-.659.88a.655.655,0,0,0-.046.792,10.071,10.071,0,0,0,1.951,1.96.665.665,0,0,0,.818-.016c.234-.188.473-.368.7-.564.182-.157.355-.237.561-.046a.577.577,0,0,0,.122.065,8.044,8.044,0,0,0,1.693.666.223.223,0,0,1,.187.211c.042.333.082.666.123,1a.7.7,0,0,0,.232.506C284.606,412.208,284.652,412.2,284.7,412.072Z" transform="translate(0 -0.651)" fill="none"/>
    <path id="Path_64" data-name="Path 64" d="M322.579,444.326a17.667,17.667,0,0,0-.782-2.75,2.978,2.978,0,0,0-1.008-1.395,33.119,33.119,0,0,0-3.425-2.068c-.638-.348-1.281-.685-1.923-1.024-.185-.1-.374-.187-.581-.291-.016.078-.031.131-.039.185-.092.6-.184,1.2-.274,1.808-.1.7-.2,1.411-.307,2.116-.1.665-.188,1.33-.293,1.993a1.4,1.4,0,0,1-.162.554c-.613.907-1.247,1.8-1.874,2.7-.12.172-.132.172-.253,0-.508-.716-1.013-1.433-1.525-2.146a2.527,2.527,0,0,1-.576-1.238c-.08-.8-.221-1.6-.339-2.393-.07-.47-.146-.939-.217-1.409q-.154-1.018-.3-2.038c-.015-.1-.061-.12-.147-.073q-1.245.667-2.49,1.331a32.135,32.135,0,0,0-3,1.786,3.166,3.166,0,0,0-.946.858,7.817,7.817,0,0,0-.876,2.253c-.1.389-.189.783-.272,1.177-.1.485-.195.972-.289,1.459-.048.247-.092.495-.137.747H323v-.217a.58.58,0,0,1-.075-.144C322.808,445.512,322.711,444.915,322.579,444.326Z" transform="translate(-15.967 -29.789)" fill="#fff"/>
  </g>
</svg>
