<svg xmlns="http://www.w3.org/2000/svg" width="19.05" height="11.908" viewBox="0 0 19.05 11.908">
  <g id="wpn" transform="translate(-1690.619 -138.536)">
    <path id="Path_16218" data-name="Path 16218" d="M468.88,325.811a1.816,1.816,0,0,1,.556-.919c.036-.029.035-.112.038-.171a7.137,7.137,0,0,1,.04-.833,1.468,1.468,0,0,1,1.414-1.2c.3-.007.593,0,.919,0-.093-.187-.17-.354-.257-.516a.439.439,0,0,1,0-.441c.236-.463.466-.93.7-1.4a.421.421,0,0,1,.415-.254q3.2,0,6.4,0a.364.364,0,0,1,.242.065c.113.12.222.089.35.054.4-.108.8-.212,1.2-.314a.379.379,0,0,1,.511.258c.053.207-.072.389-.325.458-.417.115-.836.226-1.27.343.1.2.2.395.293.59.058.123.143.061.221.04l3.713-.991,1.267-.342-.189-.714-.882.23a2.132,2.132,0,0,1-.253.06.365.365,0,0,1-.164-.71c.338-.1.681-.185,1.021-.277l2.116-.569c.367-.1.514-.013.612.352q.157.583.316,1.165a.754.754,0,0,0,.051.113v.26a.678.678,0,0,1-.418.271q-3.634.963-7.264,1.939c-.068.018-.158.044-.188.1-.109.184-.2.381-.306.6h.23c1.674,0,3.348,0,5.022,0a.463.463,0,0,1,.469.289c.143.3.312.593.44.9a.75.75,0,0,0,.532.464,2.048,2.048,0,0,1,1.484,1.176v.633a.456.456,0,0,1-.525.257,1.859,1.859,0,0,1-.373,1.389,3.794,3.794,0,0,1-3.466,1.971c-3.472-.028-6.944-.018-10.415,0a3.581,3.581,0,0,1-2.986-1.422,2.631,2.631,0,0,1-.785-1.888c0-.01-.011-.02-.023-.041a.439.439,0,0,1-.477-.262Zm5.761.979h-.73c-.062.907-.51,1.435-1.243,1.472a1.26,1.26,0,0,1-.881-.288,1.348,1.348,0,0,1-.49-1.188h-1.159a.907.907,0,0,0,.071.616,8.209,8.209,0,0,0,.478.773,2.7,2.7,0,0,0,2.2,1.2q5.515.017,11.031,0a2.733,2.733,0,0,0,.988-.217,3.393,3.393,0,0,0,1.694-1.75.987.987,0,0,0,.071-.615h-1.154c-.047.888-.494,1.423-1.225,1.47a1.258,1.258,0,0,1-.884-.278,1.35,1.35,0,0,1-.5-1.193H482.1c-.084,1.123-.662,1.792-1.589,1.842a1.619,1.619,0,0,1-1.125-.359,1.71,1.71,0,0,1-.646-1.483H478a1.689,1.689,0,1,1-3.362,0Zm1.238-3.732c.96,0,1.921,0,2.881,0a.211.211,0,0,0,.229-.134c.136-.292.29-.575.423-.867a.317.317,0,0,0,0-.235c-.133-.293-.287-.576-.423-.867a.211.211,0,0,0-.228-.135q-2.872.006-5.744,0a.2.2,0,0,0-.214.126c-.139.3-.295.586-.432.883a.292.292,0,0,0,0,.218c.134.292.288.575.423.867a.222.222,0,0,0,.242.143C473.983,323.056,474.931,323.058,475.879,323.058Zm11.273,2.97.086-.1c-.092-.052-.188-.1-.274-.159a2.36,2.36,0,0,0-1.379-.482h-15.1c-.056,0-.112,0-.167,0a.76.76,0,0,0-.68.735Zm-14.32-1.494h12.4c-.1-.2-.2-.378-.277-.566a.25.25,0,0,0-.282-.169q-5.819.006-11.638,0h-.207Zm-.761-1.1c-.341,0-.669.017-1,0a.814.814,0,0,0-.828,1.11h1.823Zm3.348,3.349a.921.921,0,0,0,1.452.927.881.881,0,0,0,.348-.918c-.033,0-.069-.008-.1-.009Zm5.894,0h-1.8a.9.9,0,0,0,.383.953.926.926,0,0,0,1.032,0A.9.9,0,0,0,481.313,326.779Zm5.6-7.729-1.077.292.194.715,1.074-.289Zm-14.819,7.729a.521.521,0,0,0,.161.609.552.552,0,0,0,.9-.49.177.177,0,0,0-.122-.114C472.714,326.774,472.4,326.779,472.09,326.779Zm12.128,0a3.617,3.617,0,0,0-.426.006.19.19,0,0,0-.132.122.552.552,0,1,0,1.1,0,.19.19,0,0,0-.133-.121A3.26,3.26,0,0,0,484.218,326.779Z" transform="translate(1221.739 -179.692)" fill="#fff"/>
  </g>
</svg>
