<svg xmlns="http://www.w3.org/2000/svg" width="28.307" height="22.917" viewBox="0 0 28.307 22.917">
  <g id="basedatamanagement" transform="translate(-16.679 -276.602)">
    <path id="Path_3061" data-name="Path 3061" d="M269.908,984.02H283.2c.6,0,.732.159.648.757a2.094,2.094,0,0,1-2.135,1.782H266.818q-4.386,0-8.771,0a2.1,2.1,0,0,1-2.081-1.81c-.074-.56.075-.726.655-.727h13.288Zm13.018.881H256.95c-.008.04-.019.063-.014.081a.538.538,0,0,0,.054.117,1.35,1.35,0,0,0,1.256.612q11.664-.007,23.329,0a2.409,2.409,0,0,0,.262-.005A1.278,1.278,0,0,0,282.926,984.9Z" transform="translate(-238.881 -687.04)" fill="#fff"/>
    <path id="Path_3062" data-name="Path 3062" d="M250.893,673.591v.429q0,6.118,0,12.236a3.435,3.435,0,0,1-.01.425.386.386,0,0,1-.4.364.4.4,0,0,1-.441-.352,1.285,1.285,0,0,1-.01-.261q0-6.527,0-13.054c0-.533.1-.636.624-.637h15.409c.076,0,.153,0,.229,0a.388.388,0,0,1,.386.407.4.4,0,0,1-.363.431,2.15,2.15,0,0,1-.359.01H250.893Z" transform="translate(-233.357 -396.137)" fill="#fff"/>
    <path id="Path_3063" data-name="Path 3063" d="M321.4,752.347h-2.683c-.438,0-.576-.128-.578-.554q-.005-1.57,0-3.141c0-.4.152-.543.563-.543q2.732,0,5.465,0c.421,0,.562.145.563.577q0,1.555,0,3.109c0,.413-.139.552-.547.553C323.256,752.349,322.329,752.347,321.4,752.347Zm-2.387-.874h4.829v-2.486H319c0,.732,0,1.438,0,2.144C319,751.238,319.009,751.345,319.015,751.473Z" transform="translate(-297 -466.571)" fill="#da251c"/>
    <path id="Path_3064" data-name="Path 3064" d="M518.159,839.059l-.307.484a.281.281,0,0,1-.4.128.285.285,0,0,1-.076-.431c.28-.453.561-.9.85-1.351a.318.318,0,0,1,.553,0c.293.452.579.91.862,1.369a.285.285,0,1,1-.483.294c-.114-.172-.221-.348-.367-.578-.007.137-.014.211-.014.285q0,1.23,0,2.46c0,.175-.039.317-.232.359s-.332-.094-.333-.34c0-.806,0-1.611,0-2.417v-.247Z" transform="translate(-483.133 -550.323)" fill="#da251c"/>
    <path id="Path_3065" data-name="Path 3065" d="M561.8,844.925c.1-.161.2-.322.3-.482.122-.19.279-.248.428-.161s.178.261.06.452q-.409.66-.825,1.315a.32.32,0,0,1-.576.007c-.283-.441-.561-.887-.837-1.333a.29.29,0,0,1,.059-.435.3.3,0,0,1,.42.13c.1.15.194.3.291.453,0,.005.013.006.061.027v-.231q0-1.154,0-2.308c0-.057,0-.115,0-.172.009-.2.106-.31.28-.31a.272.272,0,0,1,.283.309c0,.64,0,1.28,0,1.92q0,.4,0,.807Z" transform="translate(-523.296 -554.201)" fill="#da251c"/>
    <path id="Path_12726" data-name="Path 12726" d="M.432,0h8.9a.432.432,0,1,1,0,.863H.432A.432.432,0,0,1,.432,0Z" transform="translate(21.04 291.526)" fill="#da251c"/>
    <g id="Group_1005" data-name="Group 1005" transform="translate(35.663 278.137)">
      <path id="Path_3066" data-name="Path 3066" d="M546.641,703.905a.556.556,0,0,1-.336-.11c-.139-.1-.279-.2-.417-.3a.074.074,0,0,0-.086-.008c-.143.063-.286.124-.432.179a.089.089,0,0,0-.067.079c-.028.173-.055.347-.088.519a.557.557,0,0,1-.555.459q-.372,0-.745,0a.557.557,0,0,1-.553-.454c-.033-.17-.061-.341-.086-.513a.106.106,0,0,0-.082-.1c-.134-.05-.266-.106-.4-.164a.078.078,0,0,0-.091.006c-.14.1-.282.2-.423.3a.561.561,0,0,1-.734-.056q-.263-.259-.523-.522a.562.562,0,0,1-.058-.744c.1-.138.2-.275.3-.411a.069.069,0,0,0,.007-.08q-.1-.22-.187-.443a.075.075,0,0,0-.068-.055c-.169-.027-.337-.058-.506-.086a.562.562,0,0,1-.488-.571q0-.366,0-.732a.562.562,0,0,1,.478-.56c.169-.029.337-.059.506-.085a.069.069,0,0,0,.061-.052c.059-.151.12-.3.184-.451a.07.07,0,0,0-.011-.08q-.152-.211-.3-.424a.563.563,0,0,1,.062-.744q.258-.26.519-.517a.562.562,0,0,1,.739-.059q.209.148.416.3a.069.069,0,0,0,.08.007c.147-.065.294-.128.443-.187a.075.075,0,0,0,.055-.067c.027-.167.057-.333.085-.5a.564.564,0,0,1,.579-.495h.719a.56.56,0,0,1,.567.477c.03.169.056.338.088.506a.1.1,0,0,0,.051.06c.155.067.312.129.467.2a.069.069,0,0,0,.08-.007q.21-.153.423-.3a.561.561,0,0,1,.739.062q.257.256.513.513a.562.562,0,0,1,.064.744q-.147.21-.3.418a.075.075,0,0,0-.008.086c.063.143.123.287.179.432a.09.09,0,0,0,.08.066c.173.028.347.055.519.088a.55.55,0,0,1,.455.551q0,.373,0,.745a.558.558,0,0,1-.463.558c-.172.032-.346.06-.519.087a.08.08,0,0,0-.072.059c-.058.147-.118.294-.182.438a.078.078,0,0,0,.01.091c.1.135.195.271.291.408a.564.564,0,0,1-.065.759l-.5.5A.56.56,0,0,1,546.641,703.905Zm-6.045-3.8a.076.076,0,0,0-.007.018c0,.231,0,.462,0,.693,0,.015.029.039.047.042.223.04.447.08.67.115a.293.293,0,0,1,.26.231,2.494,2.494,0,0,0,.276.661.324.324,0,0,1-.02.4c-.138.183-.267.372-.394.55l.531.531.6-.427a.272.272,0,0,1,.308-.02,3.163,3.163,0,0,0,.722.3.263.263,0,0,1,.2.215c.014.069.024.139.036.209l.09.538h.743c0-.019.01-.035.013-.052.036-.211.075-.421.1-.633a.316.316,0,0,1,.26-.292,2.223,2.223,0,0,0,.633-.261.333.333,0,0,1,.419.024c.18.137.368.264.542.387l.532-.53c-.134-.188-.269-.383-.409-.575a.3.3,0,0,1-.019-.359,2.547,2.547,0,0,0,.28-.673.3.3,0,0,1,.276-.246c.03,0,.059-.009.089-.014l.611-.1v-.744l-.075-.015-.664-.113a.26.26,0,0,1-.221-.2,3.038,3.038,0,0,0-.306-.739.272.272,0,0,1,.016-.309l.059-.084.365-.513-.532-.531-.588.422a.276.276,0,0,1-.32.017,2.944,2.944,0,0,0-.74-.3.27.27,0,0,1-.21-.226c-.022-.12-.041-.24-.062-.361l-.064-.376h-.743c-.005.026-.011.051-.015.076-.038.221-.075.443-.114.664a.274.274,0,0,1-.212.232,2.881,2.881,0,0,0-.714.3.284.284,0,0,1-.331-.018l-.481-.343-.106-.075-.531.528.027.038.4.565a.277.277,0,0,1,.017.32,2.82,2.82,0,0,0-.29.711.286.286,0,0,1-.25.226Z" transform="translate(-540.022 -696.194)" fill="#da251c" stroke="#da251c" stroke-width="0.35"/>
      <path id="Path_3067" data-name="Path 3067" d="M578.57,732.851a1.866,1.866,0,1,1-1.864,1.862A1.864,1.864,0,0,1,578.57,732.851Zm1.3,1.865a1.3,1.3,0,1,0-1.3,1.3A1.3,1.3,0,0,0,579.872,734.716Z" transform="translate(-574.305 -730.451)" fill="#da251c" stroke="#da251c" stroke-width="0.35"/>
    </g>
    <path id="Path_3068" data-name="Path 3068" d="M310.008,721.456c0,.846-.367,1.211-1.218,1.211H289.057a1.038,1.038,0,0,1-1.185-1.182q0-6.2,0-12.4c0-.869.367-1.239,1.23-1.239,5.061,0,9.861,0,14.922,0l.08,0v-.85c-5.111-.009-9.96-.007-15.072-.005a1.864,1.864,0,0,0-2.016,2.022q0,6.251,0,12.5a1.865,1.865,0,0,0,2.022,2.018q9.9,0,19.8,0a1.865,1.865,0,0,0,2.027-2.042c0-2.449,0-4.571,0-7.02l-.856.08C310.009,716.96,310.009,719.045,310.008,721.456Z" transform="translate(-267.915 -428.143)" fill="#fff"/>
    <rect id="Rectangle_1981" data-name="Rectangle 1981" width="9.761" height="0.863" rx="0.432" transform="translate(21.04 290.121)" fill="#da251c"/>
    <rect id="Rectangle_1982" data-name="Rectangle 1982" width="9.761" height="0.863" rx="0.432" transform="translate(21.04 288.484)" fill="#da251c"/>
  </g>
</svg>
