<svg xmlns="http://www.w3.org/2000/svg" width="25.699" height="13.298" viewBox="0 0 25.699 13.298">
  <g id="check" transform="translate(-1659.651 -320.851)">
    <g id="Group_8660" data-name="Group 8660" transform="translate(1256.901 23.451)">
      <path id="Path_16178" data-name="Path 16178" d="M428.449,309.921a1.123,1.123,0,0,1-1.22.776q-11.629-.015-23.258,0a1.123,1.123,0,0,1-1.221-.776V298.176a1.1,1.1,0,0,1,1.2-.776c2.116.017,4.233.007,6.349.007.084,0,.168,0,.251,0a.351.351,0,0,1,.357.348.365.365,0,0,1-.342.392,2.063,2.063,0,0,1-.276.007h-6.349c-.414,0-.434.021-.434.444,0,.391,0,.782,0,1.187h24.19c0-.476.009-.95-.01-1.423,0-.07-.125-.159-.21-.2a.726.726,0,0,0-.273-.011H412.293a1.679,1.679,0,0,1-.325-.017.368.368,0,0,1,.027-.726,2.21,2.21,0,0,1,.276-.008q7.491,0,14.982-.007a1.11,1.11,0,0,1,1.2.776Zm-24.937-9.351c0,.072-.008.113-.008.154q0,4.441,0,8.882c0,.287.051.331.371.331h23.435c.351,0,.387-.037.387-.391q0-4.366,0-8.732c0-.08-.009-.16-.014-.245Z" fill="#da251c"/>
      <path id="Path_16179" data-name="Path 16179" d="M449.833,363.628v-1.17H437.057v1.17h.279c.719,0,1.439,0,2.158,0,.289,0,.465.151.461.381s-.176.369-.448.37c-.811,0-1.623,0-2.434,0a.745.745,0,0,1-.783-.767q-.011-.577,0-1.154a.748.748,0,0,1,.709-.766,2.645,2.645,0,0,1,.276-.007H449.6c.738,0,1,.261,1,.991,0,.3,0,.6,0,.9a.765.765,0,0,1-.809.8q-4.3,0-8.608,0c-.3,0-.464-.135-.467-.371s.165-.38.482-.38h8.638Z" transform="translate(-31.29 -59.983)" fill="#5d5c5c"/>
      <path id="Path_16180" data-name="Path 16180" d="M443.532,419.576h6.625c.358,0,.543.129.544.376s-.184.377-.542.377H436.934a1.159,1.159,0,0,1-.249-.017.367.367,0,0,1,0-.716,1.461,1.461,0,0,1,.3-.018Z" transform="translate(-31.396 -114)" fill="#da251c"/>
      <path id="Path_16182" data-name="Path 16182" d="M439.344,447.775H436.86c-.322,0-.486-.128-.486-.374s.168-.378.486-.378q2.472,0,4.944,0c.307,0,.484.15.476.391s-.175.361-.476.361Z" transform="translate(-31.374 -139.609)" fill="#5d5c5c"/>
      <path id="Path_16183" data-name="Path 16183" d="M683.207,370.3c.685,0,1.371,0,2.056,0,.3,0,.47.13.477.359s-.17.392-.477.392q-2.081,0-4.162,0c-.208,0-.41-.049-.448-.272a.557.557,0,0,1,.125-.394c.057-.07.211-.083.323-.084C681.8,370.3,682.505,370.3,683.207,370.3Z" transform="translate(-259.301 -68.023)" fill="#5d5c5c"/>
    </g>
    <path id="PKR_-_Outline" data-name="PKR - Outline" d="M6.5.5H5.256A.622.622,0,0,1,4.727.221L4.715.206V.4L4.8.5H3.425A.721.721,0,0,1,3.331.488.616.616,0,0,1,3.146.422a.616.616,0,0,1-.139-.1A.686.686,0,0,1,2.949.252L2.8.076V.5H1.507V-.416Q1.461-.4,1.413-.38a1.482,1.482,0,0,1-.349.07V.5H-.226V-2.65H.909a1.691,1.691,0,0,1,.5.07q.048.015.094.033v-.1H2.8v.357l.1-.109a.66.66,0,0,1,.239-.188.691.691,0,0,1,.288-.06H4.776l-.01.012a1.578,1.578,0,0,1,.254.048,1.17,1.17,0,0,1,.425.212A.974.974,0,0,1,5.735-2a1.129,1.129,0,0,1,.086.441,1.12,1.12,0,0,1-.066.384,1.063,1.063,0,0,1-.2.334l-.021.023Z" transform="translate(1678 332)" fill="rgba(0,0,0,0)"/>
  </g>
</svg>
