<svg xmlns="http://www.w3.org/2000/svg" width="199.74" height="135.165" viewBox="0 0 199.74 135.165">
  <g id="checkpopup" transform="translate(0 0)">
    <path id="Path_16184" data-name="Path 16184" d="M674.461,226.57c-.21.172-.419.337-.634.5H620.869q-.592-.243-1.178-.5a62.363,62.363,0,0,1-15.445-9.616,63.265,63.265,0,0,1-7.988-7.849c-2.873-3.532-5.519-7.382-6.75-11.768s-.861-9.414,1.882-13.051a11.682,11.682,0,0,1,3.083-2.823c.2-.125.4-.245.6-.357a15.361,15.361,0,0,1,11.146-1.341c5.3,1.371,9.713,5.2,12.859,9.686s5.188,9.638,7.2,14.734A31.921,31.921,0,0,1,642.857,182.8a29.573,29.573,0,0,1,26.9.394,27.034,27.034,0,0,1,6.878,5.417c.2.212.389.429.579.649a27.11,27.11,0,0,1,6.685,16.623A26.057,26.057,0,0,1,674.461,226.57Z" transform="translate(-491.754 -179.277)" fill="#f2f2f2"/>
    <path id="Path_16185" data-name="Path 16185" d="M639.908,232.323h-.749c-.01-.167-.022-.332-.037-.5a55.963,55.963,0,0,0-1.638-9.671,59.617,59.617,0,0,0-9.564-20.086,57.066,57.066,0,0,0-16.351-15.093.354.354,0,0,1-.175-.257.373.373,0,0,1,.552-.389.573.573,0,0,1,.05.032,56.534,56.534,0,0,1,10.016,7.769,60.138,60.138,0,0,1,12.909,18.506,58.312,58.312,0,0,1,4.948,19.19C639.883,231.991,639.9,232.158,639.908,232.323Z" transform="translate(-508.676 -184.531)" fill="#fff"/>
    <path id="Path_16186" data-name="Path 16186" d="M781.47,217.108a.046.046,0,0,1-.017,0c-.547.1-1.1.2-1.64.317a74.1,74.1,0,0,0-13.064,3.967,77.088,77.088,0,0,0-12.107,6.241A78.327,78.327,0,0,0,743.8,235.9a76.769,76.769,0,0,0-9.234,10.015,74.25,74.25,0,0,0-5.644,8.5c-.095.165-.187.332-.28.5h-.856c.09-.167.182-.335.277-.5a74.867,74.867,0,0,1,6.985-10.317,77.6,77.6,0,0,1,9.564-9.923,79.351,79.351,0,0,1,11.079-8.058,77.853,77.853,0,0,1,12.362-6.031,74.173,74.173,0,0,1,12.844-3.625l.364-.067C781.723,216.307,781.922,217.011,781.47,217.108Z" transform="translate(-596.013 -207.121)" fill="#fff"/>
    <path id="Path_16187" data-name="Path 16187" d="M278.876,341.241c1.332-2.514,1.552-5.788-.1-8.1a7.96,7.96,0,0,0-4.14-2.791,21.877,21.877,0,0,0-5.008-.784,16.762,16.762,0,0,0-5.007.157,6.011,6.011,0,0,0-4.011,2.777c-1.344,2.493-.12,5.689-1.107,8.343-.906,2.436-3.484,3.86-6.019,4.435s-5.18.514-7.716,1.083-5.118,1.98-6.04,4.41a6.735,6.735,0,0,0,.543,5.442,14.019,14.019,0,0,0,3.715,4.189c2.179,1.765,4.728,3.276,7.527,3.429a10.907,10.907,0,0,0,7.957-3.3,22.221,22.221,0,0,0,4.723-7.428c.733-1.725,1.425-3.581,2.893-4.746a10.119,10.119,0,0,1,3.782-1.586l1.507-.4a10.345,10.345,0,0,0,6.464-5.056Z" transform="translate(-229.528 -291.965)" fill="#2f2e41"/>
    <path id="Path_16188" data-name="Path 16188" d="M136.5,493.182h-3.06l-1.456-11.8H136.5Z" transform="translate(-99.038 -361.207)" fill="#ffb8b8"/>
    <path id="Path_16189" data-name="Path 16189" d="M117.892,525.162h5.9v3.716h-9.618A3.716,3.716,0,0,1,117.892,525.162Z" transform="translate(-85.673 -394.062)" fill="#f2f2f2"/>
    <path id="Path_16190" data-name="Path 16190" d="M238.5,493.182h-3.06l-1.456-11.8H238.5Z" transform="translate(-175.575 -361.207)" fill="#ffb8b8"/>
    <path id="Path_16191" data-name="Path 16191" d="M219.892,525.162h5.9v3.716h-9.618a3.716,3.716,0,0,1,3.716-3.716Z" transform="translate(-162.211 -394.062)" fill="#f2f2f2"/>
    <path id="Path_16192" data-name="Path 16192" d="M332.63,524.7a1.209,1.209,0,0,1-.128-.007l-12.451-1.334a1.171,1.171,0,0,1-1.014-1.436l11.025-41.931a1.178,1.178,0,0,1,.885-.872l10.227-2.851a1.179,1.179,0,0,1,1.135.37c6.576,7.417,11.531,23.858,15.285,44.581a1.171,1.171,0,0,1-1,1.37l-10.2,1.3a1.168,1.168,0,0,1-1.291-.905l-4.964-22.13a.911.911,0,0,0-1.782.021l-4.576,22.879A1.165,1.165,0,0,1,332.63,524.7Z" transform="translate(-289.281 -402.108)" fill="#f2f2f2"/>
    <circle id="Ellipse_93" data-name="Ellipse 93" cx="6.131" cy="6.131" r="6.131" transform="translate(35.323 42.771)" fill="#ffb8b8"/>
    <path id="Path_16193" data-name="Path 16193" d="M350.4,428.352a1.168,1.168,0,0,1-1.129-.87l-3.689-13.857a4.188,4.188,0,0,1,2.524-4.984,17.454,17.454,0,0,1,8.408-1.278h0c2.32.276,5.181,14.009,4.992,14.3l.915,2.746a1.171,1.171,0,0,1-.859,1.514l-10.908,2.4A1.18,1.18,0,0,1,350.4,428.352Z" transform="translate(-309.12 -350.35)" fill="#ccc"/>
    <path id="Path_16194" data-name="Path 16194" d="M360.109,522.452a1.9,1.9,0,0,0-1.839-2.259l-2.125-6.408-2.172,2.755,2.351,5.663a1.91,1.91,0,0,0,3.785.249Z" transform="translate(-315.52 -430.279)" fill="#ffb8b8"/>
    <path id="Path_16195" data-name="Path 16195" d="M462.518,473.692a1.9,1.9,0,0,0-2.842-.64l-5.631-3.725-.005,3.508,5.348,3a1.91,1.91,0,0,0,3.13-2.143Z" transform="translate(-390.607 -396.92)" fill="#ffb8b8"/>
    <path id="Path_16196" data-name="Path 16196" d="M341.464,446.574a1.171,1.171,0,0,1-1.112-.8l-4.982-10.539a6.091,6.091,0,0,1-.308-1.914l1.5-13.7a3.01,3.01,0,0,1,6-.363l-2.292,15.635,3.657,9.6a1.169,1.169,0,0,1-.619,1.3l-1.318.659A1.17,1.17,0,0,1,341.464,446.574Z" transform="translate(-301.33 -357.362)" fill="#ccc"/>
    <path id="Path_16197" data-name="Path 16197" d="M399.5,428.914a1.168,1.168,0,0,1-.528-.126l-9.908-5a6.083,6.083,0,0,1-1.57-1.138l-9.67-9.7a3.01,3.01,0,0,1,3.992-4.492l10.475,11.634,8.3,5.272a1.168,1.168,0,0,1,.483,1.361l-.468,1.4a1.171,1.171,0,0,1-1.11.8Z" transform="translate(-332.756 -350.758)" fill="#ccc"/>
    <path id="Path_16198" data-name="Path 16198" d="M338.061,350.459a7.14,7.14,0,0,0,4.218,2.654,7.457,7.457,0,0,0,5.008-.717,13.891,13.891,0,0,0,3.191-2.654,2.154,2.154,0,0,0,.814-1.447c-.031-.87-1.077-1.345-1.974-1.535a14.088,14.088,0,0,0-8.745.983c-1.218.566-2.487,1.59-2.3,2.862" transform="translate(-303.581 -304.726)" fill="#2f2e41"/>
    <path id="Path_16199" data-name="Path 16199" d="M608.63,368.723H488.3a4.25,4.25,0,0,0-4.244,4.244V419.4a4.25,4.25,0,0,0,4.244,4.244H608.63a4.25,4.25,0,0,0,4.244-4.244V372.967A4.25,4.25,0,0,0,608.63,368.723Zm3.745,50.676a3.749,3.749,0,0,1-3.745,3.745H488.3a3.749,3.749,0,0,1-3.745-3.745V372.967a3.749,3.749,0,0,1,3.745-3.745H608.63a3.749,3.749,0,0,1,3.745,3.745Z" transform="translate(-413.134 -321.43)" fill="#e6e6e6"/>
    <path id="Path_16200" data-name="Path 16200" d="M545.054,449.681A14.479,14.479,0,1,1,559.533,435.2,14.479,14.479,0,0,1,545.054,449.681Zm0-28.459a13.98,13.98,0,1,0,13.98,13.98A13.98,13.98,0,0,0,545.054,421.222Z" transform="translate(-448.036 -360.449)" fill="#e6e6e6"/>
    <path id="Path_16201" data-name="Path 16201" d="M757.333,441.723H699.667a3.12,3.12,0,0,0-3.115,3,1,1,0,0,0-.005.122,3.125,3.125,0,0,0,3.121,3.12h57.666a3.12,3.12,0,0,0,0-6.241Z" transform="translate(-572.575 -376.207)" fill="#da251c"/>
    <path id="Path_16202" data-name="Path 16202" d="M757.333,490.723H699.667a3.12,3.12,0,0,0-3.115,3,1,1,0,0,0-.005.122,3.125,3.125,0,0,0,3.121,3.12h57.666a3.12,3.12,0,0,0,0-6.241Z" transform="translate(-572.575 -412.974)" fill="#da251c"/>
    <path id="Path_16203" data-name="Path 16203" d="M563.783,463.015a1.863,1.863,0,0,1-1.121-.372l-.02-.015-4.22-3.231a1.875,1.875,0,1,1,2.281-2.976l2.733,2.1,6.459-8.424a1.875,1.875,0,0,1,2.629-.347l-.04.055.041-.054a1.877,1.877,0,0,1,.347,2.629l-7.6,9.909A1.875,1.875,0,0,1,563.783,463.015Z" transform="translate(-468.381 -381.936)" fill="#da251c"/>
    <path id="Path_16204" data-name="Path 16204" d="M377.934,719.222H200.4c-.257,0-.466-.112-.466-.25s.209-.25.466-.25H377.934c.257,0,.466.112.466.25S378.191,719.222,377.934,719.222Z" transform="translate(-199.939 -584.057)" fill="#e6e6e6"/>
    <path id="Path_16205" data-name="Path 16205" d="M769.095,322.285a49.485,49.485,0,0,0-15.688.354,50.512,50.512,0,0,0-14.772,5.165,48.727,48.727,0,0,0-7.372,4.87c-.376.3.156.828.53.53a48.383,48.383,0,0,1,13.427-7.548,49.84,49.84,0,0,1,14.994-3.042,47.7,47.7,0,0,1,8.682.394.388.388,0,0,0,.461-.262.377.377,0,0,0-.262-.461Z" transform="translate(-598.529 -286.238)" fill="#fff"/>
  </g>
</svg>
