<svg xmlns="http://www.w3.org/2000/svg" width="19.672" height="26.625" viewBox="0 0 19.672 26.625">
  <g id="confirmationsawaitingapproval" transform="translate(569.867 -118.923)">
    <path id="Path_3102" data-name="Path 3102" d="M-563.4,122.9c0-.4,0-.781,0-1.165a.429.429,0,0,1,.326-.445.681.681,0,0,1,.165-.013h1.719a2.323,2.323,0,0,1,.993-1.922,2.256,2.256,0,0,1,1.527-.422,2.345,2.345,0,0,1,2.156,2.345h.118c.529,0,1.057.009,1.586,0a.463.463,0,0,1,.508.5c-.012.369,0,.738,0,1.117.038,0,.069.006.1.007h3.5a.447.447,0,0,1,.5.505q0,1.88,0,3.759,0,3.2,0,6.41t0,6.388a.229.229,0,0,1-.085.189q-2.151,1.935-4.3,3.875a.361.361,0,0,1-.264.1q-2.712-.005-5.423,0a1.23,1.23,0,0,1-.144-.005.685.685,0,0,0-.542.2,5.264,5.264,0,0,1-2.759,1.184,5.258,5.258,0,0,1-3.128-.539,5.3,5.3,0,0,1-2.906-3.78,5.292,5.292,0,0,1,1.414-4.9,8.176,8.176,0,0,1,.741-.648.19.19,0,0,0,.082-.164q0-1.591,0-3.183,0-3.831,0-7.662,0-.631,0-1.262a.437.437,0,0,1,.464-.466h3.642Zm3.47,20.349h5.231V140.06h3.619V123.78h-3.233c0,.327,0,.64,0,.954a.4.4,0,0,1-.224.355.834.834,0,0,1-.455.053q-2.568,0-5.135,0h-.454c-.439,0-.878-.006-1.318-.006-.351,0-.7.008-1.053,0a.429.429,0,0,1-.45-.467c0-.27,0-.54,0-.81,0-.028,0-.056-.006-.09h-3.223v11.3a5.558,5.558,0,0,1,1.711-.459,5.438,5.438,0,0,1,1.771.115,5.407,5.407,0,0,1,1.629.672,5.4,5.4,0,0,1,1.341,1.165,5.366,5.366,0,0,1,1.247,3.057A5.408,5.408,0,0,1-559.931,143.247Zm-4.45-7.775a4.6,4.6,0,0,0-4.609,4.616,4.6,4.6,0,0,0,4.688,4.583,4.6,4.6,0,0,0,4.514-4.679A4.6,4.6,0,0,0-564.381,135.472Zm1.863-11.2h7.333v-2.123H-557a.431.431,0,0,1-.447-.55,1.429,1.429,0,0,0,.018-.614,1.461,1.461,0,0,0-1.369-1.181,1.478,1.478,0,0,0-1.371.825,1.436,1.436,0,0,0-.1.97.428.428,0,0,1-.436.549h-1.821Z" transform="translate(0 0)" fill="#fff"/>
    <path id="Path_3103" data-name="Path 3103" d="M-514.287,192.616h-5.1a.449.449,0,0,1-.5-.381.433.433,0,0,1,.45-.5c.455,0,.909,0,1.364,0h3.3c1.873,0,3.747,0,5.62,0a.452.452,0,0,1,.489.543.446.446,0,0,1-.448.339c-.488,0-.976,0-1.463,0Z" transform="translate(-44.581 -64.95)" fill="#fff"/>
    <path id="Path_3104" data-name="Path 3104" d="M-514.274,217.788h5.167a.435.435,0,0,1,.452.359.424.424,0,0,1-.27.488.557.557,0,0,1-.184.031q-3,0-6.009,0h-4.289a.433.433,0,0,1-.477-.45.431.431,0,0,1,.444-.428c.558,0,1.116,0,1.674,0Z" transform="translate(-44.587 -88.191)" fill="#fff"/>
    <path id="Path_3105" data-name="Path 3105" d="M-514.31,243.093h-5.155a.434.434,0,0,1-.434-.585.426.426,0,0,1,.41-.282h10.355a.436.436,0,0,1,.452.433.433.433,0,0,1-.45.434Z" transform="translate(-44.548 -109.99)" fill="#fff"/>
    <path id="Path_3106" data-name="Path 3106" d="M-462.732,268.113h2.217a.44.44,0,0,1,.459.427.438.438,0,0,1-.452.445q-2.234,0-4.468,0a.429.429,0,0,1-.44-.443.435.435,0,0,1,.455-.428Z" transform="translate(-93.174 -133.083)" fill="#fff"/>
    <path id="Path_3107" data-name="Path 3107" d="M-457.643,291.481c.65,0,1.3,0,1.95,0a.423.423,0,0,1,.426.43.44.44,0,0,1-.429.435c-.343,0-.687,0-1.03,0h-2.836a.657.657,0,0,1-.174-.021.432.432,0,0,1-.309-.456.421.421,0,0,1,.419-.393c.661,0,1.322,0,1.983,0Z" transform="translate(-97.963 -153.924)" fill="#fff"/>
    <path id="Path_3108" data-name="Path 3108" d="M-542.764,303.127l1.565-1.5c.355-.34.715-.674,1.061-1.023a.475.475,0,0,1,.655-.017.459.459,0,0,1-.045.652l-.872.835-1.968,1.886a.463.463,0,0,1-.728.024q-1-.8-2-1.6a.441.441,0,0,1-.15-.523.435.435,0,0,1,.683-.171c.32.25.636.506.954.759Z" transform="translate(-21.934 -161.941)" fill="#da251c"/>
    <path id="Path_3109" data-name="Path 3109" d="M-473.341,133.3a.648.648,0,0,1,.661.654.652.652,0,0,1-.669.66.658.658,0,0,1-.658-.662A.654.654,0,0,1-473.341,133.3Z" transform="translate(-85.512 -12.823)" fill="#da251c"/>
  </g>
</svg>
