<svg id="Delete" xmlns="http://www.w3.org/2000/svg" width="64.915" height="64.915" viewBox="0 0 64.915 64.915">
  <g id="circle" transform="translate(0)">
    <path id="Path_2664" data-name="Path 2664" d="M52.743,64.915H12.171A12.171,12.171,0,0,1,0,52.743V12.171A12.171,12.171,0,0,1,12.171,0H52.743A12.171,12.171,0,0,1,64.914,12.171V52.743A12.171,12.171,0,0,1,52.743,64.915Zm0,0" fill="#ffe6e2"/>
    <path id="Path_2665" data-name="Path 2665" d="M144.229,128a16.229,16.229,0,1,0,16.229,16.229A16.248,16.248,0,0,0,144.229,128Zm5.976,20.294a1.352,1.352,0,1,1-1.911,1.913l-4.065-4.065-4.065,4.065a1.352,1.352,0,1,1-1.911-1.913l4.063-4.065-4.065-4.065a1.353,1.353,0,1,1,1.913-1.913l4.065,4.065,4.065-4.065a1.353,1.353,0,0,1,1.913,1.913l-4.065,4.065Zm0,0" transform="translate(-111.771 -111.771)" fill="#fc573b"/>
  </g>
</svg>
