<svg id="details" xmlns="http://www.w3.org/2000/svg" width="64.914" height="64.915" viewBox="0 0 64.914 64.915">
  <path id="Path_2664" data-name="Path 2664" d="M52.743,64.915H12.171A12.171,12.171,0,0,1,0,52.743V12.171A12.171,12.171,0,0,1,12.171,0H52.743A12.171,12.171,0,0,1,64.914,12.171V52.743A12.171,12.171,0,0,1,52.742,64.915Zm0,0" fill="#f5eee8"/>
  <path id="Subtraction_1" data-name="Subtraction 1" d="M16.126,32.25A16.125,16.125,0,1,1,32.25,16.126,16.125,16.125,0,0,1,16.126,32.25ZM10.769,8.361a2.41,2.41,0,0,0-2.407,2.407V21.357a2.41,2.41,0,0,0,2.407,2.407h7.37a.6.6,0,0,0,0-1.2h-7.37a1.2,1.2,0,0,1-1.2-1.2V10.769a1.2,1.2,0,0,1,1.2-1.2H21.357a1.2,1.2,0,0,1,1.2,1.2v7.4a.6.6,0,0,0,1.2,0v-7.4A2.41,2.41,0,0,0,21.35,8.362Zm6.378,8.123a.6.6,0,0,0-.58.762l.672,2.428a.614.614,0,0,0,.154.264l3.291,3.3a1.8,1.8,0,1,0,2.553-2.552l-3.3-3.3a.6.6,0,0,0-.251-.15l-2.368-.72a.6.6,0,0,0-.172-.032Zm-5.175-.511a.6.6,0,1,0,0,1.2H14.74a.6.6,0,0,0,0-1.2Zm0-2.407a.6.6,0,0,0,0,1.2h8.182a.6.6,0,1,0,0-1.2Zm0-2.406a.6.6,0,0,0,0,1.2h8.182a.6.6,0,1,0,0-1.2Zm9.988,11.4a.6.6,0,0,1-.425-.176l-.117-.116.851-.851.116.116a.6.6,0,0,1-.426,1.027Zm-1.391-1.144h0L18.356,19.2l-.339-1.221,1.177.357,2.223,2.229-.85.85Z" transform="translate(16.28 16.332)" fill="#b16706"/>
</svg>
