<svg xmlns="http://www.w3.org/2000/svg" width="20.295" height="21.165" viewBox="0 0 20.295 21.165">
  <g id="edit" transform="translate(-1662.047 -316.235)">
    <g id="Group_2433" data-name="Group 2433" transform="translate(1662.047 316.235)">
      <path id="Path_5803" data-name="Path 5803" d="M414.938-198.52c-.331-.171-.462-.361-.433-.627a.56.56,0,0,1,.492-.507,1.74,1.74,0,0,1,.267-.013h18.77c.055,0,.11,0,.165,0a.576.576,0,0,1,.587.479.56.56,0,0,1-.376.634.342.342,0,0,0-.05.034Z" transform="translate(-414.501 219.685)" fill="#5d5c5c"/>
      <path id="Path_5804" data-name="Path 5804" d="M436.677-301.146a3.754,3.754,0,0,1-1.119,2.6q-4.622,4.625-9.251,9.243a.912.912,0,0,1-.425.229q-2.647.591-5.3,1.159a.625.625,0,0,1-.807-.81c.382-1.76.762-3.521,1.157-5.279a1,1,0,0,1,.271-.445q4.573-4.6,9.155-9.193a4.121,4.121,0,0,1,1.142-.838,3.617,3.617,0,0,1,5,2.32C436.587-301.828,436.62-301.484,436.677-301.146Zm-10.844,10.689,8.073-8.166-3.428-3.423-8.072,8.072Zm5.435-12.463,3.556,3.464a2.487,2.487,0,0,0-.053-3.482A2.472,2.472,0,0,0,431.268-302.92Zm-6.63,12.934-2.786-2.786-.785,3.573Z" transform="translate(-418.751 304.817)" fill="#da251c"/>
    </g>
  </g>
</svg>
