<svg xmlns="http://www.w3.org/2000/svg" width="31.282" height="31.202" viewBox="0 0 31.282 31.202">
  <g id="exitingprocurement" transform="translate(-856.435 -272.667)">
    <path id="Path_16112" data-name="Path 16112" d="M860.8,331.9c.042-.17.061-.266.089-.358q.149-.482.3-.961c.237-.735.242-.74-.349-1.24a.391.391,0,0,0-.313-.046c-.478.14-.95.3-1.426.452-.4.127-.577.075-.8-.281-.25-.406-.48-.824-.711-1.242a.557.557,0,0,1,.143-.756c.366-.323.721-.661,1.091-.979a.445.445,0,0,0,.152-.472.818.818,0,0,0-.878-.805,7.548,7.548,0,0,1-1.081-.23.493.493,0,0,1-.437-.493q-.018-.812,0-1.625a.505.505,0,0,1,.46-.508c.488-.1.973-.223,1.464-.31.227-.04.3-.16.379-.36a.8.8,0,0,0-.337-1.09,10.043,10.043,0,0,1-.8-.713.555.555,0,0,1-.156-.754c.241-.436.492-.868.743-1.3a.553.553,0,0,1,.727-.252c.474.156.952.3,1.422.465a.42.42,0,0,0,.452-.113.818.818,0,0,0,.268-1.162,7.306,7.306,0,0,1-.337-1.018.542.542,0,0,1,.246-.7c.43-.252.861-.5,1.3-.746a.557.557,0,0,1,.757.14c.331.374.675.737,1,1.116.132.154.256.15.45.128a.814.814,0,0,0,.807-.875,8.382,8.382,0,0,1,.222-1.049.519.519,0,0,1,.531-.475q.78-.014,1.561,0a.534.534,0,0,1,.55.495c.1.5.2,1,.33,1.493a.557.557,0,0,0,.276.289.823.823,0,0,0,1.191-.353,7.58,7.58,0,0,1,.691-.779.542.542,0,0,1,.73-.133q.655.361,1.3.741a.556.556,0,0,1,.252.727c-.156.474-.3.952-.464,1.422a.418.418,0,0,0,.111.452.82.82,0,0,0,1.162.27,7.2,7.2,0,0,1,1.017-.338.541.541,0,0,1,.7.245c.257.44.513.88.758,1.327a.543.543,0,0,1-.15.728c-.373.333-.737.675-1.116,1a.428.428,0,0,0-.129.45.817.817,0,0,0,.875.808,8.228,8.228,0,0,1,1.081.23.493.493,0,0,1,.439.491q.02.812,0,1.625a.507.507,0,0,1-.459.51c-.488.1-.973.221-1.463.314-.218.041-.3.152-.382.357a.806.806,0,0,0,.339,1.09,9.577,9.577,0,0,1,.827.736.544.544,0,0,1,.131.732c-.241.436-.491.868-.743,1.3a.554.554,0,0,1-.727.251c-.474-.156-.952-.3-1.422-.465-.193-.068-.3,0-.452.114a.817.817,0,0,0-.266,1.162,7.377,7.377,0,0,1,.337,1.018.544.544,0,0,1-.248.7c-.43.252-.861.5-1.3.745a.557.557,0,0,1-.757-.142c-.331-.374-.675-.737-1-1.116-.133-.155-.258-.147-.451-.126a.814.814,0,0,0-.806.876,8.022,8.022,0,0,1-.23,1.08.494.494,0,0,1-.493.437q-.812.019-1.625,0a.506.506,0,0,1-.508-.461c-.1-.488-.222-.973-.312-1.463-.041-.222-.159-.3-.359-.379a.8.8,0,0,0-1.09.34,9.91,9.91,0,0,1-.714.8.557.557,0,0,1-.755.152c-.445-.248-.892-.494-1.32-.77A1.436,1.436,0,0,1,860.8,331.9Zm14.467-12.6-.366-.634c-.567.18-1.106.343-1.639.524a.6.6,0,0,1-.7-.194c-.271-.3-.55-.586-.844-.857-.345-.318-.386-.424-.24-.881.162-.5.324-1.005.492-1.525l-.641-.358c-.4.439-.779.854-1.155,1.275a.6.6,0,0,1-.7.18,9.91,9.91,0,0,0-1.191-.322.665.665,0,0,1-.6-.582c-.1-.54-.23-1.077-.347-1.62H866.6c-.12.556-.242,1.095-.349,1.636a.65.65,0,0,1-.583.562,7.472,7.472,0,0,0-1.129.3.673.673,0,0,1-.836-.215c-.352-.41-.724-.8-1.1-1.219l-.637.364c.174.541.329,1.059.509,1.569a.663.663,0,0,1-.218.808,9.2,9.2,0,0,0-.851.85.646.646,0,0,1-.778.216c-.519-.182-1.047-.339-1.592-.514l-.36.639c.421.381.815.753,1.225,1.106a.66.66,0,0,1,.214.808,7.368,7.368,0,0,0-.3,1.128.675.675,0,0,1-.609.613c-.531.1-1.056.227-1.6.345v.736c.554.119,1.091.244,1.632.349a.648.648,0,0,1,.568.577,6.1,6.1,0,0,0,.289,1.1.711.711,0,0,1-.244.914c-.4.34-.786.706-1.18,1.063l.368.633c.554-.177,1.092-.338,1.623-.521a.61.61,0,0,1,.723.2c.253.282.518.556.8.812.394.361.424.438.256.961-.158.491-.313.982-.471,1.478l.636.36c.392-.432.775-.845,1.147-1.267a.611.611,0,0,1,.728-.186,8.492,8.492,0,0,0,1.159.314.676.676,0,0,1,.62.6c.1.539.23,1.073.347,1.607h.735c.117-.538.245-1.063.343-1.594a.672.672,0,0,1,.61-.611,6.07,6.07,0,0,0,1.1-.293.683.683,0,0,1,.862.222c.35.411.722.8,1.092,1.211l.633-.373c-.174-.539-.326-1.048-.5-1.548a.673.673,0,0,1,.227-.833,6.47,6.47,0,0,0,.8-.8.689.689,0,0,1,.859-.24c.506.182,1.023.334,1.547.5l.356-.641c-.42-.381-.806-.748-1.21-1.093a.672.672,0,0,1-.222-.833,7.339,7.339,0,0,0,.3-1.129.662.662,0,0,1,.589-.594c.54-.1,1.075-.229,1.609-.345v-.744c-.561-.12-1.1-.241-1.642-.349a.638.638,0,0,1-.55-.557,8.868,8.868,0,0,0-.308-1.161.657.657,0,0,1,.2-.811C874.44,320.064,874.836,319.692,875.268,319.3Z" transform="translate(-0.109 -30.188)" fill="#f6f6f6"/>
    <path id="Path_16113" data-name="Path 16113" d="M918.115,273.834c.14.052.255.084.359.136.359.18.712.371,1.07.551a.38.38,0,0,0,.6-.25c.128-.391.254-.784.374-1.178a.521.521,0,0,1,.513-.42q.665-.014,1.331,0a.536.536,0,0,1,.529.444c.111.374.234.744.354,1.116s.32.444.664.266.694-.359,1.036-.544a.541.541,0,0,1,.689.073c.313.3.618.608.919.92a.541.541,0,0,1,.076.688c-.174.325-.342.654-.512.98-.228.439-.156.605.324.754.331.1.661.212.994.307a.572.572,0,0,1,.48.574c0,.433,0,.866-.007,1.3a.525.525,0,0,1-.419.515c-.393.122-.785.248-1.177.374a.383.383,0,0,0-.252.6c.181.358.363.716.556,1.067a.554.554,0,0,1-.068.716c-.3.312-.606.62-.92.919a.542.542,0,0,1-.69.065c-.352-.191-.709-.375-1.066-.558a.391.391,0,0,0-.62.26c-.127.392-.251.784-.375,1.177a.508.508,0,0,1-.492.4q-.681.015-1.363,0a.519.519,0,0,1-.508-.426c-.1-.332-.233-.656-.307-.994-.11-.5-.387-.625-.849-.339-.285.177-.6.31-.891.472a.55.55,0,0,1-.715-.079c-.31-.3-.619-.608-.918-.921a.528.528,0,0,1-.072-.661c.188-.354.375-.709.559-1.066.166-.322.081-.534-.258-.646-.381-.125-.762-.25-1.146-.365a.519.519,0,0,1-.427-.506q-.017-.665,0-1.331a.533.533,0,0,1,.439-.533c.4-.115.786-.244,1.177-.374a.381.381,0,0,0,.242-.582c-.175-.349-.347-.7-.542-1.038a.612.612,0,0,1,.1-.824c.284-.283.565-.57.861-.841A1.8,1.8,0,0,1,918.115,273.834Zm7.028,8.893a.461.461,0,0,0,.334-.549,2.608,2.608,0,0,0-.212-.4,1.456,1.456,0,0,1-.119-1.743.9.9,0,0,1,.549-.5c.334-.092.658-.224.994-.3.219-.052.228-.183.229-.357s-.016-.282-.217-.333a7.75,7.75,0,0,1-1.052-.335.859.859,0,0,1-.429-.352c-.455-.921-.445-.926.026-1.823a3.663,3.663,0,0,1,.182-.345.337.337,0,0,0-.046-.5.322.322,0,0,0-.478-.029c-.09.059-.2.087-.287.152a1.435,1.435,0,0,1-1.793.1,1.231,1.231,0,0,1-.442-.469,6.194,6.194,0,0,1-.338-1.05c-.05-.2-.159-.226-.329-.222s-.323,0-.358.225c-.023.148-.105.287-.129.435a1.406,1.406,0,0,1-1.16,1.3c-.021,0-.04.025-.06.025a1.769,1.769,0,0,1-.586-.025,7.937,7.937,0,0,1-.983-.5.289.289,0,0,0-.4.045.357.357,0,0,0-.07.527c.361.643.838,1.282.268,2.051-.012.017-.011.045-.025.059-.133.131-.246.31-.407.38a8.98,8.98,0,0,1-.988.321c-.188.058-.35.094-.348.374s.135.332.336.382c.116.03.227.079.344.1a1.442,1.442,0,0,1,1.291,1.133.9.9,0,0,1-.021.743c-.166.292-.3.6-.475.889a.316.316,0,0,0,.062.448.324.324,0,0,0,.475.051c.652-.377,1.3-.842,2.081-.275.008.006.024,0,.03.011a1.911,1.911,0,0,1,.417.455,6.845,6.845,0,0,1,.347,1.082c.053.209.184.2.341.2s.286,0,.338-.209a6.8,6.8,0,0,1,.348-1.082,1.145,1.145,0,0,1,.423-.447,1.437,1.437,0,0,1,1.794.092,2.557,2.557,0,0,0,.4.212C925.057,282.688,925.106,282.709,925.144,282.727Z" transform="translate(-43.893)" fill="#f6f6f6"/>
    <path id="Path_16114" data-name="Path 16114" d="M945.991,332.962c-.339-.153-.614-.275-.888-.4a.506.506,0,0,0-.775.329.285.285,0,0,1-.013.03c-.148.3-.114.791-.489.865a6.247,6.247,0,0,1-1.543.019c-.106-.006-.231-.186-.3-.312a5.7,5.7,0,0,1-.24-.638.5.5,0,0,0-.738-.306c-.059.027-.116.058-.175.086-.779.372-.843.36-1.461-.257l-.045-.047c-.6-.625-.6-.649-.242-1.438a1.357,1.357,0,0,0,.117-.566.376.376,0,0,0-.358-.358.115.115,0,0,1-.03-.013c-.3-.146-.793-.11-.869-.482a5.988,5.988,0,0,1-.025-1.542c.007-.113.2-.243.335-.313a5.652,5.652,0,0,1,.639-.236.5.5,0,0,0,.3-.694c-.094-.207-.193-.412-.293-.617a.539.539,0,0,1,.095-.66c.255-.266.515-.527.783-.78a.54.54,0,0,1,.661-.083c.184.092.371.179.558.266a.5.5,0,0,0,.754-.321c.015-.041.03-.082.047-.121.131-.288.114-.744.473-.8a7.237,7.237,0,0,1,1.574.01c.095.006.2.184.26.3.1.2.159.426.237.64a.5.5,0,0,0,.718.3c.108-.05.216-.1.323-.153.619-.294.675-.286,1.172.169q.06.055.118.112c.693.672.7.711.284,1.588-.227.478-.135.7.357.883.945.344.958.364.937,1.381-.015.761-.057.818-.772,1.075-.1.036-.2.072-.306.111a.494.494,0,0,0-.279.7c.027.059.056.117.084.176.387.816.383.871-.276,1.508C946.486,332.59,946.232,332.767,945.991,332.962Zm-5.782-7.372c-.064.133-.186.269-.176.394a1.241,1.241,0,0,0,.21.47.759.759,0,0,1,0,.857.769.769,0,0,0-.116.267.94.94,0,0,1-.753.753c-.181.057-.494,0-.5.348s.322.249.491.36c.2.133.506.2.6.385.318.589.622,1.215.094,1.861a.046.046,0,0,0-.012.03c.015.1,0,.237.057.3a.341.341,0,0,0,.293.062,2.736,2.736,0,0,0,.5-.23.862.862,0,0,1,.713,0,1.493,1.493,0,0,1,1.194,1.245.28.28,0,0,0,.227.151.358.358,0,0,0,.255-.164c.1-.193.133-.414.228-.607a.732.732,0,0,1,.286-.331c.607-.3,1.226-.587,1.866-.064a.044.044,0,0,0,.03.012c.093-.016.22,0,.27-.059a.352.352,0,0,0,.071-.292c-.066-.2-.2-.388-.26-.594a.93.93,0,0,1-.014-.5c.2-.655.488-1.227,1.279-1.32.064-.007.16-.148.158-.224a.355.355,0,0,0-.155-.263c-.192-.1-.413-.133-.607-.227a.727.727,0,0,1-.336-.28c-.293-.606-.593-1.224-.073-1.866a.044.044,0,0,0,.012-.03c-.02-.1-.009-.236-.071-.295a.349.349,0,0,0-.3-.049c-.194.064-.368.193-.563.248a.919.919,0,0,1-.5.021c-.646-.2-1.238-.473-1.33-1.272-.008-.069-.162-.168-.247-.167a.314.314,0,0,0-.243.174,1.331,1.331,0,0,1-1.1,1.164.392.392,0,0,0-.117.057.656.656,0,0,1-.68,0C940.7,325.817,940.494,325.725,940.209,325.59Z" transform="translate(-60.543 -37.808)" fill="#f6f6f6"/>
    <path id="Path_16115" data-name="Path 16115" d="M867.655,296.758l-.674-.569.844-.794c.192.219.4.467.617.7.276.292.572.564.848.856a.485.485,0,0,1,.039.729c-.512.53-1.045,1.038-1.58,1.565l-.755-.767.625-.468-.07-.129a12.543,12.543,0,0,0-10.3,4.483l-.811-.677A13.934,13.934,0,0,1,867.655,296.758Z" transform="translate(0 -16.895)" fill="#f6f6f6"/>
    <path id="Path_16116" data-name="Path 16116" d="M965.828,277.1l-.2,1.016-1.326-.252a8.9,8.9,0,0,1,.692,5.843,8.732,8.732,0,0,1-1.732,3.612l-.794-.637a7.717,7.717,0,0,0,.913-8.188l-.274,1.3-1.016-.2c.181-.9.346-1.773.536-2.639a.465.465,0,0,1,.568-.374C964.06,276.74,964.918,276.92,965.828,277.1Z" transform="translate(-78.537 -2.903)" fill="#f6f6f6"/>
    <path id="Path_16117" data-name="Path 16117" d="M886.177,337.164a5.735,5.735,0,1,1-5.728-5.749A5.746,5.746,0,0,1,886.177,337.164Zm-10.427-.03a4.692,4.692,0,1,0,4.723-4.677A4.7,4.7,0,0,0,875.751,337.135Z" transform="translate(-13.583 -43.669)" fill="#da251c"/>
    <path id="Path_16118" data-name="Path 16118" d="M934.766,289.355a2.606,2.606,0,1,1-2.594-2.625A2.614,2.614,0,0,1,934.766,289.355Zm-1.043-.027a1.563,1.563,0,1,0-1.572,1.571A1.569,1.569,0,0,0,933.723,289.328Z" transform="translate(-54.351 -10.454)" fill="#da251c"/>
    <path id="Path_16119" data-name="Path 16119" d="M954.036,337.56a2.084,2.084,0,1,1-2.1-2.08A2.09,2.09,0,0,1,954.036,337.56Zm-1.043,0a1.042,1.042,0,1,0-1.031,1.044A1.05,1.05,0,0,0,952.993,337.562Z" transform="translate(-69.45 -46.691)" fill="#da251c"/>
  </g>
</svg>
