<svg xmlns="http://www.w3.org/2000/svg" width="25.156" height="30.123" viewBox="0 0 25.156 30.123">
  <g id="inventorystatus" transform="translate(872.016 275.155)">
    <path id="Path_3069" data-name="Path 3069" d="M-405.588,354.811c.906,0,1.813,0,2.719,0a.868.868,0,0,1,.4.138c.686.338,1.368.685,2.053,1.027a.288.288,0,0,1,.18.287q0,2.746,0,5.492a.239.239,0,0,1-.268.271l-3.712,0c-.59,0-1.18,0-1.77.007a.567.567,0,0,1-.344-.146c-.5-.35-1-.705-1.506-1.057-.2-.14-.4-.28-.6-.416a.355.355,0,0,1-.173-.326c0-1.661,0-3.322,0-4.983,0-.2.084-.286.287-.286Zm-.231,5.577h5.112v-3.943h-1.509v.112q0,.8,0,1.592c0,.183-.08.266-.259.266q-.787,0-1.574,0c-.177,0-.259-.087-.259-.266q0-.8,0-1.6v-.106h-1.509Zm-.468-.215v-.093q0-1.3,0-2.594c0-.355,0-.71,0-1.064a.119.119,0,0,0-.045-.091q-.872-.443-1.748-.878c-.018-.009-.037-.015-.066-.027v.1q0,.523,0,1.047,0,1.109,0,2.218a.138.138,0,0,0,.034.1q.3.224.608.439c.3.214.611.425.917.637C-406.493,360.036-406.4,360.1-406.287,360.173Zm5.58.69h-5.108v.689h5.108Zm-6.646-5.587,0,.015c.012.008.024.016.037.022q.643.321,1.288.64a.262.262,0,0,0,.112.019h4.45c-.043-.026-.062-.039-.082-.049-.421-.21-.842-.42-1.264-.627a.282.282,0,0,0-.121-.021h-4.417Zm3.514,2.669h1.156v-1.5h-1.156Zm-4.309,1.508c0,.185,0,.351,0,.517a.154.154,0,0,0,.057.1q.767.546,1.539,1.086c.082.057.165.112.262.177,0-.2,0-.381,0-.564,0-.017-.023-.039-.04-.051l-1.576-1.109C-407.98,359.561-408.057,359.512-408.148,359.452Z" transform="translate(-446.622 -607.155)" fill="#da241c"/>
    <path id="Path_3070" data-name="Path 3070" d="M-753.383-164.381c-.247,0-.495,0-.742,0a.926.926,0,0,1-.915-.928q0-.706,0-1.412a.927.927,0,0,1,.948-.951q.7,0,1.394,0a.924.924,0,0,1,.951.948q0,.706,0,1.412a.931.931,0,0,1-.932.931C-752.913-164.379-753.148-164.381-753.383-164.381Zm-.71-2.345v1.4h1.4v-1.4Z" transform="translate(-112.652 -103.589)" fill="#da241c"/>
    <path id="Path_3072" data-name="Path 3072" d="M-753.383,97.693c-.247,0-.495,0-.742,0a.926.926,0,0,1-.915-.928q0-.706,0-1.412a.927.927,0,0,1,.948-.951q.7,0,1.394,0a.924.924,0,0,1,.951.948q0,.706,0,1.412a.931.931,0,0,1-.932.931C-752.913,97.695-753.148,97.693-753.383,97.693Zm-.71-2.345v1.4h1.4v-1.4Z" transform="translate(-112.652 -356.175)" fill="#da241c"/>
    <path id="Path_3074" data-name="Path 3074" d="M-824.357-228.735q0-3.161,0-6.322Z" transform="translate(-25.067 -25.037)" fill="#fff"/>
    <path id="Path_3075" data-name="Path 3075" d="M-859.326-245.973h-11.111c-.485,0-.637-.152-.637-.637q0-5.23,0-10.461,0-6.785,0-13.571,0-1.483,0-2.966c0-.438.166-.6.6-.6h20.468c.409,0,.583.173.583.583q0,5.574,0,11.149v2.387q0,3.161,0,6.322h.942q0-3.9,0-7.8,0-6.063,0-12.126a1.4,1.4,0,0,0-1.459-1.458q-6.18,0-12.36.005-4.154,0-8.307,0a1.406,1.406,0,0,0-1.406,1.4c0,.742,0,1.483,0,2.225q0,5.719,0,11.437,0,.931,0,1.863,0,5.873,0,11.745a1.4,1.4,0,0,0,1.451,1.449h15.125v-.941Z" fill="#fff"/>
    <rect id="Rectangle_1983" data-name="Rectangle 1983" width="10.575" height="1.097" rx="0.548" transform="translate(-862.605 -270.014)" fill="#fff"/>
    <rect id="Rectangle_1984" data-name="Rectangle 1984" width="10.575" height="1.097" rx="0.548" transform="translate(-862.605 -265.382)" fill="#fff"/>
    <rect id="Rectangle_1985" data-name="Rectangle 1985" width="10.575" height="1.097" rx="0.548" transform="translate(-862.605 -260.676)" fill="#fff"/>
    <rect id="Rectangle_1986" data-name="Rectangle 1986" width="10.575" height="1.097" rx="0.548" transform="translate(-862.605 -256.006)" fill="#fff"/>
    <path id="Path_3076" data-name="Path 3076" d="M-755.025-33.959c0-.259-.009-.519,0-.778a.952.952,0,0,1,.884-.849c.476,0,.951,0,1.427,0a.927.927,0,0,1,.976,1c0,.446,0,.893,0,1.339a.921.921,0,0,1-.942.955q-.715.009-1.43,0a.927.927,0,0,1-.922-.923c0-.247,0-.494,0-.741Zm.946-.688v1.4h1.39v-1.4Z" transform="translate(-112.664 -230.894)" fill="#da241c"/>
    <path id="Path_3077" data-name="Path 3077" d="M-755.025,225.02c0-.259-.009-.519,0-.778a.952.952,0,0,1,.884-.849c.476,0,.951,0,1.427,0a.927.927,0,0,1,.976,1c0,.446,0,.893,0,1.339a.921.921,0,0,1-.942.955q-.715.009-1.43,0a.927.927,0,0,1-.922-.923c0-.247,0-.494,0-.741Zm.946-.688v1.4h1.39v-1.4Z" transform="translate(-112.664 -480.497)" fill="#da241c"/>
  </g>
</svg>
