<svg xmlns="http://www.w3.org/2000/svg" width="27.91" height="22.907" viewBox="0 0 27.91 22.907">
  <g id="mail" transform="translate(-4674.75 -1069.841)">
    <path id="Path_13049" data-name="Path 13049" d="M4766.572,1083.693c-.165.178-.324.36-.5.532q-4.083,4.087-8.17,8.171c-.472.472-.67.47-1.149-.009L4744,1079.63c-.438-.438-.438-.656,0-1.091l8.381-8.382c.423-.423.648-.422,1.072,0l4.664,4.662a.609.609,0,0,1,.239.647.536.536,0,0,1-.835.282,1.964,1.964,0,0,1-.219-.2l-3.447-3.45a2.514,2.514,0,0,1-.184-.236l-.067.032a1.341,1.341,0,0,0-.028.192c0,3.088-.006,6.177,0,9.265a1.416,1.416,0,0,0,1.518,1.492q4.605.005,9.211,0c.069,0,.138-.011.25-.02-.09-.1-.153-.172-.219-.24l-3.6-3.6a2.313,2.313,0,0,1-.188-.2.53.53,0,0,1,.033-.719.545.545,0,0,1,.719-.047,2,2,0,0,1,.2.186q2.389,2.389,4.777,4.78a4.045,4.045,0,0,1,.3.382Zm-9.8,7.1v-6.869c-.642,0-1.259.022-1.875,0a2.478,2.478,0,0,1-2.356-2.017,5.219,5.219,0,0,1-.055-.922c-.009-.442,0-.885,0-1.337h-6.864Zm-4.305-19.079-6.8,6.8h6.8Zm5.448,12.235v6.768l6.768-6.768Z" transform="translate(-63.912)" fill="#da251c"/>
    <path id="Path_13050" data-name="Path 13050" d="M4674.75,1226.222a.732.732,0,0,1,.74-.388c.962.017,1.924.005,2.886.007.4,0,.65.2.658.531s-.248.558-.658.558c-.961,0-1.923-.01-2.885.007a.734.734,0,0,1-.74-.388Z" transform="translate(0 -144.655)" fill="#5d5c5c"/>
    <path id="Path_13051" data-name="Path 13051" d="M4674.75,1147.464a.721.721,0,0,1,.738-.387c.488.022.978,0,1.467.006a.55.55,0,1,1,0,1.088c-.489,0-.979-.015-1.467.006a.721.721,0,0,1-.738-.387Z" transform="translate(0 -71.621)" fill="#da251c"/>
    <path id="Path_13052" data-name="Path 13052" d="M4699.368,1315.161h3.757a.561.561,0,0,1,.625.477.549.549,0,0,1-.465.6,1.607,1.607,0,0,1-.245.008q-3.674,0-7.349,0a.992.992,0,0,1-.465-.1.475.475,0,0,1-.221-.588.519.519,0,0,1,.526-.394c.572-.006,1.143,0,1.715,0Z" transform="translate(-18.756 -227.489)" fill="#5d5c5c"/>
    <path id="Path_13053" data-name="Path 13053" d="M4728.016,1267.156c.489,0,.979,0,1.468,0a.548.548,0,1,1,.007,1.088q-1.455.005-2.909,0a.548.548,0,1,1-.007-1.088C4727.055,1267.154,4727.535,1267.156,4728.016,1267.156Z" transform="translate(-47.489 -182.973)" fill="#5d5c5c"/>
    <path id="Path_13054" data-name="Path 13054" d="M4724.955,1147.148c.327,0,.653,0,.979,0a.545.545,0,1,1-.009,1.087q-.979.007-1.956,0a.546.546,0,1,1,.008-1.088C4724.3,1147.144,4724.628,1147.148,4724.955,1147.148Z" transform="translate(-45.092 -71.686)" fill="#5d5c5c"/>
    <path id="Path_13055" data-name="Path 13055" d="M4742.126,1226.5a.537.537,0,0,1-.539.532.544.544,0,1,1,0-1.088.537.537,0,0,1,.542.556Z" transform="translate(-61.473 -144.753)" fill="#5d5c5c"/>
    <path id="Path_13056" data-name="Path 13056" d="M4954.187,1161.212a.528.528,0,0,1-.549-.514.544.544,0,0,1,.526-.571.563.563,0,0,1,.557.549A.544.544,0,0,1,4954.187,1161.212Z" transform="translate(-258.618 -83.724)" fill="#5d5c5c"/>
  </g>
</svg>
