<svg xmlns="http://www.w3.org/2000/svg" width="27.815" height="23.483" viewBox="0 0 27.815 23.483">
  <g id="print" transform="translate(-1711.083 -314.758)">
    <g id="Group_8667" data-name="Group 8667" transform="translate(738.895 -114.556)">
      <path id="Path_16206" data-name="Path 16206" d="M972.188,431.981c.07-.242.125-.49.214-.724a3,3,0,0,1,2.737-1.934c1.394-.016,2.789-.006,4.183-.006q8.775,0,17.549,0a3.04,3.04,0,0,1,.239,6.076c-.469.023-.94,0-1.43,0v.877c.443,0,.884-.007,1.325,0a3.04,3.04,0,0,1,.081,6.076c-.461.016-.923,0-1.425,0v.327c0,2.291,0,4.582,0,6.873a.832.832,0,0,1-.267.647q-1.182,1.161-2.344,2.343a.779.779,0,0,1-.6.253q-6.792-.008-13.583,0c-.464,0-.6-.133-.6-.6q0-4.74,0-9.481v-.357h-2.859a3.045,3.045,0,0,1-3.189-2.593.279.279,0,0,0-.039-.069v-.761a.519.519,0,0,0,.042-.1,3.028,3.028,0,0,1,3.1-2.566c.724,0,1.448,0,2.172,0h.755V435.4h-.315c-.905,0-1.811.009-2.716,0a3.038,3.038,0,0,1-2.887-2.114c-.058-.178-.1-.362-.15-.543Zm6.966,19.923h13.028c0-.679,0-1.339,0-2,0-.458.136-.591.6-.592.589,0,1.177,0,1.765,0,.077,0,.155-.01.226-.015V435.42H979.154ZM977.4,434.533h.266q9.6,0,19.2,0a2.639,2.639,0,0,0,.67-.083,2.167,2.167,0,0,0-.6-4.258q-9.67,0-19.34,0c-.058,0-.116.009-.186.015A3.119,3.119,0,0,1,977.4,434.533Zm18.278,6.951c.492,0,.954.018,1.414,0a2.17,2.17,0,0,0,.622-4.207,7.1,7.1,0,0,0-2.036-.136Zm-18.27-2.161a2.172,2.172,0,1,0-2.189,2.165A2.175,2.175,0,0,0,977.4,439.323Zm0-6.945a2.173,2.173,0,1,0-2.2,2.155A2.174,2.174,0,0,0,977.4,432.377Zm.861,9.1v-1.689a3.555,3.555,0,0,1-.886,1.689Zm15.812,8.722h-1.009v1.027Zm-15.821-11.378v-1.663h-.872A3.359,3.359,0,0,1,978.256,438.826Z" transform="translate(0 0)" fill="#da251c"/>
      <path id="Path_16207" data-name="Path 16207" d="M1018.653,478.451l1.849-2.87c.059-.091.113-.186.178-.272a.434.434,0,0,1,.748,0c.039.05.071.1.105.158q1.843,2.865,3.687,5.729c.125.195.252.387.114.625-.129.222-.348.228-.572.228q-5.025,0-10.051,0c-.227,0-.437-.017-.556-.249s-.005-.4.111-.578q1.325-2.036,2.649-4.073c.279-.428.6-.429.885,0S1018.353,477.989,1018.653,478.451Zm2.4-2.123-3.107,4.831h6.217Zm-3.7,1.731-2.023,3.115c.512,0,.964.007,1.414-.006a.334.334,0,0,0,.234-.13q.547-.823,1.069-1.662a.269.269,0,0,0,.007-.234C1017.844,478.79,1017.612,478.447,1017.359,478.059Z" transform="translate(-32.36 -35.34)" fill="#5d5c5c"/>
      <path id="Path_16208" data-name="Path 16208" d="M1014.1,468.737a1.288,1.288,0,0,1,1.306-1.3,1.306,1.306,0,0,1,1.3,1.292,1.323,1.323,0,0,1-1.314,1.313A1.307,1.307,0,0,1,1014.1,468.737Zm1.287-.433a.419.419,0,0,0-.416.44.433.433,0,0,0,.44.422.45.45,0,0,0,.423-.447A.433.433,0,0,0,1015.39,468.3Z" transform="translate(-32.357 -29.427)" fill="#5d5c5c"/>
      <path id="Path_16209" data-name="Path 16209" d="M982.422,468.752a1.3,1.3,0,1,1-1.325-1.293A1.312,1.312,0,0,1,982.422,468.752Zm-.871,0a.432.432,0,0,0-.865.019.432.432,0,1,0,.865-.019Z" transform="translate(-5.889 -29.447)" fill="#5d5c5c"/>
      <path id="Path_16210" data-name="Path 16210" d="M981.125,439.567a1.3,1.3,0,1,1,1.3-1.3A1.31,1.31,0,0,1,981.125,439.567Zm-.012-1.735a.433.433,0,0,0-.426.437.432.432,0,1,0,.865-.012A.434.434,0,0,0,981.113,437.832Z" transform="translate(-5.889 -5.904)" fill="#5d5c5c"/>
    </g>
  </g>
</svg>
