<svg xmlns="http://www.w3.org/2000/svg" width="27.979" height="28" viewBox="0 0 27.979 28">
  <g id="search" transform="translate(-375.251 -212)">
    <g id="Group_375" data-name="Group 375" transform="translate(287.389 209.801)" opacity="0.61">
      <g id="search_2_" data-name="search (2)" transform="translate(87.862 2.199)">
        <path id="Path_2608" data-name="Path 2608" d="M26.5,30.438a10.44,10.44,0,0,1,8.853-10.318,10.437,10.437,0,1,0,0,20.635A10.44,10.44,0,0,1,26.5,30.438Z" transform="translate(-22.062 -18.908)" fill="#fff" opacity="0.2"/>
        <path id="Path_2609" data-name="Path 2609" d="M11.726,23.06a11.53,11.53,0,1,1,11.53-11.53,11.543,11.543,0,0,1-11.53,11.53Zm0-20.875a9.344,9.344,0,1,0,9.344,9.344,9.355,9.355,0,0,0-9.344-9.344Z" transform="translate(-0.196)" fill="#fff"/>
        <path id="Path_2610" data-name="Path 2610" d="M388.679,389.968a1.09,1.09,0,0,1-.773-.32l-4.891-4.891a1.093,1.093,0,0,1,1.546-1.546l4.891,4.891a1.093,1.093,0,0,1-.773,1.866Z" transform="translate(-361.794 -361.968)" fill="#fff"/>
      </g>
    </g>
  </g>
</svg>
