<svg xmlns="http://www.w3.org/2000/svg" width="37.982" height="43.199" viewBox="0 0 37.982 43.199">
  <g id="username" transform="translate(-738 -418)">
    <g id="Group_2429" data-name="Group 2429" transform="translate(474.277 954.32)">
      <path id="Path_5798" data-name="Path 5798" d="M264.657-479.945a1.631,1.631,0,0,1-.934-1.742,16.655,16.655,0,0,1,13.694-15.892,20.848,20.848,0,0,1,2.892-.243c1.7-.037,3.4-.059,5.1,0,6.54.228,11.32,3.327,14.442,9.021a16.06,16.06,0,0,1,1.848,7.156,1.581,1.581,0,0,1-.932,1.7Zm34.478-2.549c-.108-.635-.192-1.218-.31-1.794a13.987,13.987,0,0,0-13.268-11c-1.9-.025-3.8-.031-5.693.009a11.871,11.871,0,0,0-2.465.278A13.812,13.812,0,0,0,266.81-485.1a26.477,26.477,0,0,0-.546,2.6Z" transform="translate(0 -13.176)" fill="#1f1f1f"/>
      <path id="Path_5799" data-name="Path 5799" d="M286.678-513.54a11.412,11.412,0,0,1-11.4-11.407,11.41,11.41,0,0,1,11.385-11.374,11.408,11.408,0,0,1,11.4,11.406A11.41,11.41,0,0,1,286.678-513.54Zm-.037-2.531a8.875,8.875,0,0,0,8.891-8.818,8.872,8.872,0,0,0-8.807-8.9,8.873,8.873,0,0,0-8.911,8.837A8.876,8.876,0,0,0,286.642-516.071Z" transform="translate(-3.96)" fill="#1f1f1f"/>
    </g>
  </g>
</svg>
