<svg id="wpn" xmlns="http://www.w3.org/2000/svg" width="131.229" height="82.03" viewBox="0 0 131.229 82.03">
  <path id="Path_16218" data-name="Path 16218" d="M468.88,370.466a12.513,12.513,0,0,1,3.83-6.332c.246-.2.241-.772.262-1.176a49.18,49.18,0,0,1,.275-5.74,10.112,10.112,0,0,1,9.74-8.267c2.041-.046,4.085-.008,6.328-.008-.639-1.291-1.17-2.441-1.771-3.553a3.024,3.024,0,0,1-.013-3.038c1.628-3.191,3.212-6.405,4.8-9.617a2.9,2.9,0,0,1,2.858-1.75q22.037.024,44.074.029a2.506,2.506,0,0,1,1.665.449c.775.828,1.531.612,2.41.374,2.757-.746,5.524-1.457,8.292-2.165,1.769-.453,3.135.249,3.523,1.779.363,1.429-.5,2.677-2.239,3.158-2.873.794-5.756,1.557-8.751,2.364.7,1.4,1.386,2.721,2.018,4.061.4.848.987.421,1.52.279q12.792-3.4,25.58-6.824c2.874-.768,5.745-1.549,8.726-2.353-.437-1.655-.848-3.207-1.3-4.92-2.076.542-4.076,1.066-6.078,1.584a14.692,14.692,0,0,1-1.74.411,2.515,2.515,0,0,1-1.133-4.893c2.329-.689,4.689-1.276,7.034-1.908q7.287-1.962,14.573-3.923c2.529-.678,3.541-.088,4.217,2.424q1.081,4.014,2.174,8.024a5.178,5.178,0,0,0,.354.777v1.794a4.668,4.668,0,0,1-2.881,1.868q-25.034,6.633-50.042,13.359c-.468.126-1.087.3-1.3.655-.753,1.269-1.361,2.624-2.106,4.11h1.586c11.531,0,23.061.017,34.592-.019a3.19,3.19,0,0,1,3.233,1.993c.982,2.082,2.152,4.082,3.031,6.2a5.168,5.168,0,0,0,3.664,3.2c4.375,1.372,8.442,3.355,10.22,8.1v4.357c-.676,1.457-1.9,1.969-3.616,1.77.743,3.759-.8,6.705-2.568,9.571-5.48,8.873-13.115,13.666-23.875,13.58-23.915-.19-47.832-.121-71.748-.027-8.516.034-15.366-3.175-20.569-9.8-2.979-3.791-5.914-7.712-5.4-13.006.006-.066-.077-.14-.161-.283a3.024,3.024,0,0,1-3.287-1.808Zm39.687,6.742h-5.027c-.43,6.246-3.515,9.888-8.565,10.14a8.682,8.682,0,0,1-6.066-1.987,9.287,9.287,0,0,1-3.373-8.182h-7.987a6.247,6.247,0,0,0,.491,4.246,56.611,56.611,0,0,0,3.292,5.324c3.781,5.036,8.713,8.262,15.16,8.282q37.994.115,75.988-.034a18.826,18.826,0,0,0,6.807-1.492c5.6-2.276,9-6.844,11.669-12.055a6.8,6.8,0,0,0,.487-4.237h-7.95c-.327,6.116-3.4,9.8-8.441,10.128a8.666,8.666,0,0,1-6.09-1.912,9.3,9.3,0,0,1-3.468-8.219H559.93c-.58,7.735-4.56,12.345-10.949,12.69a11.152,11.152,0,0,1-7.75-2.471,11.78,11.78,0,0,1-4.447-10.219h-5.056c.183,8.75-6.481,12.8-11.709,12.725C514.677,389.86,508.326,385.656,508.567,377.208Zm8.527-25.708c6.616,0,13.232-.014,19.848.019a1.452,1.452,0,0,0,1.574-.923c.937-2.008,2-3.958,2.917-5.974a2.181,2.181,0,0,0,0-1.616c-.918-2.016-1.978-3.966-2.916-5.974a1.455,1.455,0,0,0-1.57-.929q-19.784.039-39.568,0a1.368,1.368,0,0,0-1.477.865c-.957,2.046-2.03,4.036-2.977,6.086a2.013,2.013,0,0,0,0,1.5c.924,2.013,1.986,3.963,2.913,5.975a1.53,1.53,0,0,0,1.664.987C504.032,351.484,510.563,351.5,517.094,351.5Zm77.659,20.457.592-.667c-.631-.361-1.3-.675-1.889-1.092a16.257,16.257,0,0,0-9.5-3.319q-52.005,0-104.011,0c-.384,0-.771-.012-1.152.018a5.238,5.238,0,0,0-4.682,5.061Zm-98.648-10.294h85.448c-.689-1.382-1.392-2.6-1.909-3.9a1.722,1.722,0,0,0-1.943-1.162q-40.086.039-80.173.021h-1.423Zm-5.241-7.6c-2.351,0-4.611.118-6.855-.026-3.656-.237-6.871,2.592-5.7,7.649h12.556Zm23.061,23.068a6.347,6.347,0,0,0,10,6.388,6.067,6.067,0,0,0,2.395-6.326c-.225-.019-.472-.058-.719-.059C521.729,377.13,517.854,377.131,513.925,377.131Zm40.6,0H542.143a6.226,6.226,0,0,0,2.636,6.562,6.382,6.382,0,0,0,7.107,0A6.226,6.226,0,0,0,554.524,377.13Zm38.549-53.245-7.416,2.008,1.336,4.924,7.4-1.991ZM490.989,377.131a3.592,3.592,0,0,0,1.106,4.2,3.8,3.8,0,0,0,6.2-3.375,1.218,1.218,0,0,0-.839-.785C495.289,377.1,493.121,377.131,490.989,377.131Zm83.547,0a24.911,24.911,0,0,0-2.935.04,1.307,1.307,0,0,0-.907.841,3.8,3.8,0,1,0,7.564-.008,1.31,1.31,0,0,0-.914-.833A22.455,22.455,0,0,0,574.536,377.131Z" transform="translate(-468.88 -318.228)" fill="#fff"/>
  <path id="Path_16219" data-name="Path 16219" d="M643.763,337.271a2.484,2.484,0,0,1,2.543-2.484,2.513,2.513,0,0,1,2.526,2.513,2.536,2.536,0,1,1-5.07-.028Z" transform="translate(-552.599 -326.155)" fill="#db2f27"/>
  <path id="Path_16220" data-name="Path 16220" d="M542.35,367.489c-.85,0-1.7.033-2.551-.008a2.565,2.565,0,0,1-2.557-2.494,2.537,2.537,0,0,1,2.572-2.6q2.549-.074,5.1,0a2.549,2.549,0,1,1-.013,5.1C544.052,367.522,543.2,367.489,542.35,367.489Z" transform="translate(-501.605 -339.348)" fill="#db2f27"/>
  <path id="Path_16221" data-name="Path 16221" d="M569.26,367.643a2.517,2.517,0,0,1-2.52-2.527,2.555,2.555,0,1,1,5.109.068A2.516,2.516,0,0,1,569.26,367.643Z" transform="translate(-515.727 -339.45)" fill="#db2f27"/>
</svg>
